<svg width="24" height="14" viewBox="-6.5 0 24 14" fill="none" xmlns="http://www.w3.org/2000/svg">
<path fill-rule="evenodd" clip-rule="evenodd" d="M10.5294 7.4697C10.3887 7.32907 10.198 7.25006 9.99908 7.25006C9.80019 7.25006 9.60943 7.32907 9.46878 7.4697L6.24908 10.6893L6.24908 1.5C6.24908 1.30109 6.17007 1.11032 6.02941 0.96967C5.88876 0.829018 5.698 0.75 5.49908 0.75C5.30017 0.75 5.10941 0.829018 4.96875 0.96967C4.8281 1.11032 4.74908 1.30109 4.74908 1.5L4.74908 10.6893L1.52938 7.4697C1.38851 7.33007 1.19807 7.25193 0.999728 7.25237C0.801385 7.25282 0.611295 7.33181 0.471051 7.47207C0.330808 7.61232 0.251833 7.80242 0.251408 8.00077C0.250982 8.19911 0.329143 8.38954 0.468783 8.5304L4.96878 13.0303C5.10943 13.1709 5.30019 13.2499 5.49908 13.2499C5.69798 13.2499 5.88873 13.1709 6.02938 13.0303L10.5294 8.5303C10.67 8.38965 10.749 8.1989 10.749 8C10.749 7.8011 10.67 7.61035 10.5294 7.4697Z" fill="#0064FF"/>
</svg>
