<svg width="10" height="9" viewBox="0 0 10 9" fill="none" xmlns="http://www.w3.org/2000/svg">
<path id="Vector" d="M9.67204 4.4998C9.67204 3.0378 6.80704 0.954796 5.57604 0.127796C5.23304 -0.103204 4.76604 -0.0122051 4.53604 0.330795C4.30404 0.675796 4.39604 1.1418 4.73904 1.3718C5.92404 2.1688 7.02604 3.0878 7.64904 3.7498L0.75 3.7498C0.336 3.7498 0 4.0858 0 4.4998C0 4.9138 0.336 5.2498 0.75 5.2498H7.64204C7.01704 5.9188 5.91904 6.83484 4.73904 7.62784C4.39704 7.85684 4.30404 8.32184 4.53604 8.66884C4.76604 9.01184 5.23304 9.10384 5.57604 8.87184C6.80704 8.04484 9.67204 5.9618 9.67204 4.4998Z" fill="#0064FF"/>
</svg>
