<svg width="24" height="10" viewBox="-7.5 0 24 10" fill="none" xmlns="http://www.w3.org/2000/svg">
<path d="M4.5002 9.8361C5.9622 9.8361 8.0452 6.9711 8.8722 5.7401C9.1032 5.3971 9.01221 4.9301 8.6692 4.7001C8.3242 4.4681 7.8582 4.5601 7.6282 4.9031C6.8312 6.0881 5.9122 7.1901 5.2502 7.8131V0.914062C5.2502 0.500062 4.9142 0.164062 4.5002 0.164062C4.0862 0.164062 3.7502 0.500062 3.7502 0.914062V7.8061C3.0812 7.1811 2.16516 6.0831 1.37216 4.9031C1.14316 4.5611 0.678163 4.4681 0.331163 4.7001C-0.0118368 4.9301 -0.103836 5.3971 0.128164 5.7401C0.955164 6.9711 3.0382 9.8361 4.5002 9.8361Z" fill="#525252"/>
</svg>
