<svg width="24" height="20" viewBox="-3.5 0 24 20" fill="none" xmlns="http://www.w3.org/2000/svg">
<g id="&#208;&#164;&#208;&#176;&#208;&#185;&#208;&#187;">
<path id="Vector" d="M7.98969 15.1C7.18969 15.1 6.38969 14.8 5.77969 14.19C5.18969 13.6 4.85969 12.82 4.85969 11.98C4.85969 11.14 5.18969 10.36 5.77969 9.77L9.26969 6.28C9.65969 5.89 10.2897 5.89 10.6797 6.28C11.0697 6.67 11.0697 7.3 10.6797 7.69L7.19969 11.18C6.98969 11.39 6.86969 11.67 6.86969 11.97C6.86969 12.27 6.98969 12.55 7.19969 12.76C7.63969 13.2 8.34969 13.2 8.78969 12.76L14.0197 7.53C14.6297 6.92 14.9697 6.1 14.9697 5.24C14.9697 4.38 14.6297 3.56 14.0197 2.95C12.7897 1.73 10.6597 1.73 9.42969 2.95L3.56969 8.81C3.17969 9.2 2.54969 9.2 2.15969 8.81C1.76969 8.42 1.76969 7.79 2.15969 7.4L8.01969 1.54C9.00969 0.55 10.3197 0 11.7197 0C13.1197 0 14.4397 0.55 15.4297 1.54C16.4197 2.53 16.9697 3.85 16.9697 5.25C16.9697 6.65 16.4197 7.97 15.4297 8.96L10.1997 14.19C9.58969 14.79 8.78969 15.1 7.98969 15.1Z" fill="#0064FF"/>
<path id="Vector_2" d="M7.36 19.9602C5.47 19.9602 3.59 19.2402 2.15 17.8102C0.77 16.4202 0 14.5702 0 12.6002C0 10.6302 0.77 8.78016 2.16 7.39016C2.55 7.00016 3.18 7.00016 3.57 7.39016C3.96 7.78016 3.96 8.41016 3.57 8.80016C2.56 9.82016 2 11.1702 2 12.6002C2 14.0302 2.56 15.3802 3.57 16.3902C5.66 18.4802 9.06 18.4802 11.16 16.3902L15.29 12.2702C15.68 11.8802 16.31 11.8802 16.7 12.2702C17.09 12.6602 17.09 13.2902 16.7 13.6802L12.57 17.8002C11.14 19.2402 9.25 19.9602 7.36 19.9602Z" fill="#0064FF"/>
</g>
</svg>
