<svg width="14" height="14" viewBox="0 0 14 14" fill="none" xmlns="http://www.w3.org/2000/svg">
<path d="M6.39844 13.2708C4.22844 13.2708 2.46094 11.5033 2.46094 9.33333V5.83333C2.46094 3.3425 4.49094 1.3125 6.98177 1.3125C9.4726 1.3125 11.5026 3.3425 11.5026 5.83333V9.04167C11.5026 10.4067 10.3884 11.5208 9.02344 11.5208C7.65844 11.5208 6.54427 10.4067 6.54427 9.04167V7C6.54427 6.76083 6.7426 6.5625 6.98177 6.5625C7.22094 6.5625 7.41927 6.76083 7.41927 7V9.04167C7.41927 9.92833 8.13677 10.6458 9.02344 10.6458C9.9101 10.6458 10.6276 9.92833 10.6276 9.04167V5.83333C10.6276 3.82083 8.99427 2.1875 6.98177 2.1875C4.96927 2.1875 3.33594 3.82083 3.33594 5.83333V9.33333C3.33594 11.0192 4.70677 12.3958 6.39844 12.3958C6.6376 12.3958 6.83594 12.5942 6.83594 12.8333C6.83594 13.0725 6.64344 13.2708 6.39844 13.2708Z" fill="#0064FF"/>
</svg>
