<svg width="24" height="28" viewBox="0 0 24 28" fill="none" xmlns="http://www.w3.org/2000/svg">
<path d="M11.4395 14.4402L1.6377 20.0935L3.79199 16.363L7.12891 14.4402H11.4395Z" fill="white" stroke="#212421" stroke-width="1.2"/>
<path d="M21.7588 8.49023L11.9629 14.1426L14.1162 10.4131L17.4531 8.49023H21.7588Z" fill="white" stroke="#212421" stroke-width="1.2"/>
<path d="M13.0771 5.96582V21.7188L10.9238 25.4473V2.2373L13.0771 5.96582Z" fill="white" stroke="#212421" stroke-width="1.2"/>
<path d="M21.7588 7.29102H17.4531L14.1162 5.36719L11.9629 1.6377L21.7588 7.29102Z" fill="white" stroke="#212421" stroke-width="1.2"/>
<path d="M13.0771 17.8657V21.7183L10.9238 25.4478V14.1401L13.0771 17.8657Z" fill="white" stroke="#212421" stroke-width="1.2"/>
<path d="M21.7588 20.395L11.9629 26.0474L14.1162 22.3179L17.4531 20.395H21.7588Z" fill="white" stroke="#212421" stroke-width="1.2"/>
<path d="M2.75293 11.9158V15.7634L0.599609 19.4929V8.18726L2.75293 11.9158Z" fill="white" stroke="#212421" stroke-width="1.2"/>
<path d="M10.0264 12.4294L10.9258 12.949V12.9431L21.7588 19.1951H17.4521L3.79199 11.3171L1.63867 7.58765L10.0264 12.4294Z" fill="white" stroke="#212421" stroke-width="1.2"/>
</svg>
