<svg width="24" height="24" viewBox="0 0 24 24" fill="none" xmlns="http://www.w3.org/2000/svg">
<g clip-path="url(#clip0_2450_3593)">
<path d="M11.6137 0.673096L0.75 5.90378V8.62506H23.25V5.88935L11.6137 0.673096ZM21.75 7.12506H2.25V6.84635L11.6363 2.32703L21.75 6.86078V7.12506Z" fill="#212421"/>
<path d="M21.75 19.125H2.25V20.625H21.75V19.125Z" fill="#212421"/>
<path d="M23.25 21.75H0.75V23.25H23.25V21.75Z" fill="#212421"/>
<path d="M4.125 10.125H2.625V17.625H4.125V10.125Z" fill="#212421"/>
<path d="M21.375 10.125H19.875V17.625H21.375V10.125Z" fill="#212421"/>
<path d="M16.875 10.125H15.375V17.625H16.875V10.125Z" fill="#212421"/>
<path d="M8.625 10.125H7.125V17.625H8.625V10.125Z" fill="#212421"/>
<path d="M12.75 10.125H11.25V17.625H12.75V10.125Z" fill="#212421"/>
</g>
<defs>
<clipPath id="clip0_2450_3593">
<rect width="24" height="24" fill="white"/>
</clipPath>
</defs>
</svg>
