<svg width="28" height="28" viewBox="0 0 28 28" fill="none" xmlns="http://www.w3.org/2000/svg">
<path d="M9.33203 9.33337V12.6123C9.33203 13.1634 8.68927 13.4644 8.26591 13.1116L2.93124 8.66605C2.6194 8.40618 2.6194 7.92723 2.93124 7.66736L8.26591 3.22181C8.68927 2.869 9.33203 3.17006 9.33203 3.72115V7.00004H13.9987C16.4741 7.00004 18.848 7.98337 20.5984 9.73371C22.3487 11.4841 23.332 13.858 23.332 16.3334C23.332 18.8087 22.3487 21.1827 20.5984 22.933C18.848 24.6834 16.4741 25.6667 13.9987 25.6667H10.332C9.77975 25.6667 9.33203 25.219 9.33203 24.6667V24.3334C9.33203 23.7811 9.77975 23.3334 10.332 23.3334H13.9987C15.8552 23.3334 17.6357 22.5959 18.9484 21.2831C20.2612 19.9704 20.9987 18.1899 20.9987 16.3334C20.9987 14.4769 20.2612 12.6964 18.9484 11.3836C17.6357 10.0709 15.8552 9.33337 13.9987 9.33337H9.33203Z" fill="#0064FF"/>
</svg>
