<svg width="28" height="28" viewBox="0 0 28 28" fill="none" xmlns="http://www.w3.org/2000/svg">
<path d="M20.013 16.3333C20.2813 16.9353 20.4167 17.605 20.4167 18.34C20.4167 19.9056 19.8053 21.1306 18.5838 22.0115C17.36 22.8923 15.6718 23.3333 13.517 23.3333C11.822 23.3333 10.1427 22.9845 8.47801 22.286C8.08155 22.1197 7.83533 21.7246 7.83533 21.2947C7.83533 20.4376 8.77187 19.8926 9.57184 20.2001C10.7886 20.6679 12.0242 20.902 13.279 20.902C16.2552 20.902 17.7473 20.048 17.7578 18.3388C17.764 17.9923 17.7002 17.648 17.5703 17.3267C17.4404 17.0054 17.2471 16.7135 17.0018 16.4686L16.8618 16.3321H4.66667C4.02233 16.3321 3.5 15.8098 3.5 15.1655C3.5 14.5211 4.02233 13.9988 4.66667 13.9988H23.3333C23.9777 13.9988 24.5 14.5211 24.5 15.1655C24.5 15.8098 23.9777 16.3321 23.3333 16.3321H20.013V16.3333ZM15.1988 12.8138C15.2095 12.8175 15.2069 12.8333 15.1956 12.8333H8.90437C8.90188 12.8333 8.89948 12.8324 8.89764 12.8307C8.69438 12.6451 8.50758 12.4422 8.33933 12.2243C7.83533 11.5733 7.58333 10.787 7.58333 9.86063C7.58333 8.41863 8.127 7.19246 9.21317 6.18213C10.3017 5.17179 11.9828 4.66663 14.259 4.66663C15.7547 4.66663 17.1946 4.9573 18.5771 5.53863C18.9536 5.69693 19.1847 6.07362 19.1847 6.482C19.1847 7.30296 18.284 7.83183 17.5038 7.57659C16.5804 7.27452 15.6062 7.12363 14.581 7.12363C11.6877 7.12363 10.2422 8.03596 10.2422 9.86063C10.2422 10.3506 10.4965 10.7776 11.0052 11.1428C11.5138 11.508 12.887 12.0178 12.887 12.0178L15.1988 12.8138Z" fill="#0064FF"/>
</svg>
