<svg width="28" height="28" viewBox="0 0 28 28" fill="none" xmlns="http://www.w3.org/2000/svg">
<path d="M17.5171 21.04C16.8728 21.04 16.3506 20.5178 16.3506 19.8736C16.3506 19.2293 16.8728 18.7071 17.5171 18.7071H18.6835C19.2964 18.7071 19.9032 18.5864 20.4694 18.3518C21.0357 18.1173 21.5501 17.7736 21.9835 17.3402C22.4168 16.9068 22.7606 16.3924 22.9951 15.8262C23.2296 15.26 23.3503 14.6531 23.3503 14.0403C23.3503 13.4274 23.2296 12.8206 22.9951 12.2544C22.7606 11.6882 22.4168 11.1737 21.9835 10.7404C21.5501 10.307 21.0357 9.96326 20.4694 9.72873C19.9032 9.49421 19.2964 9.3735 18.6835 9.3735H17.5171C16.8728 9.3735 16.3506 8.85124 16.3506 8.20701C16.3506 7.56277 16.8728 7.04052 17.5171 7.04052L18.6835 7.04052C20.5301 7.05555 22.296 7.79965 23.5964 9.11073C24.8968 10.4218 25.6265 12.1936 25.6265 14.0403C25.6265 15.8869 24.8968 17.6588 23.5964 18.9698C22.296 20.2809 20.5301 21.025 18.6835 21.04H17.5171ZM11.683 19.8736C11.683 20.5178 11.1607 21.04 10.5165 21.04H9.34998C8.42596 21.0476 7.50959 20.8721 6.65374 20.5237C5.79788 20.1753 5.01947 19.6609 4.36342 19.0101C3.70736 18.3594 3.18664 17.5852 2.83128 16.7322C2.47592 15.8792 2.29297 14.9643 2.29297 14.0403C2.29297 13.1162 2.47592 12.2013 2.83128 11.3483C3.18664 10.4953 3.70736 9.72116 4.36342 9.07042C5.01947 8.41969 5.79788 7.90528 6.65374 7.55689C7.50959 7.20849 8.42596 7.03299 9.34998 7.04052L10.5165 7.04052C11.1607 7.04052 11.683 7.56277 11.683 8.20701C11.683 8.85124 11.1607 9.3735 10.5165 9.3735H9.34998C8.73712 9.3735 8.13027 9.49421 7.56407 9.72873C6.99787 9.96326 6.48341 10.307 6.05006 10.7404C5.61671 11.1737 5.27295 11.6882 5.03843 12.2544C4.8039 12.8206 4.68319 13.4274 4.68319 14.0403C4.68319 14.6531 4.8039 15.26 5.03843 15.8262C5.27295 16.3924 5.61671 16.9068 6.05006 17.3402C6.48341 17.7736 6.99787 18.1173 7.56407 18.3518C8.13027 18.5864 8.73712 18.7071 9.34998 18.7071H10.5165C11.1607 18.7071 11.683 19.2293 11.683 19.8736ZM18.6828 12.873C19.3274 12.873 19.85 13.3956 19.85 14.0402C19.85 14.6849 19.3274 15.2076 18.6827 15.2075L9.35076 15.2069C8.70647 15.2068 8.18412 14.6846 8.1839 14.0403C8.18367 13.3957 8.70619 12.873 9.35084 12.873H18.6828Z" fill="#0064FF"/>
</svg>
