<svg width="28" height="28" viewBox="0 0 28 28" fill="none" xmlns="http://www.w3.org/2000/svg">
<path fill-rule="evenodd" clip-rule="evenodd" d="M15.1656 6.99996C14.5213 6.99996 13.999 7.52229 13.999 8.16663C13.999 8.81096 14.5213 9.33329 15.1656 9.33329H24.499C25.1433 9.33329 25.6656 8.81096 25.6656 8.16663C25.6656 7.52229 25.1433 6.99996 24.499 6.99996H15.1656ZM15.1654 18.0833C14.521 18.0833 13.9987 18.6056 13.9987 19.25C13.9987 19.8943 14.521 20.4166 15.1654 20.4166H24.4987C25.143 20.4166 25.6654 19.8943 25.6654 19.25C25.6654 18.6056 25.143 18.0833 24.4987 18.0833H15.1654Z" fill="#0064FF"/>
<path d="M5.71232 9.06926L9.69104 5.0081C10.1425 4.55284 10.8747 4.55283 11.3263 5.00791C11.7782 5.4632 11.7784 6.20182 11.3267 6.65728L6.54017 11.5331C6.08389 11.9925 5.34078 11.9925 4.88454 11.533L2.67068 9.27074C2.21915 8.81546 2.21915 8.07733 2.67068 7.62206C3.1222 7.16678 3.85427 7.16678 4.3058 7.62206L5.71232 9.06926Z" fill="#0064FF"/>
<path d="M5.71232 20.5259L9.69104 16.4648C10.1425 16.0095 10.8747 16.0095 11.3263 16.4646C11.7782 16.9199 11.7784 17.6585 11.3267 18.1139L6.54017 22.9897C6.08389 23.4492 5.34078 23.4491 4.88454 22.9897L2.67068 20.7274C2.21915 20.2721 2.21915 19.534 2.67068 19.0787C3.1222 18.6235 3.85427 18.6235 4.3058 19.0787L5.71232 20.5259Z" fill="#0064FF"/>
</svg>
