<svg width="28" height="28" viewBox="0 0 28 28" fill="none" xmlns="http://www.w3.org/2000/svg">
<path d="M3.5 5.25004C3.5 4.60571 4.02233 4.08337 4.66667 4.08337H23.3333C23.9777 4.08337 24.5 4.60571 24.5 5.25004C24.5 5.89437 23.9777 6.41671 23.3333 6.41671H4.66667C4.02233 6.41671 3.5 5.89437 3.5 5.25004ZM8.16667 22.75C8.16667 22.1057 8.689 21.5834 9.33333 21.5834H23.3333C23.9777 21.5834 24.5 22.1057 24.5 22.75C24.5 23.3944 23.9777 23.9167 23.3333 23.9167H9.33333C8.689 23.9167 8.16667 23.3944 8.16667 22.75ZM3.5 16.9167C3.5 16.2724 4.02233 15.75 4.66667 15.75H23.3333C23.9777 15.75 24.5 16.2724 24.5 16.9167C24.5 17.561 23.9777 18.0834 23.3333 18.0834H4.66667C4.02233 18.0834 3.5 17.561 3.5 16.9167ZM8.16667 11.0834C8.16667 10.439 8.689 9.91671 9.33333 9.91671H23.3333C23.9777 9.91671 24.5 10.439 24.5 11.0834C24.5 11.7277 23.9777 12.25 23.3333 12.25H9.33333C8.689 12.25 8.16667 11.7277 8.16667 11.0834Z" fill="#0064FF"/>
</svg>
