<svg width="28" height="28" viewBox="0 0 28 28" fill="none" xmlns="http://www.w3.org/2000/svg">
<path d="M3.5 5.83329C3.5 5.18896 4.02233 4.66663 4.66667 4.66663H23.3333C23.9777 4.66663 24.5 5.18896 24.5 5.83329C24.5 6.47762 23.9777 6.99996 23.3333 6.99996H4.66667C4.02233 6.99996 3.5 6.47762 3.5 5.83329ZM3.5 23.3333C3.5 22.689 4.02233 22.1666 4.66667 22.1666H23.3333C23.9777 22.1666 24.5 22.689 24.5 23.3333C24.5 23.9776 23.9777 24.5 23.3333 24.5H4.66667C4.02233 24.5 3.5 23.9776 3.5 23.3333ZM12.8333 17.5C12.8333 16.8556 13.3557 16.3333 14 16.3333H23.3333C23.9777 16.3333 24.5 16.8556 24.5 17.5C24.5 18.1443 23.9777 18.6666 23.3333 18.6666H14C13.3557 18.6666 12.8333 18.1443 12.8333 17.5ZM12.8333 11.6666C12.8333 11.0223 13.3557 10.5 14 10.5H23.3333C23.9777 10.5 24.5 11.0223 24.5 11.6666C24.5 12.311 23.9777 12.8333 23.3333 12.8333H14C13.3557 12.8333 12.8333 12.311 12.8333 11.6666ZM4.05906 15.0725C3.76309 14.8135 3.76309 14.3531 4.05906 14.0941L7.08864 11.4432C7.50892 11.0755 8.16667 11.374 8.16667 11.9324V17.2342C8.16667 17.7926 7.50892 18.0911 7.08864 17.7234L4.05906 15.0725Z" fill="#0064FF"/>
</svg>
