<svg width="28" height="28" viewBox="0 0 28 28" fill="none" xmlns="http://www.w3.org/2000/svg">
<path fill-rule="evenodd" clip-rule="evenodd" d="M10.5013 5.83329C10.5013 5.18896 11.0236 4.66663 11.668 4.66663H22.168C22.8123 4.66663 23.3346 5.18896 23.3346 5.83329C23.3346 6.47762 22.8123 6.99996 22.168 6.99996H17.7757L12.6715 21H16.3346C16.979 21 17.5013 21.5223 17.5013 22.1666C17.5013 22.811 16.979 23.3333 16.3346 23.3333H5.83464C5.1903 23.3333 4.66797 22.811 4.66797 22.1666C4.66797 21.5223 5.1903 21 5.83464 21H10.2269L15.3311 6.99996H11.668C11.0236 6.99996 10.5013 6.47762 10.5013 5.83329Z" fill="#0064FF"/>
</svg>
