<svg width="28" height="28" viewBox="0 0 28 28" fill="none" xmlns="http://www.w3.org/2000/svg">
<path d="M9.33203 4.66667C9.33203 4.02233 8.8097 3.5 8.16536 3.5C7.52103 3.5 6.9987 4.02233 6.9987 4.66667V12.8333C6.9987 17.3437 8.16536 21 13.9987 21C19.832 21 20.9987 17.3437 20.9987 12.8333V4.66667C20.9987 4.02233 20.4764 3.5 19.832 3.5C19.1877 3.5 18.6654 4.02233 18.6654 4.66667V12.8333C18.6654 16.055 18.6654 18.6667 13.9987 18.6667C9.33203 18.6667 9.33203 16.055 9.33203 12.8333V4.66667Z" fill="#0064FF"/>
<path d="M6.9987 22.1667C6.35437 22.1667 5.83203 22.689 5.83203 23.3333C5.83203 23.9777 6.35437 24.5 6.9987 24.5H20.9987C21.643 24.5 22.1654 23.9777 22.1654 23.3333C22.1654 22.689 21.643 22.1667 20.9987 22.1667H6.9987Z" fill="#0064FF"/>
</svg>
