<svg width="28" height="28" viewBox="0 0 28 28" fill="none" xmlns="http://www.w3.org/2000/svg">
<path d="M8.16797 7V9.33333C8.16797 9.97767 8.6903 10.5 9.33464 10.5H22.168C22.8123 10.5 23.3346 9.97767 23.3346 9.33333V4.66667C23.3346 4.02233 22.8123 3.5 22.168 3.5H9.33464C8.6903 3.5 8.16797 4.02233 8.16797 4.66667V7ZM8.16797 7H5.83464C5.1903 7 4.66797 7.52233 4.66797 8.16667V14C4.66797 14.6443 5.1903 15.1667 5.83464 15.1667H14.168C14.7203 15.1667 15.168 15.6144 15.168 16.1667V18.6667M15.168 18.6667H14.418C13.8657 18.6667 13.418 19.1144 13.418 19.6667V23.5C13.418 24.0523 13.8657 24.5 14.418 24.5H15.918C16.4703 24.5 16.918 24.0523 16.918 23.5V19.6667C16.918 19.1144 16.4703 18.6667 15.918 18.6667H15.168Z" stroke="#0064FF" stroke-width="2" stroke-linecap="round" stroke-linejoin="round"/>
</svg>
