<svg width="28" height="28" viewBox="0 0 28 28" fill="none" xmlns="http://www.w3.org/2000/svg">
<path d="M18.668 9.33337H14.0013C12.1448 9.33337 10.3643 10.0709 9.05155 11.3836C7.7388 12.6964 7.0013 14.4769 7.0013 16.3334C7.0013 18.1899 7.7388 19.9704 9.05155 21.2831C10.3643 22.5959 12.1448 23.3334 14.0013 23.3334H17.5013C18.1456 23.3334 18.668 23.8557 18.668 24.5C18.668 25.1444 18.1456 25.6667 17.5013 25.6667H14.0013C11.5259 25.6667 9.15198 24.6834 7.40164 22.933C5.6513 21.1827 4.66797 18.8087 4.66797 16.3334C4.66797 13.858 5.6513 11.4841 7.40164 9.73371C9.15198 7.98337 11.5259 7.00004 14.0013 7.00004H18.668V3.72115C18.668 3.17006 19.3107 2.86901 19.7341 3.22181L25.0688 7.66736C25.3806 7.92723 25.3806 8.40618 25.0688 8.66605L19.7341 13.1116C19.3107 13.4644 18.668 13.1634 18.668 12.6123V9.33337Z" fill="#0064FF"/>
</svg>
