<svg width="28" height="28" viewBox="0 0 28 28" fill="none" xmlns="http://www.w3.org/2000/svg">
<path d="M14.5846 5.25004C14.5846 4.60571 15.107 4.08337 15.7513 4.08337H23.918C24.5623 4.08337 25.0846 4.60571 25.0846 5.25004C25.0846 5.89437 24.5623 6.41671 23.918 6.41671H15.7513C15.107 6.41671 14.5846 5.89437 14.5846 5.25004Z" fill="#0064FF"/>
<path d="M6.41797 21.5834C6.41797 22.2277 6.94028 22.75 7.58463 22.75C8.22898 22.75 8.7513 22.2277 8.7513 21.5834V8.06661L10.2597 9.57499C10.7153 10.0306 11.454 10.0306 11.9096 9.57499C12.3652 9.11941 12.3652 8.38067 11.9096 7.92509L8.40958 4.42508C8.19083 4.20629 7.89403 4.08337 7.58463 4.08337C7.27523 4.08337 6.97843 4.20629 6.75968 4.42508L3.25968 7.92509C2.80406 8.38067 2.80406 9.11941 3.25968 9.57499C3.71527 10.0306 4.454 10.0306 4.90958 9.57499L6.41797 8.06661V21.5834Z" fill="#0064FF"/>
<path d="M6.41797 8.75004C6.41797 8.10569 6.94028 7.58337 7.58463 7.58337C8.22898 7.58337 8.7513 8.10569 8.7513 8.75004V19.9335L10.2597 18.4251C10.7153 17.9695 11.454 17.9695 11.9096 18.4251C12.3652 18.8807 12.3652 19.6194 11.9096 20.075L8.40958 23.575C8.19083 23.7938 7.89403 23.9167 7.58463 23.9167C7.27523 23.9167 6.97843 23.7938 6.75968 23.575L3.25968 20.075C2.80406 19.6194 2.80406 18.8807 3.25968 18.4251C3.71527 17.9695 4.454 17.9695 4.90958 18.4251L6.41797 19.9335V8.75004Z" fill="#0064FF"/>
<path d="M14.5846 11.0834C14.5846 10.439 15.107 9.91671 15.7513 9.91671H23.918C24.5623 9.91671 25.0846 10.439 25.0846 11.0834C25.0846 11.7277 24.5623 12.25 23.918 12.25H15.7513C15.107 12.25 14.5846 11.7277 14.5846 11.0834Z" fill="#0064FF"/>
<path d="M14.5846 16.9167C14.5846 16.2724 15.107 15.75 15.7513 15.75H23.918C24.5623 15.75 25.0846 16.2724 25.0846 16.9167C25.0846 17.561 24.5623 18.0834 23.918 18.0834H15.7513C15.107 18.0834 14.5846 17.561 14.5846 16.9167Z" fill="#0064FF"/>
<path d="M14.5846 22.75C14.5846 22.1057 15.107 21.5834 15.7513 21.5834H23.918C24.5623 21.5834 25.0846 22.1057 25.0846 22.75C25.0846 23.3944 24.5623 23.9167 23.918 23.9167H15.7513C15.107 23.9167 14.5846 23.3944 14.5846 22.75Z" fill="#0064FF"/>
</svg>
