<svg width="28" height="28" viewBox="0 0 28 28" fill="none" xmlns="http://www.w3.org/2000/svg">
<path d="M8.16667 17.5V23.3333C8.16667 23.9777 8.689 24.5 9.33333 24.5H18.6667C19.311 24.5 19.8333 23.9777 19.8333 23.3333V17.5M8.16667 17.5H19.8333M8.16667 17.5V19.8333H4.66667C4.02233 19.8333 3.5 19.311 3.5 18.6667V9.33333C3.5 8.689 4.02233 8.16667 4.66667 8.16667H23.3333C23.9777 8.16667 24.5 8.689 24.5 9.33333V18.6667C24.5 19.311 23.9777 19.8333 23.3333 19.8333H19.8333V17.5M9.33333 12.8333H8.16667M9.33333 3.5H18.6667C19.311 3.5 19.8333 4.02233 19.8333 4.66667V7C19.8333 7.05661 19.8333 7.11228 19.8333 7.16674C19.8333 7.71902 19.3856 8.16667 18.8333 8.16667H9.16667C8.61438 8.16667 8.16667 7.71902 8.16667 7.16674C8.16667 7.11228 8.16667 7.05661 8.16667 7V4.66667C8.16667 4.02233 8.689 3.5 9.33333 3.5Z" stroke="#0064FF" stroke-width="2" stroke-linecap="round" stroke-linejoin="round"/>
</svg>
