<svg width="28" height="28" viewBox="0 0 28 28" fill="none" xmlns="http://www.w3.org/2000/svg">
<path d="M3.5 23.3333C3.5 22.689 4.02233 22.1667 4.66667 22.1667H23.3333C23.9777 22.1667 24.5 22.689 24.5 23.3333C24.5 23.9777 23.9777 24.5 23.3333 24.5H4.66667C4.02234 24.5 3.5 23.9777 3.5 23.3333Z" fill="#0064FF"/>
<path d="M18.0787 16.3333H9.92133L8.34801 20.2666C8.17084 20.7096 7.74186 21 7.26482 21C6.43947 21 5.8751 20.1664 6.18163 19.4001L12.54 4.23338C12.7172 3.79044 13.1461 3.5 13.6232 3.5H14.3768C14.8539 3.5 15.2828 3.79044 15.46 4.23338L21.8184 19.4001C22.1249 20.1664 21.5605 21 20.7352 21C20.2581 21 19.8292 20.7096 19.652 20.2666L18.0787 16.3333ZM17.1453 14L14 6.86583L10.8547 14H17.1453Z" fill="#0064FF"/>
</svg>
