<svg width="28" height="28" viewBox="0 0 28 28" fill="none" xmlns="http://www.w3.org/2000/svg">
<path d="M9.33333 5.83337C9.33333 5.18904 9.85567 4.66671 10.5 4.66671H23.3333C23.9777 4.66671 24.5 5.18904 24.5 5.83337C24.5 6.47771 23.9777 7.00004 23.3333 7.00004H10.5C9.85567 7.00004 9.33333 6.47771 9.33333 5.83337ZM3.5 5.83337C3.5 4.86688 4.2835 4.08337 5.25 4.08337C6.2165 4.08337 7 4.86688 7 5.83337C7 6.79987 6.2165 7.58337 5.25 7.58337C4.2835 7.58337 3.5 6.79987 3.5 5.83337ZM3.5 14C3.5 13.0335 4.2835 12.25 5.25 12.25C6.2165 12.25 7 13.0335 7 14C7 14.9665 6.2165 15.75 5.25 15.75C4.2835 15.75 3.5 14.9665 3.5 14ZM3.5 22.1667C3.5 21.2002 4.2835 20.4167 5.25 20.4167C6.2165 20.4167 7 21.2002 7 22.1667C7 23.1332 6.2165 23.9167 5.25 23.9167C4.2835 23.9167 3.5 23.1332 3.5 22.1667ZM9.33333 14C9.33333 13.3557 9.85567 12.8334 10.5 12.8334H23.3333C23.9777 12.8334 24.5 13.3557 24.5 14C24.5 14.6444 23.9777 15.1667 23.3333 15.1667H10.5C9.85567 15.1667 9.33333 14.6444 9.33333 14ZM9.33333 22.1667C9.33333 21.5224 9.85567 21 10.5 21H23.3333C23.9777 21 24.5 21.5224 24.5 22.1667C24.5 22.811 23.9777 23.3334 23.3333 23.3334H10.5C9.85567 23.3334 9.33333 22.811 9.33333 22.1667Z" fill="#0064FF"/>
</svg>
