<svg width="28" height="28" viewBox="0 0 28 28" fill="none" xmlns="http://www.w3.org/2000/svg">
<path fill-rule="evenodd" clip-rule="evenodd" d="M6.20964 6.99996C5.76415 6.99996 5.2513 7.41887 5.2513 8.13017V14.9362L8.32939 10.818C8.36282 10.7733 8.39942 10.731 8.43891 10.6915C9.57794 9.55251 11.4247 9.55251 12.5637 10.6915C12.5879 10.7158 12.6111 10.7411 12.6331 10.7673L16.7992 15.741L18.0639 14.4832L18.0653 14.4818C19.2044 13.3442 21.0501 13.3446 22.1887 14.4832C22.2168 14.5113 22.2434 14.5408 22.2685 14.5716L22.7513 15.1647V8.13017C22.7513 7.41887 22.2385 6.99996 21.793 6.99996H6.20964ZM25.0846 8.13017C25.0846 6.30441 23.6947 4.66663 21.793 4.66663H6.20964C4.30791 4.66663 2.91797 6.30441 2.91797 8.13017V21C2.91797 22.2886 3.96264 23.3333 5.2513 23.3333H22.7513C24.04 23.3333 25.0846 22.2886 25.0846 21V8.13017ZM22.7513 18.8606L20.5067 16.1033C20.2775 15.9058 19.9312 15.9157 19.7138 16.1331L19.7116 16.1354L17.5436 18.2916C17.312 18.522 16.9943 18.6447 16.668 18.6299C16.3416 18.615 16.0364 18.464 15.8266 18.2136L10.8862 12.3156C10.6725 12.1276 10.3541 12.1224 10.1347 12.3002L5.2513 18.8336V19.8698C5.2513 20.5811 5.76415 21 6.20964 21H21.793C22.2385 21 22.7513 20.5811 22.7513 19.8698V18.8606Z" fill="#0064FF"/>
<path d="M17.5013 12.25C18.4673 12.25 19.2513 11.4677 19.2513 10.5C19.2513 9.53396 18.4673 8.74996 17.5013 8.74996C16.5353 8.74996 15.7513 9.53396 15.7513 10.5C15.7513 11.4677 16.5353 12.25 17.5013 12.25Z" fill="#0064FF"/>
</svg>
