<svg width="28" height="28" viewBox="0 0 28 28" fill="none" xmlns="http://www.w3.org/2000/svg">
<path fill-rule="evenodd" clip-rule="evenodd" d="M7.61361 4.25762C7.95756 4.47019 8.16692 4.8457 8.16692 5.25004L8.16667 10.5C8.16667 11.1444 7.64433 11.6667 7 11.6667C6.35567 11.6667 5.83333 11.1444 5.83333 10.5L5.83359 7.13775L5.18867 7.46021C4.61236 7.74836 3.91158 7.51477 3.62342 6.93846C3.33527 6.36215 3.56886 5.66136 4.14517 5.37321L6.47851 4.20654C6.84016 4.02572 7.26966 4.04504 7.61361 4.25762ZM14.0003 7.00004C13.356 7.00004 12.8336 7.52238 12.8336 8.16671C12.8336 8.81104 13.356 9.33337 14.0003 9.33337H23.3336C23.9779 9.33337 24.5003 8.81104 24.5003 8.16671C24.5003 7.52238 23.9779 7.00004 23.3336 7.00004H14.0003ZM14 18.0834C13.3557 18.0834 12.8333 18.6057 12.8333 19.25C12.8333 19.8944 13.3557 20.4167 14 20.4167H23.3333C23.9777 20.4167 24.5 19.8944 24.5 19.25C24.5 18.6057 23.9777 18.0834 23.3333 18.0834H14Z" fill="#0064FF"/>
<path d="M5.66919 17.8418L5.66788 17.8428L5.66635 17.844L5.66404 17.8457L5.66287 17.8466C5.15248 18.2334 4.42472 18.1365 4.03361 17.628C3.64075 17.1173 3.73629 16.3848 4.247 15.992L4.31493 15.9419C4.34961 15.9172 4.39628 15.8849 4.45354 15.8477C4.56721 15.7737 4.72719 15.6771 4.92173 15.5804C5.29255 15.396 5.87642 15.1667 6.54619 15.1667C8.08548 15.1667 9.33333 16.4146 9.33333 17.9539C9.33333 18.8468 8.81013 19.5324 8.34167 20.0416C7.98463 20.4297 7.55355 20.7458 7.175 21H8.45833C9.10267 21 9.625 21.5224 9.625 22.1667C9.625 22.811 9.10267 23.3334 8.45833 23.3334H4.66667C4.02233 23.3334 3.5 22.811 3.5 22.1667C3.5 21.2867 3.98237 20.6513 4.43333 20.2212C4.81543 19.8567 5.27422 19.5424 5.65458 19.2953L5.77827 19.2148C6.22708 18.9214 6.5452 18.6966 6.76122 18.4618C6.949 18.2577 7 18.1107 7 17.9539C7 17.7032 6.79682 17.5 6.54619 17.5C6.38643 17.5 6.17637 17.5624 5.96065 17.6697C5.86192 17.7188 5.78047 17.768 5.72603 17.8035C5.69923 17.8209 5.67923 17.8346 5.66919 17.8418Z" fill="#0064FF"/>
</svg>
