<svg width="28" height="28" viewBox="0 0 28 28" fill="none" xmlns="http://www.w3.org/2000/svg">
<path d="M5 5.25004C5 4.60571 5.52233 4.08337 6.16667 4.08337H21.8333C22.4777 4.08337 23 4.60571 23 5.25004C23 5.89437 22.4777 6.41671 21.8333 6.41671H6.16667C5.52233 6.41671 5 5.89437 5 5.25004ZM5 22.75C5 22.1057 5.52233 21.5834 6.16667 21.5834H15.8333C16.4777 21.5834 17 22.1057 17 22.75C17 23.3944 16.4777 23.9167 15.8333 23.9167H6.16667C5.52234 23.9167 5 23.3944 5 22.75ZM5 16.9167C5 16.2724 5.52233 15.75 6.16667 15.75H21.8333C22.4777 15.75 23 16.2724 23 16.9167C23 17.561 22.4777 18.0834 21.8333 18.0834H6.16667C5.52233 18.0834 5 17.561 5 16.9167ZM5 11.0834C5 10.439 5.52233 9.91671 6.16667 9.91671H15.8333C16.4777 9.91671 17 10.439 17 11.0834C17 11.7277 16.4777 12.25 15.8333 12.25H6.16667C5.52234 12.25 5 11.7277 5 11.0834Z" fill="#0064FF"/>
</svg>
