<svg width="28" height="28" viewBox="0 0 28 28" fill="none" xmlns="http://www.w3.org/2000/svg">
<path fill-rule="evenodd" clip-rule="evenodd" d="M9.91537 5.83329C9.91537 5.18896 10.4377 4.66663 11.082 4.66663H22.7487C23.393 4.66663 23.9154 5.18896 23.9154 5.83329V8.16663C23.9154 8.81096 23.393 9.33329 22.7487 9.33329C22.1044 9.33329 21.582 8.81096 21.582 8.16663V6.99996H15.612L15.3022 9.478C15.2223 10.1174 14.6392 10.5709 13.9998 10.491C13.3605 10.411 12.907 9.82794 12.9869 9.18859L13.2605 6.99996H11.082C10.4377 6.99996 9.91537 6.47762 9.91537 5.83329ZM4.38153 5.63617C4.81257 5.15724 5.55024 5.11841 6.02917 5.54945L23.5292 21.2994C24.0081 21.7305 24.0469 22.4682 23.6159 22.9471C23.1849 23.426 22.4472 23.4648 21.9682 23.0338L14.3221 16.1523L13.4064 23.478C13.3264 24.1174 12.7434 24.5709 12.104 24.491C11.4646 24.411 11.0111 23.8279 11.091 23.1886L12.2084 14.2499L4.46825 7.2838C3.98932 6.85277 3.9505 6.1151 4.38153 5.63617Z" fill="#0064FF"/>
</svg>
