<svg width="28" height="28" viewBox="0 0 28 28" fill="none" xmlns="http://www.w3.org/2000/svg">
<path d="M4.66797 5.25004C4.66797 4.60571 5.1903 4.08337 5.83464 4.08337H22.168C22.8123 4.08337 23.3346 4.60571 23.3346 5.25004C23.3346 5.89437 22.8123 6.41671 22.168 6.41671H5.83463C5.1903 6.41671 4.66797 5.89437 4.66797 5.25004ZM8.16797 22.75C8.16797 22.1057 8.6903 21.5834 9.33464 21.5834H18.668C19.3123 21.5834 19.8346 22.1057 19.8346 22.75C19.8346 23.3944 19.3123 23.9167 18.668 23.9167H9.33464C8.6903 23.9167 8.16797 23.3944 8.16797 22.75ZM8.16797 11.0834C8.16797 10.439 8.6903 9.91671 9.33464 9.91671H18.668C19.3123 9.91671 19.8346 10.439 19.8346 11.0834C19.8346 11.7277 19.3123 12.25 18.668 12.25H9.33464C8.6903 12.25 8.16797 11.7277 8.16797 11.0834ZM4.66797 16.9167C4.66797 16.2724 5.1903 15.75 5.83464 15.75H22.168C22.8123 15.75 23.3346 16.2724 23.3346 16.9167C23.3346 17.561 22.8123 18.0834 22.168 18.0834H5.83463C5.1903 18.0834 4.66797 17.561 4.66797 16.9167Z" fill="#0064FF"/>
</svg>
