<svg width="23" height="22" viewBox="0 0 23 22" fill="none" xmlns="http://www.w3.org/2000/svg">
<path d="M11.5 0.75C17.3266 0.750024 22.0059 5.34739 22.0059 11C22.0059 16.6526 17.3266 21.25 11.5 21.25C5.6734 21.25 0.994141 16.6526 0.994141 11C0.994141 5.34737 5.6734 0.75 11.5 0.75ZM15.0166 4.96387L11.5 8.40039L7.9834 4.96387L7.45898 4.45117L6.93457 4.96387L5.34766 6.51465L4.79883 7.05078L5.34766 7.58691L8.83984 11L5.34766 14.4131L4.79883 14.9492L5.34766 15.4854L6.93457 17.0361L7.45898 17.5488L7.9834 17.0361L11.5 13.5986L15.0166 17.0361L15.541 17.5488L16.0654 17.0361L17.6523 15.4854L18.2012 14.9492L17.6523 14.4131L14.1592 11L17.6523 7.58691L18.2012 7.05078L17.6523 6.51465L16.0654 4.96387L15.541 4.45117L15.0166 4.96387Z" stroke="#0064FF" stroke-width="1.5"/>
</svg>
