<svg width="16" height="17" viewBox="0 0 16 17" fill="none" xmlns="http://www.w3.org/2000/svg">
<path fill-rule="evenodd" clip-rule="evenodd" d="M5.33325 4.0274H3.99992V3.35603H2.66658V5.36986H13.3332V3.35603H11.9999V4.0274H10.6666V3.35603H5.33325V4.0274ZM13.3332 6.71238H2.66658V13.4249H13.3332V6.71238ZM10.6666 2.01358H5.33325V1.34236H3.99992V2.01358H2.66658C1.9302 2.01358 1.33325 2.61465 1.33325 3.3561V13.425C1.33325 14.1665 1.9302 14.7675 2.66658 14.7675H13.3332C14.0696 14.7675 14.6666 14.1665 14.6666 13.425V3.3561C14.6666 2.61465 14.0696 2.01358 13.3332 2.01358H11.9999V1.34236H10.6666V2.01358ZM4.66658 9.39744V8.05492H5.99992V9.39744H4.66658ZM7.33325 9.39744H8.66658V8.05492H7.33325V9.39744ZM11.3332 9.39744H9.99992V8.05492H11.3332V9.39744ZM4.66658 10.74V12.0825H5.99992V10.74H4.66658ZM8.66658 12.0825H7.33325V10.74H8.66658V12.0825Z" fill="#0064FF"/>
</svg>
