<svg width="24" height="20" viewBox="-9 0 24 20" fill="none" xmlns="http://www.w3.org/2000/svg">
<path d="M5.5 16.75C5.5 18.27 4.27 19.5 2.75 19.5C1.23 19.5 0 18.27 0 16.75C0 15.23 1.23 14 2.75 14C4.27 14 5.5 15.23 5.5 16.75ZM1.5 16.75C1.5 17.44 2.06 18 2.75 18C3.44 18 4 17.44 4 16.75C4 16.06 3.44 15.5 2.75 15.5C2.06 15.5 1.5 16.06 1.5 16.75Z" fill="#0064FF"/>
<path d="M5.5 2.75C5.5 4.27 4.27 5.5 2.75 5.5C1.23 5.5 0 4.27 0 2.75C0 1.23 1.23 0 2.75 0C4.27 0 5.5 1.23 5.5 2.75ZM1.5 2.75C1.5 3.44 2.06 4 2.75 4C3.44 4 4 3.44 4 2.75C4 2.06 3.44 1.5 2.75 1.5C2.06 1.5 1.5 2.06 1.5 2.75Z" fill="#0064FF"/>
<path d="M5.5 9.75C5.5 11.27 4.27 12.5 2.75 12.5C1.23 12.5 0 11.27 0 9.75C0 8.23 1.23 7 2.75 7C4.27 7 5.5 8.23 5.5 9.75ZM1.5 9.75C1.5 10.44 2.06 11 2.75 11C3.44 11 4 10.44 4 9.75C4 9.06 3.44 8.5 2.75 8.5C2.06 8.5 1.5 9.06 1.5 9.75Z" fill="#0064FF"/>
</svg>
