<svg width="25" height="24" viewBox="0 0 25 24" fill="none" xmlns="http://www.w3.org/2000/svg">
<path d="M1.5 5C1.5 2.79086 3.29086 1 5.5 1H16.3431C17.404 1 18.4214 1.42143 19.1716 2.17157L22.3284 5.32843C23.0786 6.07857 23.5 7.09599 23.5 8.15685V19C23.5 21.2091 21.7091 23 19.5 23H5.5C3.29086 23 1.5 21.2091 1.5 19V5Z" stroke="#0064FF" stroke-width="2" stroke-linejoin="round"/>
<path d="M7 17.667C7 16.5624 7.89543 15.667 9 15.667H16C17.1046 15.667 18 16.5624 18 17.667V23.0003H7V17.667Z" stroke="#0064FF" stroke-width="2" stroke-linejoin="round"/>
<path d="M16.167 6.5L8.83366 6.5" stroke="#0064FF" stroke-width="2" stroke-linecap="round" stroke-linejoin="round"/>
</svg>
