<svg width="16" height="17" viewBox="0 0 16 17" fill="none" xmlns="http://www.w3.org/2000/svg">
<path fill-rule="evenodd" clip-rule="evenodd" d="M8.00002 2.68506C9.81838 2.68506 11.5571 3.64538 13.1775 5.22319C13.7304 5.76148 14.2305 6.33615 14.6707 6.91106C14.9364 7.25798 15.125 7.53088 15.2283 7.69347L15.458 8.05514L15.2283 8.41681C15.125 8.5794 14.9364 8.8523 14.6707 9.19922C14.2305 9.77413 13.7304 10.3488 13.1775 10.8871C11.5571 12.4649 9.81838 13.4252 8.00002 13.4252C6.18165 13.4252 4.4429 12.4649 2.82249 10.8871C2.26968 10.3488 1.76955 9.77413 1.32929 9.19922C1.06362 8.8523 0.874998 8.5794 0.771725 8.41681L0.541992 8.05514L0.771725 7.69347C0.874998 7.53088 1.06362 7.25798 1.32929 6.91106C1.76955 6.33615 2.26968 5.76148 2.82249 5.22319C4.4429 3.64538 6.18165 2.68506 8.00002 2.68506ZM13.6148 7.73077C13.2118 7.20439 12.7535 6.67778 12.2507 6.18819C10.855 4.82924 9.4034 4.02751 8.00001 4.02751C6.59663 4.02751 5.14501 4.82924 3.74937 6.18819C3.24657 6.67778 2.78827 7.20439 2.38518 7.73077C2.29812 7.84445 2.21767 7.95292 2.14412 8.05507C2.21767 8.15722 2.29812 8.26569 2.38518 8.37937C2.78827 8.90574 3.24657 9.43236 3.74937 9.92194C5.14501 11.2809 6.59663 12.0826 8.00001 12.0826C9.4034 12.0826 10.855 11.2809 12.2507 9.92194C12.7535 9.43236 13.2118 8.90574 13.6148 8.37937C13.7019 8.26569 13.7824 8.15722 13.8559 8.05507C13.7824 7.95292 13.7019 7.84445 13.6148 7.73077ZM5.33333 8.05516C5.33333 9.53806 6.52724 10.7402 8 10.7402C9.47276 10.7402 10.6667 9.53806 10.6667 8.05516C10.6667 6.57225 9.47276 5.37012 8 5.37012C6.52724 5.37012 5.33333 6.57225 5.33333 8.05516ZM9.33333 8.05509C9.33333 8.79654 8.73638 9.39761 8 9.39761C7.26362 9.39761 6.66667 8.79654 6.66667 8.05509C6.66667 7.31363 7.26362 6.71256 8 6.71256C8.73638 6.71256 9.33333 7.31363 9.33333 8.05509Z" fill="#0064FF"/>
</svg>
