<svg xmlns="http://www.w3.org/2000/svg" width="17" height="21" viewBox="0 0 17 21" fill="none">
  <mask id="path-1-inside-1_94_376" fill="white">
    <path fill-rule="evenodd" clip-rule="evenodd" d="M4.21 0.28C5.29 0.06 6.62 0 8.22 0C9.82 0 11.15 0.06 12.23 0.28C13.32 0.5 14.22 0.91 14.9 1.65C15.57 2.38 15.94 3.36 16.15 4.57C16.36 5.78 16.43 7.3 16.43 9.18C16.43 9.91 16.43 10.59 16.43 11.23C16.43 14.25 16.43 16.33 16.3 17.69C16.22 18.5 16.08 19.19 15.77 19.68C15.6 19.95 15.38 20.17 15.1 20.31C14.82 20.45 14.52 20.5 14.24 20.5C13.59 20.5 12.96 20.14 12.45 19.79C11.95 19.45 11.43 19 10.94 18.58C10.9 18.55 10.86 18.51 10.82 18.48C10.28 18.01 9.76 17.59 9.28 17.27C8.78 16.94 8.43 16.82 8.2 16.82C7.97 16.82 7.62 16.95 7.12 17.27C6.64 17.59 6.13 18.01 5.58 18.48C5.54 18.51 5.5 18.55 5.46 18.58C4.97 19 4.44 19.45 3.95 19.79C3.44 20.14 2.81 20.5 2.16 20.5C1.88 20.5 1.58 20.45 1.3 20.31C1.01 20.16 0.79 19.94 0.63 19.68C0.32 19.19 0.18 18.5 0.1 17.69C0 16.33 0 14.25 0 11.23C0 10.59 0 9.91 0 9.18C0 7.3 0.07 5.78 0.28 4.57C0.49 3.36 0.87 2.38 1.53 1.65C2.21 0.91 3.11 0.5 4.2 0.28H4.21Z"/>
  </mask>
  <path d="M4.21 0.28V1.78H4.36123L4.50941 1.74981L4.21 0.28ZM12.23 0.28L11.9306 1.74982L11.9332 1.75035L12.23 0.28ZM14.9 1.65L16.0051 0.635728L16.0045 0.635062L14.9 1.65ZM16.3 17.69L17.7927 17.8374L17.7932 17.8327L16.3 17.69ZM15.77 19.68L14.5024 18.878L14.5007 18.8808L15.77 19.68ZM12.45 19.79L13.2988 18.5532L13.2935 18.5496L12.45 19.79ZM10.94 18.58L11.9162 17.4411L11.8791 17.4093L11.84 17.38L10.94 18.58ZM10.82 18.48L9.83521 19.6115L9.87636 19.6473L9.92 19.68L10.82 18.48ZM9.28 17.27L10.1121 16.0219L10.1063 16.0181L9.28 17.27ZM7.12 17.27L6.31142 16.0066L6.29961 16.0141L6.28795 16.0219L7.12 17.27ZM5.58 18.48L6.48 19.68L6.51819 19.6514L6.55448 19.6203L5.58 18.48ZM5.46 18.58L4.56 17.38L4.52091 17.4093L4.48381 17.4411L5.46 18.58ZM3.95 19.79L4.79878 21.0268L4.80512 21.0224L3.95 19.79ZM1.3 20.31L0.610866 21.6423L0.619991 21.647L0.62918 21.6516L1.3 20.31ZM0.63 19.68L1.90749 18.8939L1.9026 18.8859L1.89762 18.878L0.63 19.68ZM0.1 17.69L-1.39596 17.8L-1.39458 17.8187L-1.39274 17.8374L0.1 17.69ZM1.53 1.65L0.425473 0.635029L0.417335 0.644029L1.53 1.65ZM4.2 0.28V-1.22H4.05013L3.90323 -1.19035L4.2 0.28ZM4.50941 1.74981C5.43151 1.56198 6.63285 1.5 8.22 1.5V-1.5C6.60715 -1.5 5.14849 -1.44198 3.91059 -1.18981L4.50941 1.74981ZM8.22 1.5C9.80715 1.5 11.0085 1.56198 11.9306 1.74981L12.5294 -1.18981C11.2915 -1.44198 9.83285 -1.5 8.22 -1.5V1.5ZM11.9332 1.75035C12.8257 1.93047 13.3966 2.23081 13.7955 2.66494L16.0045 0.635062C15.0434 -0.410809 13.8143 -0.930474 12.5268 -1.19035L11.9332 1.75035ZM13.7949 2.66427C14.1909 3.0957 14.4862 3.75514 14.6721 4.8265L17.6279 4.3135C17.3938 2.96486 16.9491 1.6643 16.0051 0.635728L13.7949 2.66427ZM14.6721 4.8265C14.8591 5.90424 14.93 7.31827 14.93 9.18H17.93C17.93 7.28173 17.8609 5.65576 17.6279 4.3135L14.6721 4.8265ZM14.93 9.18C14.93 9.18143 14.93 9.18285 14.93 9.18428C14.93 9.1857 14.93 9.18713 14.93 9.18855C14.93 9.18998 14.93 9.1914 14.93 9.19283C14.93 9.19425 14.93 9.19568 14.93 9.1971C14.93 9.19852 14.93 9.19995 14.93 9.20137C14.93 9.2028 14.93 9.20422 14.93 9.20564C14.93 9.20707 14.93 9.20849 14.93 9.20991C14.93 9.21134 14.93 9.21276 14.93 9.21418C14.93 9.2156 14.93 9.21703 14.93 9.21845C14.93 9.21987 14.93 9.22129 14.93 9.22272C14.93 9.22414 14.93 9.22556 14.93 9.22698C14.93 9.2284 14.93 9.22983 14.93 9.23125C14.93 9.23267 14.93 9.23409 14.93 9.23551C14.93 9.23693 14.93 9.23835 14.93 9.23977C14.93 9.24119 14.93 9.24261 14.93 9.24403C14.93 9.24545 14.93 9.24687 14.93 9.24829C14.93 9.24971 14.93 9.25113 14.93 9.25255C14.93 9.25397 14.93 9.25539 14.93 9.25681C14.93 9.25823 14.93 9.25965 14.93 9.26106C14.93 9.26248 14.93 9.2639 14.93 9.26532C14.93 9.26674 14.93 9.26816 14.93 9.26957C14.93 9.27099 14.93 9.27241 14.93 9.27383C14.93 9.27524 14.93 9.27666 14.93 9.27808C14.93 9.27949 14.93 9.28091 14.93 9.28233C14.93 9.28374 14.93 9.28516 14.93 9.28658C14.93 9.28799 14.93 9.28941 14.93 9.29083C14.93 9.29224 14.93 9.29366 14.93 9.29507C14.93 9.29649 14.93 9.2979 14.93 9.29932C14.93 9.30073 14.93 9.30215 14.93 9.30356C14.93 9.30498 14.93 9.30639 14.93 9.30781C14.93 9.30922 14.93 9.31064 14.93 9.31205C14.93 9.31346 14.93 9.31488 14.93 9.31629C14.93 9.31771 14.93 9.31912 14.93 9.32053C14.93 9.32195 14.93 9.32336 14.93 9.32477C14.93 9.32618 14.93 9.3276 14.93 9.32901C14.93 9.33042 14.93 9.33183 14.93 9.33325C14.93 9.33466 14.93 9.33607 14.93 9.33748C14.93 9.33889 14.93 9.34031 14.93 9.34172C14.93 9.34313 14.93 9.34454 14.93 9.34595C14.93 9.34736 14.93 9.34877 14.93 9.35018C14.93 9.35159 14.93 9.353 14.93 9.35441C14.93 9.35582 14.93 9.35723 14.93 9.35864C14.93 9.36005 14.93 9.36146 14.93 9.36287C14.93 9.36428 14.93 9.36569 14.93 9.3671C14.93 9.36851 14.93 9.36992 14.93 9.37133C14.93 9.37274 14.93 9.37415 14.93 9.37556C14.93 9.37696 14.93 9.37837 14.93 9.37978C14.93 9.38119 14.93 9.3826 14.93 9.384C14.93 9.38541 14.93 9.38682 14.93 9.38822C14.93 9.38963 14.93 9.39104 14.93 9.39245C14.93 9.39385 14.93 9.39526 14.93 9.39667C14.93 9.39807 14.93 9.39948 14.93 9.40089C14.93 9.40229 14.93 9.4037 14.93 9.4051C14.93 9.40651 14.93 9.40791 14.93 9.40932C14.93 9.41073 14.93 9.41213 14.93 9.41354C14.93 9.41494 14.93 9.41635 14.93 9.41775C14.93 9.41916 14.93 9.42056 14.93 9.42196C14.93 9.42337 14.93 9.42477 14.93 9.42618C14.93 9.42758 14.93 9.42898 14.93 9.43039C14.93 9.43179 14.93 9.43319 14.93 9.4346C14.93 9.436 14.93 9.4374 14.93 9.43881C14.93 9.44021 14.93 9.44161 14.93 9.44301C14.93 9.44442 14.93 9.44582 14.93 9.44722C14.93 9.44862 14.93 9.45002 14.93 9.45143C14.93 9.45283 14.93 9.45423 14.93 9.45563C14.93 9.45703 14.93 9.45843 14.93 9.45983C14.93 9.46124 14.93 9.46264 14.93 9.46404C14.93 9.46544 14.93 9.46684 14.93 9.46824C14.93 9.46964 14.93 9.47104 14.93 9.47244C14.93 9.47384 14.93 9.47524 14.93 9.47664C14.93 9.47804 14.93 9.47943 14.93 9.48083C14.93 9.48223 14.93 9.48363 14.93 9.48503C14.93 9.48643 14.93 9.48783 14.93 9.48923C14.93 9.49062 14.93 9.49202 14.93 9.49342C14.93 9.49482 14.93 9.49622 14.93 9.49761C14.93 9.49901 14.93 9.50041 14.93 9.50181C14.93 9.5032 14.93 9.5046 14.93 9.506C14.93 9.50739 14.93 9.50879 14.93 9.51019C14.93 9.51158 14.93 9.51298 14.93 9.51438C14.93 9.51577 14.93 9.51717 14.93 9.51856C14.93 9.51996 14.93 9.52135 14.93 9.52275C14.93 9.52415 14.93 9.52554 14.93 9.52694C14.93 9.52833 14.93 9.52973 14.93 9.53112C14.93 9.53252 14.93 9.53391 14.93 9.5353C14.93 9.5367 14.93 9.53809 14.93 9.53949C14.93 9.54088 14.93 9.54227 14.93 9.54367C14.93 9.54506 14.93 9.54645 14.93 9.54785C14.93 9.54924 14.93 9.55063 14.93 9.55203C14.93 9.55342 14.93 9.55481 14.93 9.5562C14.93 9.5576 14.93 9.55899 14.93 9.56038C14.93 9.56177 14.93 9.56316 14.93 9.56456C14.93 9.56595 14.93 9.56734 14.93 9.56873C14.93 9.57012 14.93 9.57151 14.93 9.5729C14.93 9.5743 14.93 9.57569 14.93 9.57708C14.93 9.57847 14.93 9.57986 14.93 9.58125C14.93 9.58264 14.93 9.58403 14.93 9.58542C14.93 9.58681 14.93 9.5882 14.93 9.58959C14.93 9.59098 14.93 9.59237 14.93 9.59375C14.93 9.59514 14.93 9.59653 14.93 9.59792C14.93 9.59931 14.93 9.6007 14.93 9.60209C14.93 9.60348 14.93 9.60486 14.93 9.60625C14.93 9.60764 14.93 9.60903 14.93 9.61042C14.93 9.6118 14.93 9.61319 14.93 9.61458C14.93 9.61596 14.93 9.61735 14.93 9.61874C14.93 9.62013 14.93 9.62151 14.93 9.6229C14.93 9.62429 14.93 9.62567 14.93 9.62706C14.93 9.62844 14.93 9.62983 14.93 9.63122C14.93 9.6326 14.93 9.63399 14.93 9.63537C14.93 9.63676 14.93 9.63814 14.93 9.63953C14.93 9.64091 14.93 9.6423 14.93 9.64368C14.93 9.64507 14.93 9.64645 14.93 9.64784C14.93 9.64922 14.93 9.65061 14.93 9.65199C14.93 9.65337 14.93 9.65476 14.93 9.65614C14.93 9.65753 14.93 9.65891 14.93 9.66029C14.93 9.66167 14.93 9.66306 14.93 9.66444C14.93 9.66582 14.93 9.66721 14.93 9.66859C14.93 9.66997 14.93 9.67135 14.93 9.67274C14.93 9.67412 14.93 9.6755 14.93 9.67688C14.93 9.67826 14.93 9.67965 14.93 9.68103C14.93 9.68241 14.93 9.68379 14.93 9.68517C14.93 9.68655 14.93 9.68793 14.93 9.68931C14.93 9.69069 14.93 9.69207 14.93 9.69345C14.93 9.69483 14.93 9.69622 14.93 9.6976C14.93 9.69898 14.93 9.70035 14.93 9.70173C14.93 9.70311 14.93 9.70449 14.93 9.70587C14.93 9.70725 14.93 9.70863 14.93 9.71001C14.93 9.71139 14.93 9.71277 14.93 9.71415C14.93 9.71552 14.93 9.7169 14.93 9.71828C14.93 9.71966 14.93 9.72104 14.93 9.72241C14.93 9.72379 14.93 9.72517 14.93 9.72655C14.93 9.72793 14.93 9.7293 14.93 9.73068C14.93 9.73206 14.93 9.73343 14.93 9.73481C14.93 9.73619 14.93 9.73756 14.93 9.73894C14.93 9.74032 14.93 9.74169 14.93 9.74307C14.93 9.74444 14.93 9.74582 14.93 9.7472C14.93 9.74857 14.93 9.74995 14.93 9.75132C14.93 9.7527 14.93 9.75407 14.93 9.75545C14.93 9.75682 14.93 9.7582 14.93 9.75957C14.93 9.76095 14.93 9.76232 14.93 9.7637C14.93 9.76507 14.93 9.76644 14.93 9.76782C14.93 9.76919 14.93 9.77057 14.93 9.77194C14.93 9.77331 14.93 9.77468 14.93 9.77606C14.93 9.77743 14.93 9.7788 14.93 9.78018C14.93 9.78155 14.93 9.78292 14.93 9.7843C14.93 9.78567 14.93 9.78704 14.93 9.78841C14.93 9.78978 14.93 9.79116 14.93 9.79253C14.93 9.7939 14.93 9.79527 14.93 9.79664C14.93 9.79801 14.93 9.79938 14.93 9.80075C14.93 9.80213 14.93 9.8035 14.93 9.80487C14.93 9.80624 14.93 9.80761 14.93 9.80898C14.93 9.81035 14.93 9.81172 14.93 9.81309C14.93 9.81446 14.93 9.81583 14.93 9.8172C14.93 9.81857 14.93 9.81994 14.93 9.82131C14.93 9.82267 14.93 9.82404 14.93 9.82541C14.93 9.82678 14.93 9.82815 14.93 9.82952C14.93 9.83089 14.93 9.83226 14.93 9.83362C14.93 9.83499 14.93 9.83636 14.93 9.83773C14.93 9.8391 14.93 9.84046 14.93 9.84183C14.93 9.8432 14.93 9.84456 14.93 9.84593C14.93 9.8473 14.93 9.84867 14.93 9.85003C14.93 9.8514 14.93 9.85277 14.93 9.85413C14.93 9.8555 14.93 9.85686 14.93 9.85823C14.93 9.8596 14.93 9.86096 14.93 9.86233C14.93 9.86369 14.93 9.86506 14.93 9.86642C14.93 9.86779 14.93 9.86915 14.93 9.87052C14.93 9.87188 14.93 9.87325 14.93 9.87461C14.93 9.87598 14.93 9.87734 14.93 9.87871C14.93 9.88007 14.93 9.88143 14.93 9.8828C14.93 9.88416 14.93 9.88552 14.93 9.88689C14.93 9.88825 14.93 9.88962 14.93 9.89098C14.93 9.89234 14.93 9.8937 14.93 9.89507C14.93 9.89643 14.93 9.89779 14.93 9.89915C14.93 9.90052 14.93 9.90188 14.93 9.90324C14.93 9.9046 14.93 9.90596 14.93 9.90733C14.93 9.90869 14.93 9.91005 14.93 9.91141C14.93 9.91277 14.93 9.91413 14.93 9.91549C14.93 9.91685 14.93 9.91822 14.93 9.91958C14.93 9.92094 14.93 9.9223 14.93 9.92366C14.93 9.92502 14.93 9.92638 14.93 9.92774C14.93 9.9291 14.93 9.93046 14.93 9.93182C14.93 9.93318 14.93 9.93454 14.93 9.93589C14.93 9.93725 14.93 9.93861 14.93 9.93997C14.93 9.94133 14.93 9.94269 14.93 9.94405C14.93 9.94541 14.93 9.94676 14.93 9.94812C14.93 9.94948 14.93 9.95084 14.93 9.9522C14.93 9.95355 14.93 9.95491 14.93 9.95627C14.93 9.95763 14.93 9.95898 14.93 9.96034C14.93 9.9617 14.93 9.96305 14.93 9.96441C14.93 9.96577 14.93 9.96712 14.93 9.96848C14.93 9.96984 14.93 9.97119 14.93 9.97255C14.93 9.97391 14.93 9.97526 14.93 9.97662C14.93 9.97797 14.93 9.97933 14.93 9.98068C14.93 9.98204 14.93 9.98339 14.93 9.98475C14.93 9.9861 14.93 9.98746 14.93 9.98881C14.93 9.99017 14.93 9.99152 14.93 9.99288C14.93 9.99423 14.93 9.99558 14.93 9.99694C14.93 9.99829 14.93 9.99965 14.93 10.001C14.93 10.0024 14.93 10.0037 14.93 10.0051C14.93 10.0064 14.93 10.0078 14.93 10.0091C14.93 10.0105 14.93 10.0118 14.93 10.0132C14.93 10.0145 14.93 10.0159 14.93 10.0172C14.93 10.0186 14.93 10.0199 14.93 10.0213C14.93 10.0226 14.93 10.024 14.93 10.0253C14.93 10.0267 14.93 10.028 14.93 10.0294C14.93 10.0307 14.93 10.0321 14.93 10.0335C14.93 10.0348 14.93 10.0362 14.93 10.0375C14.93 10.0389 14.93 10.0402 14.93 10.0416C14.93 10.0429 14.93 10.0443 14.93 10.0456C14.93 10.047 14.93 10.0483 14.93 10.0497C14.93 10.051 14.93 10.0523 14.93 10.0537C14.93 10.055 14.93 10.0564 14.93 10.0577C14.93 10.0591 14.93 10.0604 14.93 10.0618C14.93 10.0631 14.93 10.0645 14.93 10.0658C14.93 10.0672 14.93 10.0685 14.93 10.0699C14.93 10.0712 14.93 10.0726 14.93 10.0739C14.93 10.0753 14.93 10.0766 14.93 10.078C14.93 10.0793 14.93 10.0807 14.93 10.082C14.93 10.0833 14.93 10.0847 14.93 10.086C14.93 10.0874 14.93 10.0887 14.93 10.0901C14.93 10.0914 14.93 10.0928 14.93 10.0941C14.93 10.0955 14.93 10.0968 14.93 10.0982C14.93 10.0995 14.93 10.1008 14.93 10.1022C14.93 10.1035 14.93 10.1049 14.93 10.1062C14.93 10.1076 14.93 10.1089 14.93 10.1103C14.93 10.1116 14.93 10.1129 14.93 10.1143C14.93 10.1156 14.93 10.117 14.93 10.1183C14.93 10.1197 14.93 10.121 14.93 10.1223C14.93 10.1237 14.93 10.125 14.93 10.1264C14.93 10.1277 14.93 10.1291 14.93 10.1304C14.93 10.1317 14.93 10.1331 14.93 10.1344C14.93 10.1358 14.93 10.1371 14.93 10.1385C14.93 10.1398 14.93 10.1411 14.93 10.1425C14.93 10.1438 14.93 10.1452 14.93 10.1465C14.93 10.1478 14.93 10.1492 14.93 10.1505C14.93 10.1519 14.93 10.1532 14.93 10.1545C14.93 10.1559 14.93 10.1572 14.93 10.1586C14.93 10.1599 14.93 10.1612 14.93 10.1626C14.93 10.1639 14.93 10.1653 14.93 10.1666C14.93 10.1679 14.93 10.1693 14.93 10.1706C14.93 10.172 14.93 10.1733 14.93 10.1746C14.93 10.176 14.93 10.1773 14.93 10.1786C14.93 10.18 14.93 10.1813 14.93 10.1827C14.93 10.184 14.93 10.1853 14.93 10.1867C14.93 10.188 14.93 10.1894 14.93 10.1907C14.93 10.192 14.93 10.1934 14.93 10.1947C14.93 10.196 14.93 10.1974 14.93 10.1987C14.93 10.2 14.93 10.2014 14.93 10.2027C14.93 10.2041 14.93 10.2054 14.93 10.2067C14.93 10.2081 14.93 10.2094 14.93 10.2107C14.93 10.2121 14.93 10.2134 14.93 10.2147C14.93 10.2161 14.93 10.2174 14.93 10.2187C14.93 10.2201 14.93 10.2214 14.93 10.2227C14.93 10.2241 14.93 10.2254 14.93 10.2267C14.93 10.2281 14.93 10.2294 14.93 10.2308C14.93 10.2321 14.93 10.2334 14.93 10.2348C14.93 10.2361 14.93 10.2374 14.93 10.2387C14.93 10.2401 14.93 10.2414 14.93 10.2427C14.93 10.2441 14.93 10.2454 14.93 10.2467C14.93 10.2481 14.93 10.2494 14.93 10.2507C14.93 10.2521 14.93 10.2534 14.93 10.2547C14.93 10.2561 14.93 10.2574 14.93 10.2587C14.93 10.2601 14.93 10.2614 14.93 10.2627C14.93 10.2641 14.93 10.2654 14.93 10.2667C14.93 10.268 14.93 10.2694 14.93 10.2707C14.93 10.272 14.93 10.2734 14.93 10.2747C14.93 10.276 14.93 10.2774 14.93 10.2787C14.93 10.28 14.93 10.2813 14.93 10.2827C14.93 10.284 14.93 10.2853 14.93 10.2867C14.93 10.288 14.93 10.2893 14.93 10.2907C14.93 10.292 14.93 10.2933 14.93 10.2946C14.93 10.296 14.93 10.2973 14.93 10.2986C14.93 10.2999 14.93 10.3013 14.93 10.3026C14.93 10.3039 14.93 10.3053 14.93 10.3066C14.93 10.3079 14.93 10.3092 14.93 10.3106C14.93 10.3119 14.93 10.3132 14.93 10.3145C14.93 10.3159 14.93 10.3172 14.93 10.3185C14.93 10.3199 14.93 10.3212 14.93 10.3225C14.93 10.3238 14.93 10.3252 14.93 10.3265C14.93 10.3278 14.93 10.3291 14.93 10.3305C14.93 10.3318 14.93 10.3331 14.93 10.3344C14.93 10.3358 14.93 10.3371 14.93 10.3384C14.93 10.3397 14.93 10.3411 14.93 10.3424C14.93 10.3437 14.93 10.345 14.93 10.3463C14.93 10.3477 14.93 10.349 14.93 10.3503C14.93 10.3516 14.93 10.353 14.93 10.3543C14.93 10.3556 14.93 10.3569 14.93 10.3583C14.93 10.3596 14.93 10.3609 14.93 10.3622C14.93 10.3635 14.93 10.3649 14.93 10.3662C14.93 10.3675 14.93 10.3688 14.93 10.3702C14.93 10.3715 14.93 10.3728 14.93 10.3741C14.93 10.3754 14.93 10.3768 14.93 10.3781C14.93 10.3794 14.93 10.3807 14.93 10.3821C14.93 10.3834 14.93 10.3847 14.93 10.386C14.93 10.3873 14.93 10.3887 14.93 10.39C14.93 10.3913 14.93 10.3926 14.93 10.3939C14.93 10.3953 14.93 10.3966 14.93 10.3979C14.93 10.3992 14.93 10.4005 14.93 10.4018C14.93 10.4032 14.93 10.4045 14.93 10.4058C14.93 10.4071 14.93 10.4084 14.93 10.4098C14.93 10.4111 14.93 10.4124 14.93 10.4137C14.93 10.415 14.93 10.4164 14.93 10.4177C14.93 10.419 14.93 10.4203 14.93 10.4216C14.93 10.4229 14.93 10.4243 14.93 10.4256C14.93 10.4269 14.93 10.4282 14.93 10.4295C14.93 10.4308 14.93 10.4322 14.93 10.4335C14.93 10.4348 14.93 10.4361 14.93 10.4374C14.93 10.4387 14.93 10.4401 14.93 10.4414C14.93 10.4427 14.93 10.444 14.93 10.4453C14.93 10.4466 14.93 10.4479 14.93 10.4493C14.93 10.4506 14.93 10.4519 14.93 10.4532C14.93 10.4545 14.93 10.4558 14.93 10.4572C14.93 10.4585 14.93 10.4598 14.93 10.4611C14.93 10.4624 14.93 10.4637 14.93 10.465C14.93 10.4663 14.93 10.4677 14.93 10.469C14.93 10.4703 14.93 10.4716 14.93 10.4729C14.93 10.4742 14.93 10.4755 14.93 10.4769C14.93 10.4782 14.93 10.4795 14.93 10.4808C14.93 10.4821 14.93 10.4834 14.93 10.4847C14.93 10.486 14.93 10.4874 14.93 10.4887C14.93 10.49 14.93 10.4913 14.93 10.4926C14.93 10.4939 14.93 10.4952 14.93 10.4965C14.93 10.4978 14.93 10.4992 14.93 10.5005C14.93 10.5018 14.93 10.5031 14.93 10.5044C14.93 10.5057 14.93 10.507 14.93 10.5083C14.93 10.5096 14.93 10.5109 14.93 10.5123C14.93 10.5136 14.93 10.5149 14.93 10.5162C14.93 10.5175 14.93 10.5188 14.93 10.5201C14.93 10.5214 14.93 10.5227 14.93 10.524C14.93 10.5253 14.93 10.5267 14.93 10.528C14.93 10.5293 14.93 10.5306 14.93 10.5319C14.93 10.5332 14.93 10.5345 14.93 10.5358C14.93 10.5371 14.93 10.5384 14.93 10.5397C14.93 10.541 14.93 10.5423 14.93 10.5437C14.93 10.545 14.93 10.5463 14.93 10.5476C14.93 10.5489 14.93 10.5502 14.93 10.5515C14.93 10.5528 14.93 10.5541 14.93 10.5554C14.93 10.5567 14.93 10.558 14.93 10.5593C14.93 10.5606 14.93 10.5619 14.93 10.5632C14.93 10.5646 14.93 10.5659 14.93 10.5672C14.93 10.5685 14.93 10.5698 14.93 10.5711C14.93 10.5724 14.93 10.5737 14.93 10.575C14.93 10.5763 14.93 10.5776 14.93 10.5789C14.93 10.5802 14.93 10.5815 14.93 10.5828C14.93 10.5841 14.93 10.5854 14.93 10.5867C14.93 10.588 14.93 10.5893 14.93 10.5906C14.93 10.5919 14.93 10.5932 14.93 10.5945C14.93 10.5958 14.93 10.5971 14.93 10.5985C14.93 10.5998 14.93 10.6011 14.93 10.6024C14.93 10.6037 14.93 10.605 14.93 10.6063C14.93 10.6076 14.93 10.6089 14.93 10.6102C14.93 10.6115 14.93 10.6128 14.93 10.6141C14.93 10.6154 14.93 10.6167 14.93 10.618C14.93 10.6193 14.93 10.6206 14.93 10.6219C14.93 10.6232 14.93 10.6245 14.93 10.6258C14.93 10.6271 14.93 10.6284 14.93 10.6297C14.93 10.631 14.93 10.6323 14.93 10.6336C14.93 10.6349 14.93 10.6362 14.93 10.6375C14.93 10.6388 14.93 10.6401 14.93 10.6414C14.93 10.6427 14.93 10.644 14.93 10.6453C14.93 10.6466 14.93 10.6479 14.93 10.6492C14.93 10.6505 14.93 10.6518 14.93 10.6531C14.93 10.6544 14.93 10.6557 14.93 10.6569C14.93 10.6582 14.93 10.6595 14.93 10.6608C14.93 10.6621 14.93 10.6634 14.93 10.6647C14.93 10.666 14.93 10.6673 14.93 10.6686C14.93 10.6699 14.93 10.6712 14.93 10.6725C14.93 10.6738 14.93 10.6751 14.93 10.6764C14.93 10.6777 14.93 10.679 14.93 10.6803C14.93 10.6816 14.93 10.6829 14.93 10.6842C14.93 10.6855 14.93 10.6868 14.93 10.6881C14.93 10.6894 14.93 10.6906 14.93 10.6919C14.93 10.6932 14.93 10.6945 14.93 10.6958C14.93 10.6971 14.93 10.6984 14.93 10.6997C14.93 10.701 14.93 10.7023 14.93 10.7036C14.93 10.7049 14.93 10.7062 14.93 10.7075C14.93 10.7088 14.93 10.7101 14.93 10.7113C14.93 10.7126 14.93 10.7139 14.93 10.7152C14.93 10.7165 14.93 10.7178 14.93 10.7191C14.93 10.7204 14.93 10.7217 14.93 10.723C14.93 10.7243 14.93 10.7256 14.93 10.7269C14.93 10.7281 14.93 10.7294 14.93 10.7307C14.93 10.732 14.93 10.7333 14.93 10.7346C14.93 10.7359 14.93 10.7372 14.93 10.7385C14.93 10.7398 14.93 10.7411 14.93 10.7423C14.93 10.7436 14.93 10.7449 14.93 10.7462C14.93 10.7475 14.93 10.7488 14.93 10.7501C14.93 10.7514 14.93 10.7527 14.93 10.754C14.93 10.7552 14.93 10.7565 14.93 10.7578C14.93 10.7591 14.93 10.7604 14.93 10.7617C14.93 10.763 14.93 10.7643 14.93 10.7656C14.93 10.7668 14.93 10.7681 14.93 10.7694C14.93 10.7707 14.93 10.772 14.93 10.7733C14.93 10.7746 14.93 10.7759 14.93 10.7771C14.93 10.7784 14.93 10.7797 14.93 10.781C14.93 10.7823 14.93 10.7836 14.93 10.7849C14.93 10.7862 14.93 10.7874 14.93 10.7887C14.93 10.79 14.93 10.7913 14.93 10.7926C14.93 10.7939 14.93 10.7952 14.93 10.7964C14.93 10.7977 14.93 10.799 14.93 10.8003C14.93 10.8016 14.93 10.8029 14.93 10.8042C14.93 10.8054 14.93 10.8067 14.93 10.808C14.93 10.8093 14.93 10.8106 14.93 10.8119C14.93 10.8131 14.93 10.8144 14.93 10.8157C14.93 10.817 14.93 10.8183 14.93 10.8196C14.93 10.8209 14.93 10.8221 14.93 10.8234C14.93 10.8247 14.93 10.826 14.93 10.8273C14.93 10.8286 14.93 10.8298 14.93 10.8311C14.93 10.8324 14.93 10.8337 14.93 10.835C14.93 10.8362 14.93 10.8375 14.93 10.8388C14.93 10.8401 14.93 10.8414 14.93 10.8427C14.93 10.8439 14.93 10.8452 14.93 10.8465C14.93 10.8478 14.93 10.8491 14.93 10.8503C14.93 10.8516 14.93 10.8529 14.93 10.8542C14.93 10.8555 14.93 10.8568 14.93 10.858C14.93 10.8593 14.93 10.8606 14.93 10.8619C14.93 10.8632 14.93 10.8644 14.93 10.8657C14.93 10.867 14.93 10.8683 14.93 10.8696C14.93 10.8708 14.93 10.8721 14.93 10.8734C14.93 10.8747 14.93 10.876 14.93 10.8772C14.93 10.8785 14.93 10.8798 14.93 10.8811C14.93 10.8823 14.93 10.8836 14.93 10.8849C14.93 10.8862 14.93 10.8875 14.93 10.8887C14.93 10.89 14.93 10.8913 14.93 10.8926C14.93 10.8938 14.93 10.8951 14.93 10.8964C14.93 10.8977 14.93 10.899 14.93 10.9002C14.93 10.9015 14.93 10.9028 14.93 10.9041C14.93 10.9053 14.93 10.9066 14.93 10.9079C14.93 10.9092 14.93 10.9104 14.93 10.9117C14.93 10.913 14.93 10.9143 14.93 10.9156C14.93 10.9168 14.93 10.9181 14.93 10.9194C14.93 10.9207 14.93 10.9219 14.93 10.9232C14.93 10.9245 14.93 10.9258 14.93 10.927C14.93 10.9283 14.93 10.9296 14.93 10.9309C14.93 10.9321 14.93 10.9334 14.93 10.9347C14.93 10.936 14.93 10.9372 14.93 10.9385C14.93 10.9398 14.93 10.941 14.93 10.9423C14.93 10.9436 14.93 10.9449 14.93 10.9461C14.93 10.9474 14.93 10.9487 14.93 10.95C14.93 10.9512 14.93 10.9525 14.93 10.9538C14.93 10.9551 14.93 10.9563 14.93 10.9576C14.93 10.9589 14.93 10.9601 14.93 10.9614C14.93 10.9627 14.93 10.964 14.93 10.9652C14.93 10.9665 14.93 10.9678 14.93 10.969C14.93 10.9703 14.93 10.9716 14.93 10.9729C14.93 10.9741 14.93 10.9754 14.93 10.9767C14.93 10.9779 14.93 10.9792 14.93 10.9805C14.93 10.9818 14.93 10.983 14.93 10.9843C14.93 10.9856 14.93 10.9868 14.93 10.9881C14.93 10.9894 14.93 10.9906 14.93 10.9919C14.93 10.9932 14.93 10.9945 14.93 10.9957C14.93 10.997 14.93 10.9983 14.93 10.9995C14.93 11.0008 14.93 11.0021 14.93 11.0033C14.93 11.0046 14.93 11.0059 14.93 11.0071C14.93 11.0084 14.93 11.0097 14.93 11.0109C14.93 11.0122 14.93 11.0135 14.93 11.0147C14.93 11.016 14.93 11.0173 14.93 11.0186C14.93 11.0198 14.93 11.0211 14.93 11.0224C14.93 11.0236 14.93 11.0249 14.93 11.0262C14.93 11.0274 14.93 11.0287 14.93 11.03C14.93 11.0312 14.93 11.0325 14.93 11.0338C14.93 11.035 14.93 11.0363 14.93 11.0375C14.93 11.0388 14.93 11.0401 14.93 11.0413C14.93 11.0426 14.93 11.0439 14.93 11.0451C14.93 11.0464 14.93 11.0477 14.93 11.0489C14.93 11.0502 14.93 11.0515 14.93 11.0527C14.93 11.054 14.93 11.0553 14.93 11.0565C14.93 11.0578 14.93 11.0591 14.93 11.0603C14.93 11.0616 14.93 11.0628 14.93 11.0641C14.93 11.0654 14.93 11.0666 14.93 11.0679C14.93 11.0692 14.93 11.0704 14.93 11.0717C14.93 11.0729 14.93 11.0742 14.93 11.0755C14.93 11.0767 14.93 11.078 14.93 11.0793C14.93 11.0805 14.93 11.0818 14.93 11.083C14.93 11.0843 14.93 11.0856 14.93 11.0868C14.93 11.0881 14.93 11.0894 14.93 11.0906C14.93 11.0919 14.93 11.0931 14.93 11.0944C14.93 11.0957 14.93 11.0969 14.93 11.0982C14.93 11.0994 14.93 11.1007 14.93 11.102C14.93 11.1032 14.93 11.1045 14.93 11.1057C14.93 11.107 14.93 11.1083 14.93 11.1095C14.93 11.1108 14.93 11.112 14.93 11.1133C14.93 11.1146 14.93 11.1158 14.93 11.1171C14.93 11.1183 14.93 11.1196 14.93 11.1209C14.93 11.1221 14.93 11.1234 14.93 11.1246C14.93 11.1259 14.93 11.1272 14.93 11.1284C14.93 11.1297 14.93 11.1309 14.93 11.1322C14.93 11.1334 14.93 11.1347 14.93 11.136C14.93 11.1372 14.93 11.1385 14.93 11.1397C14.93 11.141 14.93 11.1422 14.93 11.1435C14.93 11.1448 14.93 11.146 14.93 11.1473C14.93 11.1485 14.93 11.1498 14.93 11.151C14.93 11.1523 14.93 11.1536 14.93 11.1548C14.93 11.1561 14.93 11.1573 14.93 11.1586C14.93 11.1598 14.93 11.1611 14.93 11.1624C14.93 11.1636 14.93 11.1649 14.93 11.1661C14.93 11.1674 14.93 11.1686 14.93 11.1699C14.93 11.1711 14.93 11.1724 14.93 11.1736C14.93 11.1749 14.93 11.1762 14.93 11.1774C14.93 11.1787 14.93 11.1799 14.93 11.1812C14.93 11.1824 14.93 11.1837 14.93 11.1849C14.93 11.1862 14.93 11.1874 14.93 11.1887C14.93 11.1899 14.93 11.1912 14.93 11.1925C14.93 11.1937 14.93 11.195 14.93 11.1962C14.93 11.1975 14.93 11.1987 14.93 11.2C14.93 11.2012 14.93 11.2025 14.93 11.2037C14.93 11.205 14.93 11.2062 14.93 11.2075C14.93 11.2087 14.93 11.21 14.93 11.2112C14.93 11.2125 14.93 11.2137 14.93 11.215C14.93 11.2162 14.93 11.2175 14.93 11.2187C14.93 11.22 14.93 11.2212 14.93 11.2225C14.93 11.2237 14.93 11.225 14.93 11.2262C14.93 11.2275 14.93 11.2287 14.93 11.23H17.93C17.93 11.2287 17.93 11.2275 17.93 11.2262C17.93 11.225 17.93 11.2237 17.93 11.2225C17.93 11.2212 17.93 11.22 17.93 11.2187C17.93 11.2175 17.93 11.2162 17.93 11.215C17.93 11.2137 17.93 11.2125 17.93 11.2112C17.93 11.21 17.93 11.2087 17.93 11.2075C17.93 11.2062 17.93 11.205 17.93 11.2037C17.93 11.2025 17.93 11.2012 17.93 11.2C17.93 11.1987 17.93 11.1975 17.93 11.1962C17.93 11.195 17.93 11.1937 17.93 11.1925C17.93 11.1912 17.93 11.1899 17.93 11.1887C17.93 11.1874 17.93 11.1862 17.93 11.1849C17.93 11.1837 17.93 11.1824 17.93 11.1812C17.93 11.1799 17.93 11.1787 17.93 11.1774C17.93 11.1762 17.93 11.1749 17.93 11.1736C17.93 11.1724 17.93 11.1711 17.93 11.1699C17.93 11.1686 17.93 11.1674 17.93 11.1661C17.93 11.1649 17.93 11.1636 17.93 11.1624C17.93 11.1611 17.93 11.1598 17.93 11.1586C17.93 11.1573 17.93 11.1561 17.93 11.1548C17.93 11.1536 17.93 11.1523 17.93 11.151C17.93 11.1498 17.93 11.1485 17.93 11.1473C17.93 11.146 17.93 11.1448 17.93 11.1435C17.93 11.1422 17.93 11.141 17.93 11.1397C17.93 11.1385 17.93 11.1372 17.93 11.136C17.93 11.1347 17.93 11.1334 17.93 11.1322C17.93 11.1309 17.93 11.1297 17.93 11.1284C17.93 11.1272 17.93 11.1259 17.93 11.1246C17.93 11.1234 17.93 11.1221 17.93 11.1209C17.93 11.1196 17.93 11.1183 17.93 11.1171C17.93 11.1158 17.93 11.1146 17.93 11.1133C17.93 11.112 17.93 11.1108 17.93 11.1095C17.93 11.1083 17.93 11.107 17.93 11.1057C17.93 11.1045 17.93 11.1032 17.93 11.102C17.93 11.1007 17.93 11.0994 17.93 11.0982C17.93 11.0969 17.93 11.0957 17.93 11.0944C17.93 11.0931 17.93 11.0919 17.93 11.0906C17.93 11.0894 17.93 11.0881 17.93 11.0868C17.93 11.0856 17.93 11.0843 17.93 11.083C17.93 11.0818 17.93 11.0805 17.93 11.0793C17.93 11.078 17.93 11.0767 17.93 11.0755C17.93 11.0742 17.93 11.0729 17.93 11.0717C17.93 11.0704 17.93 11.0692 17.93 11.0679C17.93 11.0666 17.93 11.0654 17.93 11.0641C17.93 11.0628 17.93 11.0616 17.93 11.0603C17.93 11.0591 17.93 11.0578 17.93 11.0565C17.93 11.0553 17.93 11.054 17.93 11.0527C17.93 11.0515 17.93 11.0502 17.93 11.0489C17.93 11.0477 17.93 11.0464 17.93 11.0451C17.93 11.0439 17.93 11.0426 17.93 11.0413C17.93 11.0401 17.93 11.0388 17.93 11.0375C17.93 11.0363 17.93 11.035 17.93 11.0338C17.93 11.0325 17.93 11.0312 17.93 11.03C17.93 11.0287 17.93 11.0274 17.93 11.0262C17.93 11.0249 17.93 11.0236 17.93 11.0224C17.93 11.0211 17.93 11.0198 17.93 11.0186C17.93 11.0173 17.93 11.016 17.93 11.0147C17.93 11.0135 17.93 11.0122 17.93 11.0109C17.93 11.0097 17.93 11.0084 17.93 11.0071C17.93 11.0059 17.93 11.0046 17.93 11.0033C17.93 11.0021 17.93 11.0008 17.93 10.9995C17.93 10.9983 17.93 10.997 17.93 10.9957C17.93 10.9945 17.93 10.9932 17.93 10.9919C17.93 10.9906 17.93 10.9894 17.93 10.9881C17.93 10.9868 17.93 10.9856 17.93 10.9843C17.93 10.983 17.93 10.9818 17.93 10.9805C17.93 10.9792 17.93 10.9779 17.93 10.9767C17.93 10.9754 17.93 10.9741 17.93 10.9729C17.93 10.9716 17.93 10.9703 17.93 10.969C17.93 10.9678 17.93 10.9665 17.93 10.9652C17.93 10.964 17.93 10.9627 17.93 10.9614C17.93 10.9601 17.93 10.9589 17.93 10.9576C17.93 10.9563 17.93 10.9551 17.93 10.9538C17.93 10.9525 17.93 10.9512 17.93 10.95C17.93 10.9487 17.93 10.9474 17.93 10.9461C17.93 10.9449 17.93 10.9436 17.93 10.9423C17.93 10.941 17.93 10.9398 17.93 10.9385C17.93 10.9372 17.93 10.936 17.93 10.9347C17.93 10.9334 17.93 10.9321 17.93 10.9309C17.93 10.9296 17.93 10.9283 17.93 10.927C17.93 10.9258 17.93 10.9245 17.93 10.9232C17.93 10.9219 17.93 10.9207 17.93 10.9194C17.93 10.9181 17.93 10.9168 17.93 10.9156C17.93 10.9143 17.93 10.913 17.93 10.9117C17.93 10.9104 17.93 10.9092 17.93 10.9079C17.93 10.9066 17.93 10.9053 17.93 10.9041C17.93 10.9028 17.93 10.9015 17.93 10.9002C17.93 10.899 17.93 10.8977 17.93 10.8964C17.93 10.8951 17.93 10.8938 17.93 10.8926C17.93 10.8913 17.93 10.89 17.93 10.8887C17.93 10.8875 17.93 10.8862 17.93 10.8849C17.93 10.8836 17.93 10.8823 17.93 10.8811C17.93 10.8798 17.93 10.8785 17.93 10.8772C17.93 10.876 17.93 10.8747 17.93 10.8734C17.93 10.8721 17.93 10.8708 17.93 10.8696C17.93 10.8683 17.93 10.867 17.93 10.8657C17.93 10.8644 17.93 10.8632 17.93 10.8619C17.93 10.8606 17.93 10.8593 17.93 10.858C17.93 10.8568 17.93 10.8555 17.93 10.8542C17.93 10.8529 17.93 10.8516 17.93 10.8503C17.93 10.8491 17.93 10.8478 17.93 10.8465C17.93 10.8452 17.93 10.8439 17.93 10.8427C17.93 10.8414 17.93 10.8401 17.93 10.8388C17.93 10.8375 17.93 10.8362 17.93 10.835C17.93 10.8337 17.93 10.8324 17.93 10.8311C17.93 10.8298 17.93 10.8286 17.93 10.8273C17.93 10.826 17.93 10.8247 17.93 10.8234C17.93 10.8221 17.93 10.8209 17.93 10.8196C17.93 10.8183 17.93 10.817 17.93 10.8157C17.93 10.8144 17.93 10.8131 17.93 10.8119C17.93 10.8106 17.93 10.8093 17.93 10.808C17.93 10.8067 17.93 10.8054 17.93 10.8042C17.93 10.8029 17.93 10.8016 17.93 10.8003C17.93 10.799 17.93 10.7977 17.93 10.7964C17.93 10.7952 17.93 10.7939 17.93 10.7926C17.93 10.7913 17.93 10.79 17.93 10.7887C17.93 10.7874 17.93 10.7862 17.93 10.7849C17.93 10.7836 17.93 10.7823 17.93 10.781C17.93 10.7797 17.93 10.7784 17.93 10.7771C17.93 10.7759 17.93 10.7746 17.93 10.7733C17.93 10.772 17.93 10.7707 17.93 10.7694C17.93 10.7681 17.93 10.7668 17.93 10.7656C17.93 10.7643 17.93 10.763 17.93 10.7617C17.93 10.7604 17.93 10.7591 17.93 10.7578C17.93 10.7565 17.93 10.7552 17.93 10.754C17.93 10.7527 17.93 10.7514 17.93 10.7501C17.93 10.7488 17.93 10.7475 17.93 10.7462C17.93 10.7449 17.93 10.7436 17.93 10.7423C17.93 10.7411 17.93 10.7398 17.93 10.7385C17.93 10.7372 17.93 10.7359 17.93 10.7346C17.93 10.7333 17.93 10.732 17.93 10.7307C17.93 10.7294 17.93 10.7281 17.93 10.7269C17.93 10.7256 17.93 10.7243 17.93 10.723C17.93 10.7217 17.93 10.7204 17.93 10.7191C17.93 10.7178 17.93 10.7165 17.93 10.7152C17.93 10.7139 17.93 10.7126 17.93 10.7113C17.93 10.7101 17.93 10.7088 17.93 10.7075C17.93 10.7062 17.93 10.7049 17.93 10.7036C17.93 10.7023 17.93 10.701 17.93 10.6997C17.93 10.6984 17.93 10.6971 17.93 10.6958C17.93 10.6945 17.93 10.6932 17.93 10.6919C17.93 10.6906 17.93 10.6894 17.93 10.6881C17.93 10.6868 17.93 10.6855 17.93 10.6842C17.93 10.6829 17.93 10.6816 17.93 10.6803C17.93 10.679 17.93 10.6777 17.93 10.6764C17.93 10.6751 17.93 10.6738 17.93 10.6725C17.93 10.6712 17.93 10.6699 17.93 10.6686C17.93 10.6673 17.93 10.666 17.93 10.6647C17.93 10.6634 17.93 10.6621 17.93 10.6608C17.93 10.6595 17.93 10.6582 17.93 10.6569C17.93 10.6557 17.93 10.6544 17.93 10.6531C17.93 10.6518 17.93 10.6505 17.93 10.6492C17.93 10.6479 17.93 10.6466 17.93 10.6453C17.93 10.644 17.93 10.6427 17.93 10.6414C17.93 10.6401 17.93 10.6388 17.93 10.6375C17.93 10.6362 17.93 10.6349 17.93 10.6336C17.93 10.6323 17.93 10.631 17.93 10.6297C17.93 10.6284 17.93 10.6271 17.93 10.6258C17.93 10.6245 17.93 10.6232 17.93 10.6219C17.93 10.6206 17.93 10.6193 17.93 10.618C17.93 10.6167 17.93 10.6154 17.93 10.6141C17.93 10.6128 17.93 10.6115 17.93 10.6102C17.93 10.6089 17.93 10.6076 17.93 10.6063C17.93 10.605 17.93 10.6037 17.93 10.6024C17.93 10.6011 17.93 10.5998 17.93 10.5985C17.93 10.5971 17.93 10.5958 17.93 10.5945C17.93 10.5932 17.93 10.5919 17.93 10.5906C17.93 10.5893 17.93 10.588 17.93 10.5867C17.93 10.5854 17.93 10.5841 17.93 10.5828C17.93 10.5815 17.93 10.5802 17.93 10.5789C17.93 10.5776 17.93 10.5763 17.93 10.575C17.93 10.5737 17.93 10.5724 17.93 10.5711C17.93 10.5698 17.93 10.5685 17.93 10.5672C17.93 10.5659 17.93 10.5646 17.93 10.5632C17.93 10.5619 17.93 10.5606 17.93 10.5593C17.93 10.558 17.93 10.5567 17.93 10.5554C17.93 10.5541 17.93 10.5528 17.93 10.5515C17.93 10.5502 17.93 10.5489 17.93 10.5476C17.93 10.5463 17.93 10.545 17.93 10.5437C17.93 10.5423 17.93 10.541 17.93 10.5397C17.93 10.5384 17.93 10.5371 17.93 10.5358C17.93 10.5345 17.93 10.5332 17.93 10.5319C17.93 10.5306 17.93 10.5293 17.93 10.528C17.93 10.5267 17.93 10.5253 17.93 10.524C17.93 10.5227 17.93 10.5214 17.93 10.5201C17.93 10.5188 17.93 10.5175 17.93 10.5162C17.93 10.5149 17.93 10.5136 17.93 10.5123C17.93 10.5109 17.93 10.5096 17.93 10.5083C17.93 10.507 17.93 10.5057 17.93 10.5044C17.93 10.5031 17.93 10.5018 17.93 10.5005C17.93 10.4992 17.93 10.4978 17.93 10.4965C17.93 10.4952 17.93 10.4939 17.93 10.4926C17.93 10.4913 17.93 10.49 17.93 10.4887C17.93 10.4874 17.93 10.486 17.93 10.4847C17.93 10.4834 17.93 10.4821 17.93 10.4808C17.93 10.4795 17.93 10.4782 17.93 10.4769C17.93 10.4755 17.93 10.4742 17.93 10.4729C17.93 10.4716 17.93 10.4703 17.93 10.469C17.93 10.4677 17.93 10.4663 17.93 10.465C17.93 10.4637 17.93 10.4624 17.93 10.4611C17.93 10.4598 17.93 10.4585 17.93 10.4572C17.93 10.4558 17.93 10.4545 17.93 10.4532C17.93 10.4519 17.93 10.4506 17.93 10.4493C17.93 10.4479 17.93 10.4466 17.93 10.4453C17.93 10.444 17.93 10.4427 17.93 10.4414C17.93 10.4401 17.93 10.4387 17.93 10.4374C17.93 10.4361 17.93 10.4348 17.93 10.4335C17.93 10.4322 17.93 10.4308 17.93 10.4295C17.93 10.4282 17.93 10.4269 17.93 10.4256C17.93 10.4243 17.93 10.4229 17.93 10.4216C17.93 10.4203 17.93 10.419 17.93 10.4177C17.93 10.4164 17.93 10.415 17.93 10.4137C17.93 10.4124 17.93 10.4111 17.93 10.4098C17.93 10.4084 17.93 10.4071 17.93 10.4058C17.93 10.4045 17.93 10.4032 17.93 10.4018C17.93 10.4005 17.93 10.3992 17.93 10.3979C17.93 10.3966 17.93 10.3953 17.93 10.3939C17.93 10.3926 17.93 10.3913 17.93 10.39C17.93 10.3887 17.93 10.3873 17.93 10.386C17.93 10.3847 17.93 10.3834 17.93 10.3821C17.93 10.3807 17.93 10.3794 17.93 10.3781C17.93 10.3768 17.93 10.3754 17.93 10.3741C17.93 10.3728 17.93 10.3715 17.93 10.3702C17.93 10.3688 17.93 10.3675 17.93 10.3662C17.93 10.3649 17.93 10.3635 17.93 10.3622C17.93 10.3609 17.93 10.3596 17.93 10.3583C17.93 10.3569 17.93 10.3556 17.93 10.3543C17.93 10.353 17.93 10.3516 17.93 10.3503C17.93 10.349 17.93 10.3477 17.93 10.3463C17.93 10.345 17.93 10.3437 17.93 10.3424C17.93 10.3411 17.93 10.3397 17.93 10.3384C17.93 10.3371 17.93 10.3358 17.93 10.3344C17.93 10.3331 17.93 10.3318 17.93 10.3305C17.93 10.3291 17.93 10.3278 17.93 10.3265C17.93 10.3252 17.93 10.3238 17.93 10.3225C17.93 10.3212 17.93 10.3199 17.93 10.3185C17.93 10.3172 17.93 10.3159 17.93 10.3145C17.93 10.3132 17.93 10.3119 17.93 10.3106C17.93 10.3092 17.93 10.3079 17.93 10.3066C17.93 10.3053 17.93 10.3039 17.93 10.3026C17.93 10.3013 17.93 10.2999 17.93 10.2986C17.93 10.2973 17.93 10.296 17.93 10.2946C17.93 10.2933 17.93 10.292 17.93 10.2907C17.93 10.2893 17.93 10.288 17.93 10.2867C17.93 10.2853 17.93 10.284 17.93 10.2827C17.93 10.2813 17.93 10.28 17.93 10.2787C17.93 10.2774 17.93 10.276 17.93 10.2747C17.93 10.2734 17.93 10.272 17.93 10.2707C17.93 10.2694 17.93 10.268 17.93 10.2667C17.93 10.2654 17.93 10.2641 17.93 10.2627C17.93 10.2614 17.93 10.2601 17.93 10.2587C17.93 10.2574 17.93 10.2561 17.93 10.2547C17.93 10.2534 17.93 10.2521 17.93 10.2507C17.93 10.2494 17.93 10.2481 17.93 10.2467C17.93 10.2454 17.93 10.2441 17.93 10.2427C17.93 10.2414 17.93 10.2401 17.93 10.2387C17.93 10.2374 17.93 10.2361 17.93 10.2348C17.93 10.2334 17.93 10.2321 17.93 10.2308C17.93 10.2294 17.93 10.2281 17.93 10.2267C17.93 10.2254 17.93 10.2241 17.93 10.2227C17.93 10.2214 17.93 10.2201 17.93 10.2187C17.93 10.2174 17.93 10.2161 17.93 10.2147C17.93 10.2134 17.93 10.2121 17.93 10.2107C17.93 10.2094 17.93 10.2081 17.93 10.2067C17.93 10.2054 17.93 10.2041 17.93 10.2027C17.93 10.2014 17.93 10.2 17.93 10.1987C17.93 10.1974 17.93 10.196 17.93 10.1947C17.93 10.1934 17.93 10.192 17.93 10.1907C17.93 10.1894 17.93 10.188 17.93 10.1867C17.93 10.1853 17.93 10.184 17.93 10.1827C17.93 10.1813 17.93 10.18 17.93 10.1786C17.93 10.1773 17.93 10.176 17.93 10.1746C17.93 10.1733 17.93 10.172 17.93 10.1706C17.93 10.1693 17.93 10.1679 17.93 10.1666C17.93 10.1653 17.93 10.1639 17.93 10.1626C17.93 10.1612 17.93 10.1599 17.93 10.1586C17.93 10.1572 17.93 10.1559 17.93 10.1545C17.93 10.1532 17.93 10.1519 17.93 10.1505C17.93 10.1492 17.93 10.1478 17.93 10.1465C17.93 10.1452 17.93 10.1438 17.93 10.1425C17.93 10.1411 17.93 10.1398 17.93 10.1385C17.93 10.1371 17.93 10.1358 17.93 10.1344C17.93 10.1331 17.93 10.1317 17.93 10.1304C17.93 10.1291 17.93 10.1277 17.93 10.1264C17.93 10.125 17.93 10.1237 17.93 10.1223C17.93 10.121 17.93 10.1197 17.93 10.1183C17.93 10.117 17.93 10.1156 17.93 10.1143C17.93 10.1129 17.93 10.1116 17.93 10.1103C17.93 10.1089 17.93 10.1076 17.93 10.1062C17.93 10.1049 17.93 10.1035 17.93 10.1022C17.93 10.1008 17.93 10.0995 17.93 10.0982C17.93 10.0968 17.93 10.0955 17.93 10.0941C17.93 10.0928 17.93 10.0914 17.93 10.0901C17.93 10.0887 17.93 10.0874 17.93 10.086C17.93 10.0847 17.93 10.0833 17.93 10.082C17.93 10.0807 17.93 10.0793 17.93 10.078C17.93 10.0766 17.93 10.0753 17.93 10.0739C17.93 10.0726 17.93 10.0712 17.93 10.0699C17.93 10.0685 17.93 10.0672 17.93 10.0658C17.93 10.0645 17.93 10.0631 17.93 10.0618C17.93 10.0604 17.93 10.0591 17.93 10.0577C17.93 10.0564 17.93 10.055 17.93 10.0537C17.93 10.0523 17.93 10.051 17.93 10.0497C17.93 10.0483 17.93 10.047 17.93 10.0456C17.93 10.0443 17.93 10.0429 17.93 10.0416C17.93 10.0402 17.93 10.0389 17.93 10.0375C17.93 10.0362 17.93 10.0348 17.93 10.0335C17.93 10.0321 17.93 10.0307 17.93 10.0294C17.93 10.028 17.93 10.0267 17.93 10.0253C17.93 10.024 17.93 10.0226 17.93 10.0213C17.93 10.0199 17.93 10.0186 17.93 10.0172C17.93 10.0159 17.93 10.0145 17.93 10.0132C17.93 10.0118 17.93 10.0105 17.93 10.0091C17.93 10.0078 17.93 10.0064 17.93 10.0051C17.93 10.0037 17.93 10.0024 17.93 10.001C17.93 9.99965 17.93 9.99829 17.93 9.99694C17.93 9.99558 17.93 9.99423 17.93 9.99288C17.93 9.99152 17.93 9.99017 17.93 9.98881C17.93 9.98746 17.93 9.9861 17.93 9.98475C17.93 9.98339 17.93 9.98204 17.93 9.98068C17.93 9.97933 17.93 9.97797 17.93 9.97662C17.93 9.97526 17.93 9.97391 17.93 9.97255C17.93 9.97119 17.93 9.96984 17.93 9.96848C17.93 9.96712 17.93 9.96577 17.93 9.96441C17.93 9.96305 17.93 9.9617 17.93 9.96034C17.93 9.95898 17.93 9.95763 17.93 9.95627C17.93 9.95491 17.93 9.95355 17.93 9.9522C17.93 9.95084 17.93 9.94948 17.93 9.94812C17.93 9.94676 17.93 9.94541 17.93 9.94405C17.93 9.94269 17.93 9.94133 17.93 9.93997C17.93 9.93861 17.93 9.93725 17.93 9.93589C17.93 9.93454 17.93 9.93318 17.93 9.93182C17.93 9.93046 17.93 9.9291 17.93 9.92774C17.93 9.92638 17.93 9.92502 17.93 9.92366C17.93 9.9223 17.93 9.92094 17.93 9.91958C17.93 9.91822 17.93 9.91685 17.93 9.91549C17.93 9.91413 17.93 9.91277 17.93 9.91141C17.93 9.91005 17.93 9.90869 17.93 9.90733C17.93 9.90596 17.93 9.9046 17.93 9.90324C17.93 9.90188 17.93 9.90052 17.93 9.89915C17.93 9.89779 17.93 9.89643 17.93 9.89507C17.93 9.8937 17.93 9.89234 17.93 9.89098C17.93 9.88962 17.93 9.88825 17.93 9.88689C17.93 9.88552 17.93 9.88416 17.93 9.8828C17.93 9.88143 17.93 9.88007 17.93 9.87871C17.93 9.87734 17.93 9.87598 17.93 9.87461C17.93 9.87325 17.93 9.87188 17.93 9.87052C17.93 9.86915 17.93 9.86779 17.93 9.86642C17.93 9.86506 17.93 9.86369 17.93 9.86233C17.93 9.86096 17.93 9.8596 17.93 9.85823C17.93 9.85686 17.93 9.8555 17.93 9.85413C17.93 9.85277 17.93 9.8514 17.93 9.85003C17.93 9.84867 17.93 9.8473 17.93 9.84593C17.93 9.84456 17.93 9.8432 17.93 9.84183C17.93 9.84046 17.93 9.8391 17.93 9.83773C17.93 9.83636 17.93 9.83499 17.93 9.83362C17.93 9.83226 17.93 9.83089 17.93 9.82952C17.93 9.82815 17.93 9.82678 17.93 9.82541C17.93 9.82404 17.93 9.82267 17.93 9.82131C17.93 9.81994 17.93 9.81857 17.93 9.8172C17.93 9.81583 17.93 9.81446 17.93 9.81309C17.93 9.81172 17.93 9.81035 17.93 9.80898C17.93 9.80761 17.93 9.80624 17.93 9.80487C17.93 9.8035 17.93 9.80213 17.93 9.80075C17.93 9.79938 17.93 9.79801 17.93 9.79664C17.93 9.79527 17.93 9.7939 17.93 9.79253C17.93 9.79116 17.93 9.78978 17.93 9.78841C17.93 9.78704 17.93 9.78567 17.93 9.7843C17.93 9.78292 17.93 9.78155 17.93 9.78018C17.93 9.7788 17.93 9.77743 17.93 9.77606C17.93 9.77468 17.93 9.77331 17.93 9.77194C17.93 9.77057 17.93 9.76919 17.93 9.76782C17.93 9.76644 17.93 9.76507 17.93 9.7637C17.93 9.76232 17.93 9.76095 17.93 9.75957C17.93 9.7582 17.93 9.75682 17.93 9.75545C17.93 9.75407 17.93 9.7527 17.93 9.75132C17.93 9.74995 17.93 9.74857 17.93 9.7472C17.93 9.74582 17.93 9.74444 17.93 9.74307C17.93 9.74169 17.93 9.74032 17.93 9.73894C17.93 9.73756 17.93 9.73619 17.93 9.73481C17.93 9.73343 17.93 9.73206 17.93 9.73068C17.93 9.7293 17.93 9.72793 17.93 9.72655C17.93 9.72517 17.93 9.72379 17.93 9.72241C17.93 9.72104 17.93 9.71966 17.93 9.71828C17.93 9.7169 17.93 9.71552 17.93 9.71415C17.93 9.71277 17.93 9.71139 17.93 9.71001C17.93 9.70863 17.93 9.70725 17.93 9.70587C17.93 9.70449 17.93 9.70311 17.93 9.70173C17.93 9.70035 17.93 9.69898 17.93 9.6976C17.93 9.69622 17.93 9.69483 17.93 9.69345C17.93 9.69207 17.93 9.69069 17.93 9.68931C17.93 9.68793 17.93 9.68655 17.93 9.68517C17.93 9.68379 17.93 9.68241 17.93 9.68103C17.93 9.67965 17.93 9.67826 17.93 9.67688C17.93 9.6755 17.93 9.67412 17.93 9.67274C17.93 9.67135 17.93 9.66997 17.93 9.66859C17.93 9.66721 17.93 9.66582 17.93 9.66444C17.93 9.66306 17.93 9.66167 17.93 9.66029C17.93 9.65891 17.93 9.65753 17.93 9.65614C17.93 9.65476 17.93 9.65337 17.93 9.65199C17.93 9.65061 17.93 9.64922 17.93 9.64784C17.93 9.64645 17.93 9.64507 17.93 9.64368C17.93 9.6423 17.93 9.64091 17.93 9.63953C17.93 9.63814 17.93 9.63676 17.93 9.63537C17.93 9.63399 17.93 9.6326 17.93 9.63122C17.93 9.62983 17.93 9.62844 17.93 9.62706C17.93 9.62567 17.93 9.62429 17.93 9.6229C17.93 9.62151 17.93 9.62013 17.93 9.61874C17.93 9.61735 17.93 9.61596 17.93 9.61458C17.93 9.61319 17.93 9.6118 17.93 9.61042C17.93 9.60903 17.93 9.60764 17.93 9.60625C17.93 9.60486 17.93 9.60348 17.93 9.60209C17.93 9.6007 17.93 9.59931 17.93 9.59792C17.93 9.59653 17.93 9.59514 17.93 9.59375C17.93 9.59237 17.93 9.59098 17.93 9.58959C17.93 9.5882 17.93 9.58681 17.93 9.58542C17.93 9.58403 17.93 9.58264 17.93 9.58125C17.93 9.57986 17.93 9.57847 17.93 9.57708C17.93 9.57569 17.93 9.5743 17.93 9.5729C17.93 9.57151 17.93 9.57012 17.93 9.56873C17.93 9.56734 17.93 9.56595 17.93 9.56456C17.93 9.56316 17.93 9.56177 17.93 9.56038C17.93 9.55899 17.93 9.5576 17.93 9.5562C17.93 9.55481 17.93 9.55342 17.93 9.55203C17.93 9.55063 17.93 9.54924 17.93 9.54785C17.93 9.54645 17.93 9.54506 17.93 9.54367C17.93 9.54227 17.93 9.54088 17.93 9.53949C17.93 9.53809 17.93 9.5367 17.93 9.5353C17.93 9.53391 17.93 9.53252 17.93 9.53112C17.93 9.52973 17.93 9.52833 17.93 9.52694C17.93 9.52554 17.93 9.52415 17.93 9.52275C17.93 9.52135 17.93 9.51996 17.93 9.51856C17.93 9.51717 17.93 9.51577 17.93 9.51438C17.93 9.51298 17.93 9.51158 17.93 9.51019C17.93 9.50879 17.93 9.50739 17.93 9.506C17.93 9.5046 17.93 9.5032 17.93 9.50181C17.93 9.50041 17.93 9.49901 17.93 9.49761C17.93 9.49622 17.93 9.49482 17.93 9.49342C17.93 9.49202 17.93 9.49062 17.93 9.48923C17.93 9.48783 17.93 9.48643 17.93 9.48503C17.93 9.48363 17.93 9.48223 17.93 9.48083C17.93 9.47943 17.93 9.47804 17.93 9.47664C17.93 9.47524 17.93 9.47384 17.93 9.47244C17.93 9.47104 17.93 9.46964 17.93 9.46824C17.93 9.46684 17.93 9.46544 17.93 9.46404C17.93 9.46264 17.93 9.46124 17.93 9.45983C17.93 9.45843 17.93 9.45703 17.93 9.45563C17.93 9.45423 17.93 9.45283 17.93 9.45143C17.93 9.45002 17.93 9.44862 17.93 9.44722C17.93 9.44582 17.93 9.44442 17.93 9.44301C17.93 9.44161 17.93 9.44021 17.93 9.43881C17.93 9.4374 17.93 9.436 17.93 9.4346C17.93 9.43319 17.93 9.43179 17.93 9.43039C17.93 9.42898 17.93 9.42758 17.93 9.42618C17.93 9.42477 17.93 9.42337 17.93 9.42196C17.93 9.42056 17.93 9.41916 17.93 9.41775C17.93 9.41635 17.93 9.41494 17.93 9.41354C17.93 9.41213 17.93 9.41073 17.93 9.40932C17.93 9.40791 17.93 9.40651 17.93 9.4051C17.93 9.4037 17.93 9.40229 17.93 9.40089C17.93 9.39948 17.93 9.39807 17.93 9.39667C17.93 9.39526 17.93 9.39385 17.93 9.39245C17.93 9.39104 17.93 9.38963 17.93 9.38822C17.93 9.38682 17.93 9.38541 17.93 9.384C17.93 9.3826 17.93 9.38119 17.93 9.37978C17.93 9.37837 17.93 9.37696 17.93 9.37556C17.93 9.37415 17.93 9.37274 17.93 9.37133C17.93 9.36992 17.93 9.36851 17.93 9.3671C17.93 9.36569 17.93 9.36428 17.93 9.36287C17.93 9.36146 17.93 9.36005 17.93 9.35864C17.93 9.35723 17.93 9.35582 17.93 9.35441C17.93 9.353 17.93 9.35159 17.93 9.35018C17.93 9.34877 17.93 9.34736 17.93 9.34595C17.93 9.34454 17.93 9.34313 17.93 9.34172C17.93 9.34031 17.93 9.33889 17.93 9.33748C17.93 9.33607 17.93 9.33466 17.93 9.33325C17.93 9.33183 17.93 9.33042 17.93 9.32901C17.93 9.3276 17.93 9.32618 17.93 9.32477C17.93 9.32336 17.93 9.32195 17.93 9.32053C17.93 9.31912 17.93 9.31771 17.93 9.31629C17.93 9.31488 17.93 9.31346 17.93 9.31205C17.93 9.31064 17.93 9.30922 17.93 9.30781C17.93 9.30639 17.93 9.30498 17.93 9.30356C17.93 9.30215 17.93 9.30073 17.93 9.29932C17.93 9.2979 17.93 9.29649 17.93 9.29507C17.93 9.29366 17.93 9.29224 17.93 9.29083C17.93 9.28941 17.93 9.28799 17.93 9.28658C17.93 9.28516 17.93 9.28374 17.93 9.28233C17.93 9.28091 17.93 9.27949 17.93 9.27808C17.93 9.27666 17.93 9.27524 17.93 9.27383C17.93 9.27241 17.93 9.27099 17.93 9.26957C17.93 9.26816 17.93 9.26674 17.93 9.26532C17.93 9.2639 17.93 9.26248 17.93 9.26106C17.93 9.25965 17.93 9.25823 17.93 9.25681C17.93 9.25539 17.93 9.25397 17.93 9.25255C17.93 9.25113 17.93 9.24971 17.93 9.24829C17.93 9.24687 17.93 9.24545 17.93 9.24403C17.93 9.24261 17.93 9.24119 17.93 9.23977C17.93 9.23835 17.93 9.23693 17.93 9.23551C17.93 9.23409 17.93 9.23267 17.93 9.23125C17.93 9.22983 17.93 9.2284 17.93 9.22698C17.93 9.22556 17.93 9.22414 17.93 9.22272C17.93 9.22129 17.93 9.21987 17.93 9.21845C17.93 9.21703 17.93 9.2156 17.93 9.21418C17.93 9.21276 17.93 9.21134 17.93 9.20991C17.93 9.20849 17.93 9.20707 17.93 9.20564C17.93 9.20422 17.93 9.2028 17.93 9.20137C17.93 9.19995 17.93 9.19852 17.93 9.1971C17.93 9.19568 17.93 9.19425 17.93 9.19283C17.93 9.1914 17.93 9.18998 17.93 9.18855C17.93 9.18713 17.93 9.1857 17.93 9.18428C17.93 9.18285 17.93 9.18143 17.93 9.18H14.93ZM14.93 11.23C14.93 14.2893 14.9282 16.2774 14.8068 17.5473L17.7932 17.8327C17.9318 16.3826 17.93 14.2107 17.93 11.23H14.93ZM14.8073 17.5426C14.7297 18.3282 14.6099 18.7081 14.5024 18.878L17.0376 20.482C17.5501 19.6719 17.7103 18.6718 17.7927 17.8374L14.8073 17.5426ZM14.5007 18.8808C14.473 18.9247 14.4515 18.9482 14.4402 18.959C14.43 18.9688 14.4267 18.9696 14.4292 18.9684L15.7708 21.6516C16.3425 21.3658 16.7535 20.9333 17.0394 20.4792L14.5007 18.8808ZM14.4292 18.9684C14.4056 18.9802 14.3476 19 14.24 19V22C14.6924 22 15.2344 21.9198 15.7708 21.6516L14.4292 18.9684ZM14.24 19C14.0894 19 13.7952 18.8939 13.2988 18.5532L11.6012 21.0268C12.1248 21.3861 13.0906 22 14.24 22V19ZM13.2935 18.5496C12.8777 18.2669 12.4278 17.8797 11.9162 17.4411L9.96381 19.7189C10.4322 20.1203 11.0223 20.6331 11.6065 21.0304L13.2935 18.5496ZM11.84 17.38C11.8608 17.3956 11.8745 17.4071 11.8773 17.4095C11.8794 17.4112 11.8796 17.4115 11.8678 17.4011C11.8596 17.394 11.8394 17.3762 11.8173 17.3576C11.7945 17.3383 11.7608 17.3106 11.72 17.28L9.92 19.68C9.89921 19.6644 9.88555 19.6529 9.88269 19.6505C9.88063 19.6488 9.88043 19.6485 9.89224 19.6589C9.90043 19.666 9.92063 19.6838 9.94269 19.7024C9.96555 19.7217 9.99921 19.7494 10.04 19.78L11.84 17.38ZM11.8048 17.3485C11.2461 16.8623 10.6703 16.3941 10.1121 16.0219L8.44795 18.5181C8.84965 18.7859 9.31393 19.1577 9.83521 19.6115L11.8048 17.3485ZM10.1063 16.0181C9.53584 15.6416 8.87982 15.32 8.2 15.32V18.32C8.12866 18.32 8.08218 18.3109 8.06642 18.3074C8.05017 18.3037 8.05503 18.3033 8.08334 18.3146C8.14287 18.3384 8.26387 18.3966 8.45374 18.5219L10.1063 16.0181ZM8.2 15.32C7.51004 15.32 6.84606 15.6644 6.31142 16.0066L7.92858 18.5334C8.12772 18.406 8.25664 18.3428 8.32503 18.315C8.35762 18.3018 8.36436 18.3016 8.34844 18.3054C8.33346 18.3089 8.28123 18.32 8.2 18.32V15.32ZM6.28795 16.0219C5.72623 16.3964 5.15649 16.8688 4.60552 17.3397L6.55448 19.6203C7.10351 19.1512 7.55377 18.7836 7.95205 18.5181L6.28795 16.0219ZM4.68 17.28C4.63921 17.3106 4.60555 17.3383 4.58269 17.3576C4.56063 17.3762 4.54043 17.394 4.53224 17.4011C4.52043 17.4115 4.52063 17.4112 4.52269 17.4095C4.52555 17.4071 4.53921 17.3956 4.56 17.38L6.36 19.78C6.40079 19.7494 6.43445 19.7217 6.45731 19.7024C6.47937 19.6838 6.49957 19.666 6.50776 19.6589C6.51957 19.6485 6.51937 19.6488 6.51731 19.6505C6.51445 19.6529 6.50079 19.6644 6.48 19.68L4.68 17.28ZM4.48381 17.4411C3.98424 17.8693 3.51154 18.2685 3.09488 18.5576L4.80512 21.0224C5.36846 20.6315 5.95576 20.1307 6.43619 19.7189L4.48381 17.4411ZM3.10124 18.5532C2.60483 18.8939 2.31055 19 2.16 19V22C3.30945 22 4.27517 21.3861 4.79876 21.0268L3.10124 18.5532ZM2.16 19C2.05237 19 1.99445 18.9802 1.97082 18.9684L0.62918 21.6516C1.16555 21.9198 1.70763 22 2.16 22V19ZM1.98913 18.9777C1.97408 18.9699 1.96283 18.9616 1.95225 18.9515C1.94105 18.9408 1.92546 18.9231 1.90749 18.8939L-0.647487 20.4661C-0.360443 20.9326 0.0533104 21.3539 0.610866 21.6423L1.98913 18.9777ZM1.89762 18.878C1.79012 18.7081 1.67033 18.3282 1.59274 17.5426L-1.39274 17.8374C-1.31033 18.6718 -1.15012 19.6719 -0.637618 20.482L1.89762 18.878ZM1.59596 17.58C1.50107 16.2895 1.5 14.2803 1.5 11.23H-1.5C-1.5 14.2197 -1.50107 16.3705 -1.39596 17.8L1.59596 17.58ZM1.5 11.23C1.5 11.2287 1.5 11.2275 1.5 11.2262C1.5 11.225 1.5 11.2237 1.5 11.2225C1.5 11.2212 1.5 11.22 1.5 11.2187C1.5 11.2175 1.5 11.2162 1.5 11.215C1.5 11.2137 1.5 11.2125 1.5 11.2112C1.5 11.21 1.5 11.2087 1.5 11.2075C1.5 11.2062 1.5 11.205 1.5 11.2037C1.5 11.2025 1.5 11.2012 1.5 11.2C1.5 11.1987 1.5 11.1975 1.5 11.1962C1.5 11.195 1.5 11.1937 1.5 11.1925C1.5 11.1912 1.5 11.1899 1.5 11.1887C1.5 11.1874 1.5 11.1862 1.5 11.1849C1.5 11.1837 1.5 11.1824 1.5 11.1812C1.5 11.1799 1.5 11.1787 1.5 11.1774C1.5 11.1762 1.5 11.1749 1.5 11.1736C1.5 11.1724 1.5 11.1711 1.5 11.1699C1.5 11.1686 1.5 11.1674 1.5 11.1661C1.5 11.1649 1.5 11.1636 1.5 11.1624C1.5 11.1611 1.5 11.1598 1.5 11.1586C1.5 11.1573 1.5 11.1561 1.5 11.1548C1.5 11.1536 1.5 11.1523 1.5 11.151C1.5 11.1498 1.5 11.1485 1.5 11.1473C1.5 11.146 1.5 11.1448 1.5 11.1435C1.5 11.1422 1.5 11.141 1.5 11.1397C1.5 11.1385 1.5 11.1372 1.5 11.136C1.5 11.1347 1.5 11.1334 1.5 11.1322C1.5 11.1309 1.5 11.1297 1.5 11.1284C1.5 11.1272 1.5 11.1259 1.5 11.1246C1.5 11.1234 1.5 11.1221 1.5 11.1209C1.5 11.1196 1.5 11.1183 1.5 11.1171C1.5 11.1158 1.5 11.1146 1.5 11.1133C1.5 11.112 1.5 11.1108 1.5 11.1095C1.5 11.1083 1.5 11.107 1.5 11.1057C1.5 11.1045 1.5 11.1032 1.5 11.102C1.5 11.1007 1.5 11.0994 1.5 11.0982C1.5 11.0969 1.5 11.0957 1.5 11.0944C1.5 11.0931 1.5 11.0919 1.5 11.0906C1.5 11.0894 1.5 11.0881 1.5 11.0868C1.5 11.0856 1.5 11.0843 1.5 11.083C1.5 11.0818 1.5 11.0805 1.5 11.0793C1.5 11.078 1.5 11.0767 1.5 11.0755C1.5 11.0742 1.5 11.0729 1.5 11.0717C1.5 11.0704 1.5 11.0692 1.5 11.0679C1.5 11.0666 1.5 11.0654 1.5 11.0641C1.5 11.0628 1.5 11.0616 1.5 11.0603C1.5 11.0591 1.5 11.0578 1.5 11.0565C1.5 11.0553 1.5 11.054 1.5 11.0527C1.5 11.0515 1.5 11.0502 1.5 11.0489C1.5 11.0477 1.5 11.0464 1.5 11.0451C1.5 11.0439 1.5 11.0426 1.5 11.0413C1.5 11.0401 1.5 11.0388 1.5 11.0375C1.5 11.0363 1.5 11.035 1.5 11.0338C1.5 11.0325 1.5 11.0312 1.5 11.03C1.5 11.0287 1.5 11.0274 1.5 11.0262C1.5 11.0249 1.5 11.0236 1.5 11.0224C1.5 11.0211 1.5 11.0198 1.5 11.0186C1.5 11.0173 1.5 11.016 1.5 11.0147C1.5 11.0135 1.5 11.0122 1.5 11.0109C1.5 11.0097 1.5 11.0084 1.5 11.0071C1.5 11.0059 1.5 11.0046 1.5 11.0033C1.5 11.0021 1.5 11.0008 1.5 10.9995C1.5 10.9983 1.5 10.997 1.5 10.9957C1.5 10.9945 1.5 10.9932 1.5 10.9919C1.5 10.9906 1.5 10.9894 1.5 10.9881C1.5 10.9868 1.5 10.9856 1.5 10.9843C1.5 10.983 1.5 10.9818 1.5 10.9805C1.5 10.9792 1.5 10.9779 1.5 10.9767C1.5 10.9754 1.5 10.9741 1.5 10.9729C1.5 10.9716 1.5 10.9703 1.5 10.969C1.5 10.9678 1.5 10.9665 1.5 10.9652C1.5 10.964 1.5 10.9627 1.5 10.9614C1.5 10.9601 1.5 10.9589 1.5 10.9576C1.5 10.9563 1.5 10.9551 1.5 10.9538C1.5 10.9525 1.5 10.9512 1.5 10.95C1.5 10.9487 1.5 10.9474 1.5 10.9461C1.5 10.9449 1.5 10.9436 1.5 10.9423C1.5 10.941 1.5 10.9398 1.5 10.9385C1.5 10.9372 1.5 10.936 1.5 10.9347C1.5 10.9334 1.5 10.9321 1.5 10.9309C1.5 10.9296 1.5 10.9283 1.5 10.927C1.5 10.9258 1.5 10.9245 1.5 10.9232C1.5 10.9219 1.5 10.9207 1.5 10.9194C1.5 10.9181 1.5 10.9168 1.5 10.9156C1.5 10.9143 1.5 10.913 1.5 10.9117C1.5 10.9104 1.5 10.9092 1.5 10.9079C1.5 10.9066 1.5 10.9053 1.5 10.9041C1.5 10.9028 1.5 10.9015 1.5 10.9002C1.5 10.899 1.5 10.8977 1.5 10.8964C1.5 10.8951 1.5 10.8938 1.5 10.8926C1.5 10.8913 1.5 10.89 1.5 10.8887C1.5 10.8875 1.5 10.8862 1.5 10.8849C1.5 10.8836 1.5 10.8823 1.5 10.8811C1.5 10.8798 1.5 10.8785 1.5 10.8772C1.5 10.876 1.5 10.8747 1.5 10.8734C1.5 10.8721 1.5 10.8708 1.5 10.8696C1.5 10.8683 1.5 10.867 1.5 10.8657C1.5 10.8644 1.5 10.8632 1.5 10.8619C1.5 10.8606 1.5 10.8593 1.5 10.858C1.5 10.8568 1.5 10.8555 1.5 10.8542C1.5 10.8529 1.5 10.8516 1.5 10.8503C1.5 10.8491 1.5 10.8478 1.5 10.8465C1.5 10.8452 1.5 10.8439 1.5 10.8427C1.5 10.8414 1.5 10.8401 1.5 10.8388C1.5 10.8375 1.5 10.8362 1.5 10.835C1.5 10.8337 1.5 10.8324 1.5 10.8311C1.5 10.8298 1.5 10.8286 1.5 10.8273C1.5 10.826 1.5 10.8247 1.5 10.8234C1.5 10.8221 1.5 10.8209 1.5 10.8196C1.5 10.8183 1.5 10.817 1.5 10.8157C1.5 10.8144 1.5 10.8131 1.5 10.8119C1.5 10.8106 1.5 10.8093 1.5 10.808C1.5 10.8067 1.5 10.8054 1.5 10.8042C1.5 10.8029 1.5 10.8016 1.5 10.8003C1.5 10.799 1.5 10.7977 1.5 10.7964C1.5 10.7952 1.5 10.7939 1.5 10.7926C1.5 10.7913 1.5 10.79 1.5 10.7887C1.5 10.7874 1.5 10.7862 1.5 10.7849C1.5 10.7836 1.5 10.7823 1.5 10.781C1.5 10.7797 1.5 10.7784 1.5 10.7771C1.5 10.7759 1.5 10.7746 1.5 10.7733C1.5 10.772 1.5 10.7707 1.5 10.7694C1.5 10.7681 1.5 10.7668 1.5 10.7656C1.5 10.7643 1.5 10.763 1.5 10.7617C1.5 10.7604 1.5 10.7591 1.5 10.7578C1.5 10.7565 1.5 10.7552 1.5 10.754C1.5 10.7527 1.5 10.7514 1.5 10.7501C1.5 10.7488 1.5 10.7475 1.5 10.7462C1.5 10.7449 1.5 10.7436 1.5 10.7423C1.5 10.7411 1.5 10.7398 1.5 10.7385C1.5 10.7372 1.5 10.7359 1.5 10.7346C1.5 10.7333 1.5 10.732 1.5 10.7307C1.5 10.7294 1.5 10.7281 1.5 10.7269C1.5 10.7256 1.5 10.7243 1.5 10.723C1.5 10.7217 1.5 10.7204 1.5 10.7191C1.5 10.7178 1.5 10.7165 1.5 10.7152C1.5 10.7139 1.5 10.7126 1.5 10.7113C1.5 10.7101 1.5 10.7088 1.5 10.7075C1.5 10.7062 1.5 10.7049 1.5 10.7036C1.5 10.7023 1.5 10.701 1.5 10.6997C1.5 10.6984 1.5 10.6971 1.5 10.6958C1.5 10.6945 1.5 10.6932 1.5 10.6919C1.5 10.6906 1.5 10.6894 1.5 10.6881C1.5 10.6868 1.5 10.6855 1.5 10.6842C1.5 10.6829 1.5 10.6816 1.5 10.6803C1.5 10.679 1.5 10.6777 1.5 10.6764C1.5 10.6751 1.5 10.6738 1.5 10.6725C1.5 10.6712 1.5 10.6699 1.5 10.6686C1.5 10.6673 1.5 10.666 1.5 10.6647C1.5 10.6634 1.5 10.6621 1.5 10.6608C1.5 10.6595 1.5 10.6582 1.5 10.6569C1.5 10.6557 1.5 10.6544 1.5 10.6531C1.5 10.6518 1.5 10.6505 1.5 10.6492C1.5 10.6479 1.5 10.6466 1.5 10.6453C1.5 10.644 1.5 10.6427 1.5 10.6414C1.5 10.6401 1.5 10.6388 1.5 10.6375C1.5 10.6362 1.5 10.6349 1.5 10.6336C1.5 10.6323 1.5 10.631 1.5 10.6297C1.5 10.6284 1.5 10.6271 1.5 10.6258C1.5 10.6245 1.5 10.6232 1.5 10.6219C1.5 10.6206 1.5 10.6193 1.5 10.618C1.5 10.6167 1.5 10.6154 1.5 10.6141C1.5 10.6128 1.5 10.6115 1.5 10.6102C1.5 10.6089 1.5 10.6076 1.5 10.6063C1.5 10.605 1.5 10.6037 1.5 10.6024C1.5 10.6011 1.5 10.5998 1.5 10.5985C1.5 10.5971 1.5 10.5958 1.5 10.5945C1.5 10.5932 1.5 10.5919 1.5 10.5906C1.5 10.5893 1.5 10.588 1.5 10.5867C1.5 10.5854 1.5 10.5841 1.5 10.5828C1.5 10.5815 1.5 10.5802 1.5 10.5789C1.5 10.5776 1.5 10.5763 1.5 10.575C1.5 10.5737 1.5 10.5724 1.5 10.5711C1.5 10.5698 1.5 10.5685 1.5 10.5672C1.5 10.5659 1.5 10.5646 1.5 10.5632C1.5 10.5619 1.5 10.5606 1.5 10.5593C1.5 10.558 1.5 10.5567 1.5 10.5554C1.5 10.5541 1.5 10.5528 1.5 10.5515C1.5 10.5502 1.5 10.5489 1.5 10.5476C1.5 10.5463 1.5 10.545 1.5 10.5437C1.5 10.5423 1.5 10.541 1.5 10.5397C1.5 10.5384 1.5 10.5371 1.5 10.5358C1.5 10.5345 1.5 10.5332 1.5 10.5319C1.5 10.5306 1.5 10.5293 1.5 10.528C1.5 10.5267 1.5 10.5253 1.5 10.524C1.5 10.5227 1.5 10.5214 1.5 10.5201C1.5 10.5188 1.5 10.5175 1.5 10.5162C1.5 10.5149 1.5 10.5136 1.5 10.5123C1.5 10.5109 1.5 10.5096 1.5 10.5083C1.5 10.507 1.5 10.5057 1.5 10.5044C1.5 10.5031 1.5 10.5018 1.5 10.5005C1.5 10.4992 1.5 10.4978 1.5 10.4965C1.5 10.4952 1.5 10.4939 1.5 10.4926C1.5 10.4913 1.5 10.49 1.5 10.4887C1.5 10.4874 1.5 10.486 1.5 10.4847C1.5 10.4834 1.5 10.4821 1.5 10.4808C1.5 10.4795 1.5 10.4782 1.5 10.4769C1.5 10.4755 1.5 10.4742 1.5 10.4729C1.5 10.4716 1.5 10.4703 1.5 10.469C1.5 10.4677 1.5 10.4663 1.5 10.465C1.5 10.4637 1.5 10.4624 1.5 10.4611C1.5 10.4598 1.5 10.4585 1.5 10.4572C1.5 10.4558 1.5 10.4545 1.5 10.4532C1.5 10.4519 1.5 10.4506 1.5 10.4493C1.5 10.4479 1.5 10.4466 1.5 10.4453C1.5 10.444 1.5 10.4427 1.5 10.4414C1.5 10.4401 1.5 10.4387 1.5 10.4374C1.5 10.4361 1.5 10.4348 1.5 10.4335C1.5 10.4322 1.5 10.4308 1.5 10.4295C1.5 10.4282 1.5 10.4269 1.5 10.4256C1.5 10.4243 1.5 10.4229 1.5 10.4216C1.5 10.4203 1.5 10.419 1.5 10.4177C1.5 10.4164 1.5 10.415 1.5 10.4137C1.5 10.4124 1.5 10.4111 1.5 10.4098C1.5 10.4084 1.5 10.4071 1.5 10.4058C1.5 10.4045 1.5 10.4032 1.5 10.4018C1.5 10.4005 1.5 10.3992 1.5 10.3979C1.5 10.3966 1.5 10.3953 1.5 10.3939C1.5 10.3926 1.5 10.3913 1.5 10.39C1.5 10.3887 1.5 10.3873 1.5 10.386C1.5 10.3847 1.5 10.3834 1.5 10.3821C1.5 10.3807 1.5 10.3794 1.5 10.3781C1.5 10.3768 1.5 10.3754 1.5 10.3741C1.5 10.3728 1.5 10.3715 1.5 10.3702C1.5 10.3688 1.5 10.3675 1.5 10.3662C1.5 10.3649 1.5 10.3635 1.5 10.3622C1.5 10.3609 1.5 10.3596 1.5 10.3583C1.5 10.3569 1.5 10.3556 1.5 10.3543C1.5 10.353 1.5 10.3516 1.5 10.3503C1.5 10.349 1.5 10.3477 1.5 10.3463C1.5 10.345 1.5 10.3437 1.5 10.3424C1.5 10.3411 1.5 10.3397 1.5 10.3384C1.5 10.3371 1.5 10.3358 1.5 10.3344C1.5 10.3331 1.5 10.3318 1.5 10.3305C1.5 10.3291 1.5 10.3278 1.5 10.3265C1.5 10.3252 1.5 10.3238 1.5 10.3225C1.5 10.3212 1.5 10.3199 1.5 10.3185C1.5 10.3172 1.5 10.3159 1.5 10.3145C1.5 10.3132 1.5 10.3119 1.5 10.3106C1.5 10.3092 1.5 10.3079 1.5 10.3066C1.5 10.3053 1.5 10.3039 1.5 10.3026C1.5 10.3013 1.5 10.2999 1.5 10.2986C1.5 10.2973 1.5 10.296 1.5 10.2946C1.5 10.2933 1.5 10.292 1.5 10.2907C1.5 10.2893 1.5 10.288 1.5 10.2867C1.5 10.2853 1.5 10.284 1.5 10.2827C1.5 10.2813 1.5 10.28 1.5 10.2787C1.5 10.2774 1.5 10.276 1.5 10.2747C1.5 10.2734 1.5 10.272 1.5 10.2707C1.5 10.2694 1.5 10.268 1.5 10.2667C1.5 10.2654 1.5 10.2641 1.5 10.2627C1.5 10.2614 1.5 10.2601 1.5 10.2587C1.5 10.2574 1.5 10.2561 1.5 10.2547C1.5 10.2534 1.5 10.2521 1.5 10.2507C1.5 10.2494 1.5 10.2481 1.5 10.2467C1.5 10.2454 1.5 10.2441 1.5 10.2427C1.5 10.2414 1.5 10.2401 1.5 10.2387C1.5 10.2374 1.5 10.2361 1.5 10.2348C1.5 10.2334 1.5 10.2321 1.5 10.2308C1.5 10.2294 1.5 10.2281 1.5 10.2267C1.5 10.2254 1.5 10.2241 1.5 10.2227C1.5 10.2214 1.5 10.2201 1.5 10.2187C1.5 10.2174 1.5 10.2161 1.5 10.2147C1.5 10.2134 1.5 10.2121 1.5 10.2107C1.5 10.2094 1.5 10.2081 1.5 10.2067C1.5 10.2054 1.5 10.2041 1.5 10.2027C1.5 10.2014 1.5 10.2 1.5 10.1987C1.5 10.1974 1.5 10.196 1.5 10.1947C1.5 10.1934 1.5 10.192 1.5 10.1907C1.5 10.1894 1.5 10.188 1.5 10.1867C1.5 10.1853 1.5 10.184 1.5 10.1827C1.5 10.1813 1.5 10.18 1.5 10.1786C1.5 10.1773 1.5 10.176 1.5 10.1746C1.5 10.1733 1.5 10.172 1.5 10.1706C1.5 10.1693 1.5 10.1679 1.5 10.1666C1.5 10.1653 1.5 10.1639 1.5 10.1626C1.5 10.1612 1.5 10.1599 1.5 10.1586C1.5 10.1572 1.5 10.1559 1.5 10.1545C1.5 10.1532 1.5 10.1519 1.5 10.1505C1.5 10.1492 1.5 10.1478 1.5 10.1465C1.5 10.1452 1.5 10.1438 1.5 10.1425C1.5 10.1411 1.5 10.1398 1.5 10.1385C1.5 10.1371 1.5 10.1358 1.5 10.1344C1.5 10.1331 1.5 10.1317 1.5 10.1304C1.5 10.1291 1.5 10.1277 1.5 10.1264C1.5 10.125 1.5 10.1237 1.5 10.1223C1.5 10.121 1.5 10.1197 1.5 10.1183C1.5 10.117 1.5 10.1156 1.5 10.1143C1.5 10.1129 1.5 10.1116 1.5 10.1103C1.5 10.1089 1.5 10.1076 1.5 10.1062C1.5 10.1049 1.5 10.1035 1.5 10.1022C1.5 10.1008 1.5 10.0995 1.5 10.0982C1.5 10.0968 1.5 10.0955 1.5 10.0941C1.5 10.0928 1.5 10.0914 1.5 10.0901C1.5 10.0887 1.5 10.0874 1.5 10.086C1.5 10.0847 1.5 10.0833 1.5 10.082C1.5 10.0807 1.5 10.0793 1.5 10.078C1.5 10.0766 1.5 10.0753 1.5 10.0739C1.5 10.0726 1.5 10.0712 1.5 10.0699C1.5 10.0685 1.5 10.0672 1.5 10.0658C1.5 10.0645 1.5 10.0631 1.5 10.0618C1.5 10.0604 1.5 10.0591 1.5 10.0577C1.5 10.0564 1.5 10.055 1.5 10.0537C1.5 10.0523 1.5 10.051 1.5 10.0497C1.5 10.0483 1.5 10.047 1.5 10.0456C1.5 10.0443 1.5 10.0429 1.5 10.0416C1.5 10.0402 1.5 10.0389 1.5 10.0375C1.5 10.0362 1.5 10.0348 1.5 10.0335C1.5 10.0321 1.5 10.0307 1.5 10.0294C1.5 10.028 1.5 10.0267 1.5 10.0253C1.5 10.024 1.5 10.0226 1.5 10.0213C1.5 10.0199 1.5 10.0186 1.5 10.0172C1.5 10.0159 1.5 10.0145 1.5 10.0132C1.5 10.0118 1.5 10.0105 1.5 10.0091C1.5 10.0078 1.5 10.0064 1.5 10.0051C1.5 10.0037 1.5 10.0024 1.5 10.001C1.5 9.99965 1.5 9.99829 1.5 9.99694C1.5 9.99558 1.5 9.99423 1.5 9.99288C1.5 9.99152 1.5 9.99017 1.5 9.98881C1.5 9.98746 1.5 9.9861 1.5 9.98475C1.5 9.98339 1.5 9.98204 1.5 9.98068C1.5 9.97933 1.5 9.97797 1.5 9.97662C1.5 9.97526 1.5 9.97391 1.5 9.97255C1.5 9.97119 1.5 9.96984 1.5 9.96848C1.5 9.96712 1.5 9.96577 1.5 9.96441C1.5 9.96305 1.5 9.9617 1.5 9.96034C1.5 9.95898 1.5 9.95763 1.5 9.95627C1.5 9.95491 1.5 9.95355 1.5 9.9522C1.5 9.95084 1.5 9.94948 1.5 9.94812C1.5 9.94676 1.5 9.94541 1.5 9.94405C1.5 9.94269 1.5 9.94133 1.5 9.93997C1.5 9.93861 1.5 9.93725 1.5 9.93589C1.5 9.93454 1.5 9.93318 1.5 9.93182C1.5 9.93046 1.5 9.9291 1.5 9.92774C1.5 9.92638 1.5 9.92502 1.5 9.92366C1.5 9.9223 1.5 9.92094 1.5 9.91958C1.5 9.91822 1.5 9.91685 1.5 9.91549C1.5 9.91413 1.5 9.91277 1.5 9.91141C1.5 9.91005 1.5 9.90869 1.5 9.90733C1.5 9.90596 1.5 9.9046 1.5 9.90324C1.5 9.90188 1.5 9.90052 1.5 9.89915C1.5 9.89779 1.5 9.89643 1.5 9.89507C1.5 9.8937 1.5 9.89234 1.5 9.89098C1.5 9.88962 1.5 9.88825 1.5 9.88689C1.5 9.88552 1.5 9.88416 1.5 9.8828C1.5 9.88143 1.5 9.88007 1.5 9.87871C1.5 9.87734 1.5 9.87598 1.5 9.87461C1.5 9.87325 1.5 9.87188 1.5 9.87052C1.5 9.86915 1.5 9.86779 1.5 9.86642C1.5 9.86506 1.5 9.86369 1.5 9.86233C1.5 9.86096 1.5 9.8596 1.5 9.85823C1.5 9.85686 1.5 9.8555 1.5 9.85413C1.5 9.85277 1.5 9.8514 1.5 9.85003C1.5 9.84867 1.5 9.8473 1.5 9.84593C1.5 9.84456 1.5 9.8432 1.5 9.84183C1.5 9.84046 1.5 9.8391 1.5 9.83773C1.5 9.83636 1.5 9.83499 1.5 9.83362C1.5 9.83226 1.5 9.83089 1.5 9.82952C1.5 9.82815 1.5 9.82678 1.5 9.82541C1.5 9.82404 1.5 9.82267 1.5 9.82131C1.5 9.81994 1.5 9.81857 1.5 9.8172C1.5 9.81583 1.5 9.81446 1.5 9.81309C1.5 9.81172 1.5 9.81035 1.5 9.80898C1.5 9.80761 1.5 9.80624 1.5 9.80487C1.5 9.8035 1.5 9.80213 1.5 9.80075C1.5 9.79938 1.5 9.79801 1.5 9.79664C1.5 9.79527 1.5 9.7939 1.5 9.79253C1.5 9.79116 1.5 9.78978 1.5 9.78841C1.5 9.78704 1.5 9.78567 1.5 9.7843C1.5 9.78292 1.5 9.78155 1.5 9.78018C1.5 9.7788 1.5 9.77743 1.5 9.77606C1.5 9.77468 1.5 9.77331 1.5 9.77194C1.5 9.77057 1.5 9.76919 1.5 9.76782C1.5 9.76644 1.5 9.76507 1.5 9.7637C1.5 9.76232 1.5 9.76095 1.5 9.75957C1.5 9.7582 1.5 9.75682 1.5 9.75545C1.5 9.75407 1.5 9.7527 1.5 9.75132C1.5 9.74995 1.5 9.74857 1.5 9.7472C1.5 9.74582 1.5 9.74444 1.5 9.74307C1.5 9.74169 1.5 9.74032 1.5 9.73894C1.5 9.73756 1.5 9.73619 1.5 9.73481C1.5 9.73343 1.5 9.73206 1.5 9.73068C1.5 9.7293 1.5 9.72793 1.5 9.72655C1.5 9.72517 1.5 9.72379 1.5 9.72241C1.5 9.72104 1.5 9.71966 1.5 9.71828C1.5 9.7169 1.5 9.71552 1.5 9.71415C1.5 9.71277 1.5 9.71139 1.5 9.71001C1.5 9.70863 1.5 9.70725 1.5 9.70587C1.5 9.70449 1.5 9.70311 1.5 9.70173C1.5 9.70035 1.5 9.69898 1.5 9.6976C1.5 9.69622 1.5 9.69483 1.5 9.69345C1.5 9.69207 1.5 9.69069 1.5 9.68931C1.5 9.68793 1.5 9.68655 1.5 9.68517C1.5 9.68379 1.5 9.68241 1.5 9.68103C1.5 9.67965 1.5 9.67826 1.5 9.67688C1.5 9.6755 1.5 9.67412 1.5 9.67274C1.5 9.67135 1.5 9.66997 1.5 9.66859C1.5 9.66721 1.5 9.66582 1.5 9.66444C1.5 9.66306 1.5 9.66167 1.5 9.66029C1.5 9.65891 1.5 9.65753 1.5 9.65614C1.5 9.65476 1.5 9.65337 1.5 9.65199C1.5 9.65061 1.5 9.64922 1.5 9.64784C1.5 9.64645 1.5 9.64507 1.5 9.64368C1.5 9.6423 1.5 9.64091 1.5 9.63953C1.5 9.63814 1.5 9.63676 1.5 9.63537C1.5 9.63399 1.5 9.6326 1.5 9.63122C1.5 9.62983 1.5 9.62844 1.5 9.62706C1.5 9.62567 1.5 9.62429 1.5 9.6229C1.5 9.62151 1.5 9.62013 1.5 9.61874C1.5 9.61735 1.5 9.61596 1.5 9.61458C1.5 9.61319 1.5 9.6118 1.5 9.61042C1.5 9.60903 1.5 9.60764 1.5 9.60625C1.5 9.60486 1.5 9.60348 1.5 9.60209C1.5 9.6007 1.5 9.59931 1.5 9.59792C1.5 9.59653 1.5 9.59514 1.5 9.59375C1.5 9.59237 1.5 9.59098 1.5 9.58959C1.5 9.5882 1.5 9.58681 1.5 9.58542C1.5 9.58403 1.5 9.58264 1.5 9.58125C1.5 9.57986 1.5 9.57847 1.5 9.57708C1.5 9.57569 1.5 9.5743 1.5 9.5729C1.5 9.57151 1.5 9.57012 1.5 9.56873C1.5 9.56734 1.5 9.56595 1.5 9.56456C1.5 9.56316 1.5 9.56177 1.5 9.56038C1.5 9.55899 1.5 9.5576 1.5 9.5562C1.5 9.55481 1.5 9.55342 1.5 9.55203C1.5 9.55063 1.5 9.54924 1.5 9.54785C1.5 9.54645 1.5 9.54506 1.5 9.54367C1.5 9.54227 1.5 9.54088 1.5 9.53949C1.5 9.53809 1.5 9.5367 1.5 9.5353C1.5 9.53391 1.5 9.53252 1.5 9.53112C1.5 9.52973 1.5 9.52833 1.5 9.52694C1.5 9.52554 1.5 9.52415 1.5 9.52275C1.5 9.52135 1.5 9.51996 1.5 9.51856C1.5 9.51717 1.5 9.51577 1.5 9.51438C1.5 9.51298 1.5 9.51158 1.5 9.51019C1.5 9.50879 1.5 9.50739 1.5 9.506C1.5 9.5046 1.5 9.5032 1.5 9.50181C1.5 9.50041 1.5 9.49901 1.5 9.49761C1.5 9.49622 1.5 9.49482 1.5 9.49342C1.5 9.49202 1.5 9.49062 1.5 9.48923C1.5 9.48783 1.5 9.48643 1.5 9.48503C1.5 9.48363 1.5 9.48223 1.5 9.48083C1.5 9.47943 1.5 9.47804 1.5 9.47664C1.5 9.47524 1.5 9.47384 1.5 9.47244C1.5 9.47104 1.5 9.46964 1.5 9.46824C1.5 9.46684 1.5 9.46544 1.5 9.46404C1.5 9.46264 1.5 9.46124 1.5 9.45983C1.5 9.45843 1.5 9.45703 1.5 9.45563C1.5 9.45423 1.5 9.45283 1.5 9.45143C1.5 9.45002 1.5 9.44862 1.5 9.44722C1.5 9.44582 1.5 9.44442 1.5 9.44301C1.5 9.44161 1.5 9.44021 1.5 9.43881C1.5 9.4374 1.5 9.436 1.5 9.4346C1.5 9.43319 1.5 9.43179 1.5 9.43039C1.5 9.42898 1.5 9.42758 1.5 9.42618C1.5 9.42477 1.5 9.42337 1.5 9.42196C1.5 9.42056 1.5 9.41916 1.5 9.41775C1.5 9.41635 1.5 9.41494 1.5 9.41354C1.5 9.41213 1.5 9.41073 1.5 9.40932C1.5 9.40791 1.5 9.40651 1.5 9.4051C1.5 9.4037 1.5 9.40229 1.5 9.40089C1.5 9.39948 1.5 9.39807 1.5 9.39667C1.5 9.39526 1.5 9.39385 1.5 9.39245C1.5 9.39104 1.5 9.38963 1.5 9.38822C1.5 9.38682 1.5 9.38541 1.5 9.384C1.5 9.3826 1.5 9.38119 1.5 9.37978C1.5 9.37837 1.5 9.37696 1.5 9.37556C1.5 9.37415 1.5 9.37274 1.5 9.37133C1.5 9.36992 1.5 9.36851 1.5 9.3671C1.5 9.36569 1.5 9.36428 1.5 9.36287C1.5 9.36146 1.5 9.36005 1.5 9.35864C1.5 9.35723 1.5 9.35582 1.5 9.35441C1.5 9.353 1.5 9.35159 1.5 9.35018C1.5 9.34877 1.5 9.34736 1.5 9.34595C1.5 9.34454 1.5 9.34313 1.5 9.34172C1.5 9.34031 1.5 9.33889 1.5 9.33748C1.5 9.33607 1.5 9.33466 1.5 9.33325C1.5 9.33183 1.5 9.33042 1.5 9.32901C1.5 9.3276 1.5 9.32618 1.5 9.32477C1.5 9.32336 1.5 9.32195 1.5 9.32053C1.5 9.31912 1.5 9.31771 1.5 9.31629C1.5 9.31488 1.5 9.31346 1.5 9.31205C1.5 9.31064 1.5 9.30922 1.5 9.30781C1.5 9.30639 1.5 9.30498 1.5 9.30356C1.5 9.30215 1.5 9.30073 1.5 9.29932C1.5 9.2979 1.5 9.29649 1.5 9.29507C1.5 9.29366 1.5 9.29224 1.5 9.29083C1.5 9.28941 1.5 9.28799 1.5 9.28658C1.5 9.28516 1.5 9.28374 1.5 9.28233C1.5 9.28091 1.5 9.27949 1.5 9.27808C1.5 9.27666 1.5 9.27524 1.5 9.27383C1.5 9.27241 1.5 9.27099 1.5 9.26957C1.5 9.26816 1.5 9.26674 1.5 9.26532C1.5 9.2639 1.5 9.26248 1.5 9.26106C1.5 9.25965 1.5 9.25823 1.5 9.25681C1.5 9.25539 1.5 9.25397 1.5 9.25255C1.5 9.25113 1.5 9.24971 1.5 9.24829C1.5 9.24687 1.5 9.24545 1.5 9.24403C1.5 9.24261 1.5 9.24119 1.5 9.23977C1.5 9.23835 1.5 9.23693 1.5 9.23551C1.5 9.23409 1.5 9.23267 1.5 9.23125C1.5 9.22983 1.5 9.2284 1.5 9.22698C1.5 9.22556 1.5 9.22414 1.5 9.22272C1.5 9.22129 1.5 9.21987 1.5 9.21845C1.5 9.21703 1.5 9.2156 1.5 9.21418C1.5 9.21276 1.5 9.21134 1.5 9.20991C1.5 9.20849 1.5 9.20707 1.5 9.20564C1.5 9.20422 1.5 9.2028 1.5 9.20137C1.5 9.19995 1.5 9.19852 1.5 9.1971C1.5 9.19568 1.5 9.19425 1.5 9.19283C1.5 9.1914 1.5 9.18998 1.5 9.18855C1.5 9.18713 1.5 9.1857 1.5 9.18428C1.5 9.18285 1.5 9.18143 1.5 9.18H-1.5C-1.5 9.18143 -1.5 9.18285 -1.5 9.18428C-1.5 9.1857 -1.5 9.18713 -1.5 9.18855C-1.5 9.18998 -1.5 9.1914 -1.5 9.19283C-1.5 9.19425 -1.5 9.19568 -1.5 9.1971C-1.5 9.19852 -1.5 9.19995 -1.5 9.20137C-1.5 9.2028 -1.5 9.20422 -1.5 9.20564C-1.5 9.20707 -1.5 9.20849 -1.5 9.20991C-1.5 9.21134 -1.5 9.21276 -1.5 9.21418C-1.5 9.2156 -1.5 9.21703 -1.5 9.21845C-1.5 9.21987 -1.5 9.22129 -1.5 9.22272C-1.5 9.22414 -1.5 9.22556 -1.5 9.22698C-1.5 9.2284 -1.5 9.22983 -1.5 9.23125C-1.5 9.23267 -1.5 9.23409 -1.5 9.23551C-1.5 9.23693 -1.5 9.23835 -1.5 9.23977C-1.5 9.24119 -1.5 9.24261 -1.5 9.24403C-1.5 9.24545 -1.5 9.24687 -1.5 9.24829C-1.5 9.24971 -1.5 9.25113 -1.5 9.25255C-1.5 9.25397 -1.5 9.25539 -1.5 9.25681C-1.5 9.25823 -1.5 9.25965 -1.5 9.26106C-1.5 9.26248 -1.5 9.2639 -1.5 9.26532C-1.5 9.26674 -1.5 9.26816 -1.5 9.26957C-1.5 9.27099 -1.5 9.27241 -1.5 9.27383C-1.5 9.27524 -1.5 9.27666 -1.5 9.27808C-1.5 9.27949 -1.5 9.28091 -1.5 9.28233C-1.5 9.28374 -1.5 9.28516 -1.5 9.28658C-1.5 9.28799 -1.5 9.28941 -1.5 9.29083C-1.5 9.29224 -1.5 9.29366 -1.5 9.29507C-1.5 9.29649 -1.5 9.2979 -1.5 9.29932C-1.5 9.30073 -1.5 9.30215 -1.5 9.30356C-1.5 9.30498 -1.5 9.30639 -1.5 9.30781C-1.5 9.30922 -1.5 9.31064 -1.5 9.31205C-1.5 9.31346 -1.5 9.31488 -1.5 9.31629C-1.5 9.31771 -1.5 9.31912 -1.5 9.32053C-1.5 9.32195 -1.5 9.32336 -1.5 9.32477C-1.5 9.32618 -1.5 9.3276 -1.5 9.32901C-1.5 9.33042 -1.5 9.33183 -1.5 9.33325C-1.5 9.33466 -1.5 9.33607 -1.5 9.33748C-1.5 9.33889 -1.5 9.34031 -1.5 9.34172C-1.5 9.34313 -1.5 9.34454 -1.5 9.34595C-1.5 9.34736 -1.5 9.34877 -1.5 9.35018C-1.5 9.35159 -1.5 9.353 -1.5 9.35441C-1.5 9.35582 -1.5 9.35723 -1.5 9.35864C-1.5 9.36005 -1.5 9.36146 -1.5 9.36287C-1.5 9.36428 -1.5 9.36569 -1.5 9.3671C-1.5 9.36851 -1.5 9.36992 -1.5 9.37133C-1.5 9.37274 -1.5 9.37415 -1.5 9.37556C-1.5 9.37696 -1.5 9.37837 -1.5 9.37978C-1.5 9.38119 -1.5 9.3826 -1.5 9.384C-1.5 9.38541 -1.5 9.38682 -1.5 9.38822C-1.5 9.38963 -1.5 9.39104 -1.5 9.39245C-1.5 9.39385 -1.5 9.39526 -1.5 9.39667C-1.5 9.39807 -1.5 9.39948 -1.5 9.40089C-1.5 9.40229 -1.5 9.4037 -1.5 9.4051C-1.5 9.40651 -1.5 9.40791 -1.5 9.40932C-1.5 9.41073 -1.5 9.41213 -1.5 9.41354C-1.5 9.41494 -1.5 9.41635 -1.5 9.41775C-1.5 9.41916 -1.5 9.42056 -1.5 9.42196C-1.5 9.42337 -1.5 9.42477 -1.5 9.42618C-1.5 9.42758 -1.5 9.42898 -1.5 9.43039C-1.5 9.43179 -1.5 9.43319 -1.5 9.4346C-1.5 9.436 -1.5 9.4374 -1.5 9.43881C-1.5 9.44021 -1.5 9.44161 -1.5 9.44301C-1.5 9.44442 -1.5 9.44582 -1.5 9.44722C-1.5 9.44862 -1.5 9.45002 -1.5 9.45143C-1.5 9.45283 -1.5 9.45423 -1.5 9.45563C-1.5 9.45703 -1.5 9.45843 -1.5 9.45983C-1.5 9.46124 -1.5 9.46264 -1.5 9.46404C-1.5 9.46544 -1.5 9.46684 -1.5 9.46824C-1.5 9.46964 -1.5 9.47104 -1.5 9.47244C-1.5 9.47384 -1.5 9.47524 -1.5 9.47664C-1.5 9.47804 -1.5 9.47943 -1.5 9.48083C-1.5 9.48223 -1.5 9.48363 -1.5 9.48503C-1.5 9.48643 -1.5 9.48783 -1.5 9.48923C-1.5 9.49062 -1.5 9.49202 -1.5 9.49342C-1.5 9.49482 -1.5 9.49622 -1.5 9.49761C-1.5 9.49901 -1.5 9.50041 -1.5 9.50181C-1.5 9.5032 -1.5 9.5046 -1.5 9.506C-1.5 9.50739 -1.5 9.50879 -1.5 9.51019C-1.5 9.51158 -1.5 9.51298 -1.5 9.51438C-1.5 9.51577 -1.5 9.51717 -1.5 9.51856C-1.5 9.51996 -1.5 9.52135 -1.5 9.52275C-1.5 9.52415 -1.5 9.52554 -1.5 9.52694C-1.5 9.52833 -1.5 9.52973 -1.5 9.53112C-1.5 9.53252 -1.5 9.53391 -1.5 9.5353C-1.5 9.5367 -1.5 9.53809 -1.5 9.53949C-1.5 9.54088 -1.5 9.54227 -1.5 9.54367C-1.5 9.54506 -1.5 9.54645 -1.5 9.54785C-1.5 9.54924 -1.5 9.55063 -1.5 9.55203C-1.5 9.55342 -1.5 9.55481 -1.5 9.5562C-1.5 9.5576 -1.5 9.55899 -1.5 9.56038C-1.5 9.56177 -1.5 9.56316 -1.5 9.56456C-1.5 9.56595 -1.5 9.56734 -1.5 9.56873C-1.5 9.57012 -1.5 9.57151 -1.5 9.5729C-1.5 9.5743 -1.5 9.57569 -1.5 9.57708C-1.5 9.57847 -1.5 9.57986 -1.5 9.58125C-1.5 9.58264 -1.5 9.58403 -1.5 9.58542C-1.5 9.58681 -1.5 9.5882 -1.5 9.58959C-1.5 9.59098 -1.5 9.59237 -1.5 9.59375C-1.5 9.59514 -1.5 9.59653 -1.5 9.59792C-1.5 9.59931 -1.5 9.6007 -1.5 9.60209C-1.5 9.60348 -1.5 9.60486 -1.5 9.60625C-1.5 9.60764 -1.5 9.60903 -1.5 9.61042C-1.5 9.6118 -1.5 9.61319 -1.5 9.61458C-1.5 9.61596 -1.5 9.61735 -1.5 9.61874C-1.5 9.62013 -1.5 9.62151 -1.5 9.6229C-1.5 9.62429 -1.5 9.62567 -1.5 9.62706C-1.5 9.62844 -1.5 9.62983 -1.5 9.63122C-1.5 9.6326 -1.5 9.63399 -1.5 9.63537C-1.5 9.63676 -1.5 9.63814 -1.5 9.63953C-1.5 9.64091 -1.5 9.6423 -1.5 9.64368C-1.5 9.64507 -1.5 9.64645 -1.5 9.64784C-1.5 9.64922 -1.5 9.65061 -1.5 9.65199C-1.5 9.65337 -1.5 9.65476 -1.5 9.65614C-1.5 9.65753 -1.5 9.65891 -1.5 9.66029C-1.5 9.66167 -1.5 9.66306 -1.5 9.66444C-1.5 9.66582 -1.5 9.66721 -1.5 9.66859C-1.5 9.66997 -1.5 9.67135 -1.5 9.67274C-1.5 9.67412 -1.5 9.6755 -1.5 9.67688C-1.5 9.67826 -1.5 9.67965 -1.5 9.68103C-1.5 9.68241 -1.5 9.68379 -1.5 9.68517C-1.5 9.68655 -1.5 9.68793 -1.5 9.68931C-1.5 9.69069 -1.5 9.69207 -1.5 9.69345C-1.5 9.69483 -1.5 9.69622 -1.5 9.6976C-1.5 9.69898 -1.5 9.70035 -1.5 9.70173C-1.5 9.70311 -1.5 9.70449 -1.5 9.70587C-1.5 9.70725 -1.5 9.70863 -1.5 9.71001C-1.5 9.71139 -1.5 9.71277 -1.5 9.71415C-1.5 9.71552 -1.5 9.7169 -1.5 9.71828C-1.5 9.71966 -1.5 9.72104 -1.5 9.72241C-1.5 9.72379 -1.5 9.72517 -1.5 9.72655C-1.5 9.72793 -1.5 9.7293 -1.5 9.73068C-1.5 9.73206 -1.5 9.73343 -1.5 9.73481C-1.5 9.73619 -1.5 9.73756 -1.5 9.73894C-1.5 9.74032 -1.5 9.74169 -1.5 9.74307C-1.5 9.74444 -1.5 9.74582 -1.5 9.7472C-1.5 9.74857 -1.5 9.74995 -1.5 9.75132C-1.5 9.7527 -1.5 9.75407 -1.5 9.75545C-1.5 9.75682 -1.5 9.7582 -1.5 9.75957C-1.5 9.76095 -1.5 9.76232 -1.5 9.7637C-1.5 9.76507 -1.5 9.76644 -1.5 9.76782C-1.5 9.76919 -1.5 9.77057 -1.5 9.77194C-1.5 9.77331 -1.5 9.77468 -1.5 9.77606C-1.5 9.77743 -1.5 9.7788 -1.5 9.78018C-1.5 9.78155 -1.5 9.78292 -1.5 9.7843C-1.5 9.78567 -1.5 9.78704 -1.5 9.78841C-1.5 9.78978 -1.5 9.79116 -1.5 9.79253C-1.5 9.7939 -1.5 9.79527 -1.5 9.79664C-1.5 9.79801 -1.5 9.79938 -1.5 9.80075C-1.5 9.80213 -1.5 9.8035 -1.5 9.80487C-1.5 9.80624 -1.5 9.80761 -1.5 9.80898C-1.5 9.81035 -1.5 9.81172 -1.5 9.81309C-1.5 9.81446 -1.5 9.81583 -1.5 9.8172C-1.5 9.81857 -1.5 9.81994 -1.5 9.82131C-1.5 9.82267 -1.5 9.82404 -1.5 9.82541C-1.5 9.82678 -1.5 9.82815 -1.5 9.82952C-1.5 9.83089 -1.5 9.83226 -1.5 9.83362C-1.5 9.83499 -1.5 9.83636 -1.5 9.83773C-1.5 9.8391 -1.5 9.84046 -1.5 9.84183C-1.5 9.8432 -1.5 9.84456 -1.5 9.84593C-1.5 9.8473 -1.5 9.84867 -1.5 9.85003C-1.5 9.8514 -1.5 9.85277 -1.5 9.85413C-1.5 9.8555 -1.5 9.85686 -1.5 9.85823C-1.5 9.8596 -1.5 9.86096 -1.5 9.86233C-1.5 9.86369 -1.5 9.86506 -1.5 9.86642C-1.5 9.86779 -1.5 9.86915 -1.5 9.87052C-1.5 9.87188 -1.5 9.87325 -1.5 9.87461C-1.5 9.87598 -1.5 9.87734 -1.5 9.87871C-1.5 9.88007 -1.5 9.88143 -1.5 9.8828C-1.5 9.88416 -1.5 9.88552 -1.5 9.88689C-1.5 9.88825 -1.5 9.88962 -1.5 9.89098C-1.5 9.89234 -1.5 9.8937 -1.5 9.89507C-1.5 9.89643 -1.5 9.89779 -1.5 9.89915C-1.5 9.90052 -1.5 9.90188 -1.5 9.90324C-1.5 9.9046 -1.5 9.90596 -1.5 9.90733C-1.5 9.90869 -1.5 9.91005 -1.5 9.91141C-1.5 9.91277 -1.5 9.91413 -1.5 9.91549C-1.5 9.91685 -1.5 9.91822 -1.5 9.91958C-1.5 9.92094 -1.5 9.9223 -1.5 9.92366C-1.5 9.92502 -1.5 9.92638 -1.5 9.92774C-1.5 9.9291 -1.5 9.93046 -1.5 9.93182C-1.5 9.93318 -1.5 9.93454 -1.5 9.93589C-1.5 9.93725 -1.5 9.93861 -1.5 9.93997C-1.5 9.94133 -1.5 9.94269 -1.5 9.94405C-1.5 9.94541 -1.5 9.94676 -1.5 9.94812C-1.5 9.94948 -1.5 9.95084 -1.5 9.9522C-1.5 9.95355 -1.5 9.95491 -1.5 9.95627C-1.5 9.95763 -1.5 9.95898 -1.5 9.96034C-1.5 9.9617 -1.5 9.96305 -1.5 9.96441C-1.5 9.96577 -1.5 9.96712 -1.5 9.96848C-1.5 9.96984 -1.5 9.97119 -1.5 9.97255C-1.5 9.97391 -1.5 9.97526 -1.5 9.97662C-1.5 9.97797 -1.5 9.97933 -1.5 9.98068C-1.5 9.98204 -1.5 9.98339 -1.5 9.98475C-1.5 9.9861 -1.5 9.98746 -1.5 9.98881C-1.5 9.99017 -1.5 9.99152 -1.5 9.99288C-1.5 9.99423 -1.5 9.99558 -1.5 9.99694C-1.5 9.99829 -1.5 9.99965 -1.5 10.001C-1.5 10.0024 -1.5 10.0037 -1.5 10.0051C-1.5 10.0064 -1.5 10.0078 -1.5 10.0091C-1.5 10.0105 -1.5 10.0118 -1.5 10.0132C-1.5 10.0145 -1.5 10.0159 -1.5 10.0172C-1.5 10.0186 -1.5 10.0199 -1.5 10.0213C-1.5 10.0226 -1.5 10.024 -1.5 10.0253C-1.5 10.0267 -1.5 10.028 -1.5 10.0294C-1.5 10.0307 -1.5 10.0321 -1.5 10.0335C-1.5 10.0348 -1.5 10.0362 -1.5 10.0375C-1.5 10.0389 -1.5 10.0402 -1.5 10.0416C-1.5 10.0429 -1.5 10.0443 -1.5 10.0456C-1.5 10.047 -1.5 10.0483 -1.5 10.0497C-1.5 10.051 -1.5 10.0523 -1.5 10.0537C-1.5 10.055 -1.5 10.0564 -1.5 10.0577C-1.5 10.0591 -1.5 10.0604 -1.5 10.0618C-1.5 10.0631 -1.5 10.0645 -1.5 10.0658C-1.5 10.0672 -1.5 10.0685 -1.5 10.0699C-1.5 10.0712 -1.5 10.0726 -1.5 10.0739C-1.5 10.0753 -1.5 10.0766 -1.5 10.078C-1.5 10.0793 -1.5 10.0807 -1.5 10.082C-1.5 10.0833 -1.5 10.0847 -1.5 10.086C-1.5 10.0874 -1.5 10.0887 -1.5 10.0901C-1.5 10.0914 -1.5 10.0928 -1.5 10.0941C-1.5 10.0955 -1.5 10.0968 -1.5 10.0982C-1.5 10.0995 -1.5 10.1008 -1.5 10.1022C-1.5 10.1035 -1.5 10.1049 -1.5 10.1062C-1.5 10.1076 -1.5 10.1089 -1.5 10.1103C-1.5 10.1116 -1.5 10.1129 -1.5 10.1143C-1.5 10.1156 -1.5 10.117 -1.5 10.1183C-1.5 10.1197 -1.5 10.121 -1.5 10.1223C-1.5 10.1237 -1.5 10.125 -1.5 10.1264C-1.5 10.1277 -1.5 10.1291 -1.5 10.1304C-1.5 10.1317 -1.5 10.1331 -1.5 10.1344C-1.5 10.1358 -1.5 10.1371 -1.5 10.1385C-1.5 10.1398 -1.5 10.1411 -1.5 10.1425C-1.5 10.1438 -1.5 10.1452 -1.5 10.1465C-1.5 10.1478 -1.5 10.1492 -1.5 10.1505C-1.5 10.1519 -1.5 10.1532 -1.5 10.1545C-1.5 10.1559 -1.5 10.1572 -1.5 10.1586C-1.5 10.1599 -1.5 10.1612 -1.5 10.1626C-1.5 10.1639 -1.5 10.1653 -1.5 10.1666C-1.5 10.1679 -1.5 10.1693 -1.5 10.1706C-1.5 10.172 -1.5 10.1733 -1.5 10.1746C-1.5 10.176 -1.5 10.1773 -1.5 10.1786C-1.5 10.18 -1.5 10.1813 -1.5 10.1827C-1.5 10.184 -1.5 10.1853 -1.5 10.1867C-1.5 10.188 -1.5 10.1894 -1.5 10.1907C-1.5 10.192 -1.5 10.1934 -1.5 10.1947C-1.5 10.196 -1.5 10.1974 -1.5 10.1987C-1.5 10.2 -1.5 10.2014 -1.5 10.2027C-1.5 10.2041 -1.5 10.2054 -1.5 10.2067C-1.5 10.2081 -1.5 10.2094 -1.5 10.2107C-1.5 10.2121 -1.5 10.2134 -1.5 10.2147C-1.5 10.2161 -1.5 10.2174 -1.5 10.2187C-1.5 10.2201 -1.5 10.2214 -1.5 10.2227C-1.5 10.2241 -1.5 10.2254 -1.5 10.2267C-1.5 10.2281 -1.5 10.2294 -1.5 10.2308C-1.5 10.2321 -1.5 10.2334 -1.5 10.2348C-1.5 10.2361 -1.5 10.2374 -1.5 10.2387C-1.5 10.2401 -1.5 10.2414 -1.5 10.2427C-1.5 10.2441 -1.5 10.2454 -1.5 10.2467C-1.5 10.2481 -1.5 10.2494 -1.5 10.2507C-1.5 10.2521 -1.5 10.2534 -1.5 10.2547C-1.5 10.2561 -1.5 10.2574 -1.5 10.2587C-1.5 10.2601 -1.5 10.2614 -1.5 10.2627C-1.5 10.2641 -1.5 10.2654 -1.5 10.2667C-1.5 10.268 -1.5 10.2694 -1.5 10.2707C-1.5 10.272 -1.5 10.2734 -1.5 10.2747C-1.5 10.276 -1.5 10.2774 -1.5 10.2787C-1.5 10.28 -1.5 10.2813 -1.5 10.2827C-1.5 10.284 -1.5 10.2853 -1.5 10.2867C-1.5 10.288 -1.5 10.2893 -1.5 10.2907C-1.5 10.292 -1.5 10.2933 -1.5 10.2946C-1.5 10.296 -1.5 10.2973 -1.5 10.2986C-1.5 10.2999 -1.5 10.3013 -1.5 10.3026C-1.5 10.3039 -1.5 10.3053 -1.5 10.3066C-1.5 10.3079 -1.5 10.3092 -1.5 10.3106C-1.5 10.3119 -1.5 10.3132 -1.5 10.3145C-1.5 10.3159 -1.5 10.3172 -1.5 10.3185C-1.5 10.3199 -1.5 10.3212 -1.5 10.3225C-1.5 10.3238 -1.5 10.3252 -1.5 10.3265C-1.5 10.3278 -1.5 10.3291 -1.5 10.3305C-1.5 10.3318 -1.5 10.3331 -1.5 10.3344C-1.5 10.3358 -1.5 10.3371 -1.5 10.3384C-1.5 10.3397 -1.5 10.3411 -1.5 10.3424C-1.5 10.3437 -1.5 10.345 -1.5 10.3463C-1.5 10.3477 -1.5 10.349 -1.5 10.3503C-1.5 10.3516 -1.5 10.353 -1.5 10.3543C-1.5 10.3556 -1.5 10.3569 -1.5 10.3583C-1.5 10.3596 -1.5 10.3609 -1.5 10.3622C-1.5 10.3635 -1.5 10.3649 -1.5 10.3662C-1.5 10.3675 -1.5 10.3688 -1.5 10.3702C-1.5 10.3715 -1.5 10.3728 -1.5 10.3741C-1.5 10.3754 -1.5 10.3768 -1.5 10.3781C-1.5 10.3794 -1.5 10.3807 -1.5 10.3821C-1.5 10.3834 -1.5 10.3847 -1.5 10.386C-1.5 10.3873 -1.5 10.3887 -1.5 10.39C-1.5 10.3913 -1.5 10.3926 -1.5 10.3939C-1.5 10.3953 -1.5 10.3966 -1.5 10.3979C-1.5 10.3992 -1.5 10.4005 -1.5 10.4018C-1.5 10.4032 -1.5 10.4045 -1.5 10.4058C-1.5 10.4071 -1.5 10.4084 -1.5 10.4098C-1.5 10.4111 -1.5 10.4124 -1.5 10.4137C-1.5 10.415 -1.5 10.4164 -1.5 10.4177C-1.5 10.419 -1.5 10.4203 -1.5 10.4216C-1.5 10.4229 -1.5 10.4243 -1.5 10.4256C-1.5 10.4269 -1.5 10.4282 -1.5 10.4295C-1.5 10.4308 -1.5 10.4322 -1.5 10.4335C-1.5 10.4348 -1.5 10.4361 -1.5 10.4374C-1.5 10.4387 -1.5 10.4401 -1.5 10.4414C-1.5 10.4427 -1.5 10.444 -1.5 10.4453C-1.5 10.4466 -1.5 10.4479 -1.5 10.4493C-1.5 10.4506 -1.5 10.4519 -1.5 10.4532C-1.5 10.4545 -1.5 10.4558 -1.5 10.4572C-1.5 10.4585 -1.5 10.4598 -1.5 10.4611C-1.5 10.4624 -1.5 10.4637 -1.5 10.465C-1.5 10.4663 -1.5 10.4677 -1.5 10.469C-1.5 10.4703 -1.5 10.4716 -1.5 10.4729C-1.5 10.4742 -1.5 10.4755 -1.5 10.4769C-1.5 10.4782 -1.5 10.4795 -1.5 10.4808C-1.5 10.4821 -1.5 10.4834 -1.5 10.4847C-1.5 10.486 -1.5 10.4874 -1.5 10.4887C-1.5 10.49 -1.5 10.4913 -1.5 10.4926C-1.5 10.4939 -1.5 10.4952 -1.5 10.4965C-1.5 10.4978 -1.5 10.4992 -1.5 10.5005C-1.5 10.5018 -1.5 10.5031 -1.5 10.5044C-1.5 10.5057 -1.5 10.507 -1.5 10.5083C-1.5 10.5096 -1.5 10.5109 -1.5 10.5123C-1.5 10.5136 -1.5 10.5149 -1.5 10.5162C-1.5 10.5175 -1.5 10.5188 -1.5 10.5201C-1.5 10.5214 -1.5 10.5227 -1.5 10.524C-1.5 10.5253 -1.5 10.5267 -1.5 10.528C-1.5 10.5293 -1.5 10.5306 -1.5 10.5319C-1.5 10.5332 -1.5 10.5345 -1.5 10.5358C-1.5 10.5371 -1.5 10.5384 -1.5 10.5397C-1.5 10.541 -1.5 10.5423 -1.5 10.5437C-1.5 10.545 -1.5 10.5463 -1.5 10.5476C-1.5 10.5489 -1.5 10.5502 -1.5 10.5515C-1.5 10.5528 -1.5 10.5541 -1.5 10.5554C-1.5 10.5567 -1.5 10.558 -1.5 10.5593C-1.5 10.5606 -1.5 10.5619 -1.5 10.5632C-1.5 10.5646 -1.5 10.5659 -1.5 10.5672C-1.5 10.5685 -1.5 10.5698 -1.5 10.5711C-1.5 10.5724 -1.5 10.5737 -1.5 10.575C-1.5 10.5763 -1.5 10.5776 -1.5 10.5789C-1.5 10.5802 -1.5 10.5815 -1.5 10.5828C-1.5 10.5841 -1.5 10.5854 -1.5 10.5867C-1.5 10.588 -1.5 10.5893 -1.5 10.5906C-1.5 10.5919 -1.5 10.5932 -1.5 10.5945C-1.5 10.5958 -1.5 10.5971 -1.5 10.5985C-1.5 10.5998 -1.5 10.6011 -1.5 10.6024C-1.5 10.6037 -1.5 10.605 -1.5 10.6063C-1.5 10.6076 -1.5 10.6089 -1.5 10.6102C-1.5 10.6115 -1.5 10.6128 -1.5 10.6141C-1.5 10.6154 -1.5 10.6167 -1.5 10.618C-1.5 10.6193 -1.5 10.6206 -1.5 10.6219C-1.5 10.6232 -1.5 10.6245 -1.5 10.6258C-1.5 10.6271 -1.5 10.6284 -1.5 10.6297C-1.5 10.631 -1.5 10.6323 -1.5 10.6336C-1.5 10.6349 -1.5 10.6362 -1.5 10.6375C-1.5 10.6388 -1.5 10.6401 -1.5 10.6414C-1.5 10.6427 -1.5 10.644 -1.5 10.6453C-1.5 10.6466 -1.5 10.6479 -1.5 10.6492C-1.5 10.6505 -1.5 10.6518 -1.5 10.6531C-1.5 10.6544 -1.5 10.6557 -1.5 10.6569C-1.5 10.6582 -1.5 10.6595 -1.5 10.6608C-1.5 10.6621 -1.5 10.6634 -1.5 10.6647C-1.5 10.666 -1.5 10.6673 -1.5 10.6686C-1.5 10.6699 -1.5 10.6712 -1.5 10.6725C-1.5 10.6738 -1.5 10.6751 -1.5 10.6764C-1.5 10.6777 -1.5 10.679 -1.5 10.6803C-1.5 10.6816 -1.5 10.6829 -1.5 10.6842C-1.5 10.6855 -1.5 10.6868 -1.5 10.6881C-1.5 10.6894 -1.5 10.6906 -1.5 10.6919C-1.5 10.6932 -1.5 10.6945 -1.5 10.6958C-1.5 10.6971 -1.5 10.6984 -1.5 10.6997C-1.5 10.701 -1.5 10.7023 -1.5 10.7036C-1.5 10.7049 -1.5 10.7062 -1.5 10.7075C-1.5 10.7088 -1.5 10.7101 -1.5 10.7113C-1.5 10.7126 -1.5 10.7139 -1.5 10.7152C-1.5 10.7165 -1.5 10.7178 -1.5 10.7191C-1.5 10.7204 -1.5 10.7217 -1.5 10.723C-1.5 10.7243 -1.5 10.7256 -1.5 10.7269C-1.5 10.7281 -1.5 10.7294 -1.5 10.7307C-1.5 10.732 -1.5 10.7333 -1.5 10.7346C-1.5 10.7359 -1.5 10.7372 -1.5 10.7385C-1.5 10.7398 -1.5 10.7411 -1.5 10.7423C-1.5 10.7436 -1.5 10.7449 -1.5 10.7462C-1.5 10.7475 -1.5 10.7488 -1.5 10.7501C-1.5 10.7514 -1.5 10.7527 -1.5 10.754C-1.5 10.7552 -1.5 10.7565 -1.5 10.7578C-1.5 10.7591 -1.5 10.7604 -1.5 10.7617C-1.5 10.763 -1.5 10.7643 -1.5 10.7656C-1.5 10.7668 -1.5 10.7681 -1.5 10.7694C-1.5 10.7707 -1.5 10.772 -1.5 10.7733C-1.5 10.7746 -1.5 10.7759 -1.5 10.7771C-1.5 10.7784 -1.5 10.7797 -1.5 10.781C-1.5 10.7823 -1.5 10.7836 -1.5 10.7849C-1.5 10.7862 -1.5 10.7874 -1.5 10.7887C-1.5 10.79 -1.5 10.7913 -1.5 10.7926C-1.5 10.7939 -1.5 10.7952 -1.5 10.7964C-1.5 10.7977 -1.5 10.799 -1.5 10.8003C-1.5 10.8016 -1.5 10.8029 -1.5 10.8042C-1.5 10.8054 -1.5 10.8067 -1.5 10.808C-1.5 10.8093 -1.5 10.8106 -1.5 10.8119C-1.5 10.8131 -1.5 10.8144 -1.5 10.8157C-1.5 10.817 -1.5 10.8183 -1.5 10.8196C-1.5 10.8209 -1.5 10.8221 -1.5 10.8234C-1.5 10.8247 -1.5 10.826 -1.5 10.8273C-1.5 10.8286 -1.5 10.8298 -1.5 10.8311C-1.5 10.8324 -1.5 10.8337 -1.5 10.835C-1.5 10.8362 -1.5 10.8375 -1.5 10.8388C-1.5 10.8401 -1.5 10.8414 -1.5 10.8427C-1.5 10.8439 -1.5 10.8452 -1.5 10.8465C-1.5 10.8478 -1.5 10.8491 -1.5 10.8503C-1.5 10.8516 -1.5 10.8529 -1.5 10.8542C-1.5 10.8555 -1.5 10.8568 -1.5 10.858C-1.5 10.8593 -1.5 10.8606 -1.5 10.8619C-1.5 10.8632 -1.5 10.8644 -1.5 10.8657C-1.5 10.867 -1.5 10.8683 -1.5 10.8696C-1.5 10.8708 -1.5 10.8721 -1.5 10.8734C-1.5 10.8747 -1.5 10.876 -1.5 10.8772C-1.5 10.8785 -1.5 10.8798 -1.5 10.8811C-1.5 10.8823 -1.5 10.8836 -1.5 10.8849C-1.5 10.8862 -1.5 10.8875 -1.5 10.8887C-1.5 10.89 -1.5 10.8913 -1.5 10.8926C-1.5 10.8938 -1.5 10.8951 -1.5 10.8964C-1.5 10.8977 -1.5 10.899 -1.5 10.9002C-1.5 10.9015 -1.5 10.9028 -1.5 10.9041C-1.5 10.9053 -1.5 10.9066 -1.5 10.9079C-1.5 10.9092 -1.5 10.9104 -1.5 10.9117C-1.5 10.913 -1.5 10.9143 -1.5 10.9156C-1.5 10.9168 -1.5 10.9181 -1.5 10.9194C-1.5 10.9207 -1.5 10.9219 -1.5 10.9232C-1.5 10.9245 -1.5 10.9258 -1.5 10.927C-1.5 10.9283 -1.5 10.9296 -1.5 10.9309C-1.5 10.9321 -1.5 10.9334 -1.5 10.9347C-1.5 10.936 -1.5 10.9372 -1.5 10.9385C-1.5 10.9398 -1.5 10.941 -1.5 10.9423C-1.5 10.9436 -1.5 10.9449 -1.5 10.9461C-1.5 10.9474 -1.5 10.9487 -1.5 10.95C-1.5 10.9512 -1.5 10.9525 -1.5 10.9538C-1.5 10.9551 -1.5 10.9563 -1.5 10.9576C-1.5 10.9589 -1.5 10.9601 -1.5 10.9614C-1.5 10.9627 -1.5 10.964 -1.5 10.9652C-1.5 10.9665 -1.5 10.9678 -1.5 10.969C-1.5 10.9703 -1.5 10.9716 -1.5 10.9729C-1.5 10.9741 -1.5 10.9754 -1.5 10.9767C-1.5 10.9779 -1.5 10.9792 -1.5 10.9805C-1.5 10.9818 -1.5 10.983 -1.5 10.9843C-1.5 10.9856 -1.5 10.9868 -1.5 10.9881C-1.5 10.9894 -1.5 10.9906 -1.5 10.9919C-1.5 10.9932 -1.5 10.9945 -1.5 10.9957C-1.5 10.997 -1.5 10.9983 -1.5 10.9995C-1.5 11.0008 -1.5 11.0021 -1.5 11.0033C-1.5 11.0046 -1.5 11.0059 -1.5 11.0071C-1.5 11.0084 -1.5 11.0097 -1.5 11.0109C-1.5 11.0122 -1.5 11.0135 -1.5 11.0147C-1.5 11.016 -1.5 11.0173 -1.5 11.0186C-1.5 11.0198 -1.5 11.0211 -1.5 11.0224C-1.5 11.0236 -1.5 11.0249 -1.5 11.0262C-1.5 11.0274 -1.5 11.0287 -1.5 11.03C-1.5 11.0312 -1.5 11.0325 -1.5 11.0338C-1.5 11.035 -1.5 11.0363 -1.5 11.0375C-1.5 11.0388 -1.5 11.0401 -1.5 11.0413C-1.5 11.0426 -1.5 11.0439 -1.5 11.0451C-1.5 11.0464 -1.5 11.0477 -1.5 11.0489C-1.5 11.0502 -1.5 11.0515 -1.5 11.0527C-1.5 11.054 -1.5 11.0553 -1.5 11.0565C-1.5 11.0578 -1.5 11.0591 -1.5 11.0603C-1.5 11.0616 -1.5 11.0628 -1.5 11.0641C-1.5 11.0654 -1.5 11.0666 -1.5 11.0679C-1.5 11.0692 -1.5 11.0704 -1.5 11.0717C-1.5 11.0729 -1.5 11.0742 -1.5 11.0755C-1.5 11.0767 -1.5 11.078 -1.5 11.0793C-1.5 11.0805 -1.5 11.0818 -1.5 11.083C-1.5 11.0843 -1.5 11.0856 -1.5 11.0868C-1.5 11.0881 -1.5 11.0894 -1.5 11.0906C-1.5 11.0919 -1.5 11.0931 -1.5 11.0944C-1.5 11.0957 -1.5 11.0969 -1.5 11.0982C-1.5 11.0994 -1.5 11.1007 -1.5 11.102C-1.5 11.1032 -1.5 11.1045 -1.5 11.1057C-1.5 11.107 -1.5 11.1083 -1.5 11.1095C-1.5 11.1108 -1.5 11.112 -1.5 11.1133C-1.5 11.1146 -1.5 11.1158 -1.5 11.1171C-1.5 11.1183 -1.5 11.1196 -1.5 11.1209C-1.5 11.1221 -1.5 11.1234 -1.5 11.1246C-1.5 11.1259 -1.5 11.1272 -1.5 11.1284C-1.5 11.1297 -1.5 11.1309 -1.5 11.1322C-1.5 11.1334 -1.5 11.1347 -1.5 11.136C-1.5 11.1372 -1.5 11.1385 -1.5 11.1397C-1.5 11.141 -1.5 11.1422 -1.5 11.1435C-1.5 11.1448 -1.5 11.146 -1.5 11.1473C-1.5 11.1485 -1.5 11.1498 -1.5 11.151C-1.5 11.1523 -1.5 11.1536 -1.5 11.1548C-1.5 11.1561 -1.5 11.1573 -1.5 11.1586C-1.5 11.1598 -1.5 11.1611 -1.5 11.1624C-1.5 11.1636 -1.5 11.1649 -1.5 11.1661C-1.5 11.1674 -1.5 11.1686 -1.5 11.1699C-1.5 11.1711 -1.5 11.1724 -1.5 11.1736C-1.5 11.1749 -1.5 11.1762 -1.5 11.1774C-1.5 11.1787 -1.5 11.1799 -1.5 11.1812C-1.5 11.1824 -1.5 11.1837 -1.5 11.1849C-1.5 11.1862 -1.5 11.1874 -1.5 11.1887C-1.5 11.1899 -1.5 11.1912 -1.5 11.1925C-1.5 11.1937 -1.5 11.195 -1.5 11.1962C-1.5 11.1975 -1.5 11.1987 -1.5 11.2C-1.5 11.2012 -1.5 11.2025 -1.5 11.2037C-1.5 11.205 -1.5 11.2062 -1.5 11.2075C-1.5 11.2087 -1.5 11.21 -1.5 11.2112C-1.5 11.2125 -1.5 11.2137 -1.5 11.215C-1.5 11.2162 -1.5 11.2175 -1.5 11.2187C-1.5 11.22 -1.5 11.2212 -1.5 11.2225C-1.5 11.2237 -1.5 11.225 -1.5 11.2262C-1.5 11.2275 -1.5 11.2287 -1.5 11.23H1.5ZM1.5 9.18C1.5 7.31827 1.57086 5.90424 1.75791 4.8265L-1.19791 4.3135C-1.43086 5.65576 -1.5 7.28173 -1.5 9.18H1.5ZM1.75791 4.8265C1.94196 3.76602 2.24514 3.09565 2.64266 2.65597L0.417335 0.644029C-0.505145 1.66435 -0.961957 2.95398 -1.19791 4.3135L1.75791 4.8265ZM2.63449 2.66494C3.03342 2.23081 3.60434 1.93047 4.49677 1.75035L3.90323 -1.19035C2.61566 -0.930474 1.38658 -0.410809 0.425509 0.635062L2.63449 2.66494ZM4.2 1.78H4.21V-1.22H4.2V1.78Z" fill="#0064FF" mask="url(#path-1-inside-1_94_376)"/>
  <path fill-rule="evenodd" clip-rule="evenodd" d="M11.7275 7.92561C10.1341 7.33633 8.88021 6.08247 8.28747 4.48556L8.1073 4L7.92714 4.48556C7.3344 6.08247 6.08093 7.33633 4.4871 7.92561L4 8.10577L4.4871 8.28556C6.08093 8.87484 7.3344 10.1287 7.92714 11.726L8.1073 12.2112L8.28747 11.726C8.88021 10.1287 10.1341 8.87484 11.7275 8.28556L12.215 8.10577L11.7275 7.92561Z" fill="#0064FF"/>
</svg>