<svg width="24" height="24" viewBox="30.5 10 24 24" fill="none" xmlns="http://www.w3.org/2000/svg">
<g id="&#208;&#164;&#208;&#184;&#208;&#187;&#209;&#140;&#209;&#130;&#209;&#128;">
<g id="&#208;&#157;&#208;&#181;&#208;&#176;&#208;&#186;&#209;&#130;&#208;&#184;&#208;&#178;&#208;&#189;&#208;&#190;">
<g id="Filter">
<path id="Stroke-1" d="M41.33 25.5928H35.0293" stroke="#0064FF" stroke-width="1.5" stroke-linecap="round" stroke-linejoin="round"/>
<path id="Stroke-3" d="M44.1406 15.9004H50.4413" stroke="#0064FF" stroke-width="1.5" stroke-linecap="round" stroke-linejoin="round"/>
<path id="Stroke-5" fill-rule="evenodd" clip-rule="evenodd" d="M39.7263 15.8463C39.7263 14.5506 38.6681 13.5 37.3631 13.5C36.0582 13.5 35 14.5506 35 15.8463C35 17.1419 36.0582 18.1925 37.3631 18.1925C38.6681 18.1925 39.7263 17.1419 39.7263 15.8463Z" stroke="#0064FF" stroke-width="1.5" stroke-linecap="round" stroke-linejoin="round"/>
<path id="Stroke-7" fill-rule="evenodd" clip-rule="evenodd" d="M51.0002 25.5533C51.0002 24.2576 49.9429 23.207 48.6379 23.207C47.3321 23.207 46.2739 24.2576 46.2739 25.5533C46.2739 26.8489 47.3321 27.8995 48.6379 27.8995C49.9429 27.8995 51.0002 26.8489 51.0002 25.5533Z" stroke="#0064FF" stroke-width="1.5" stroke-linecap="round" stroke-linejoin="round"/>
</g>
</g>
</g>
</svg>
