<svg width="50" height="50" viewBox="0 0 50 50" fill="none" xmlns="http://www.w3.org/2000/svg">
<path d="M16.0099 15.3287C13.6422 14.2063 12.0049 11.7944 12.0049 9C12.0049 5.13401 15.1389 2 19.0049 2C22.8709 2 26.0049 5.13401 26.0049 9C26.0049 11.7944 24.3675 14.2063 21.9999 15.3287" stroke="#FF4633" stroke-width="2" stroke-miterlimit="10" stroke-linecap="round" stroke-linejoin="round"/>
<path d="M26.1357 16C27.9057 14.196 28.9997 11.727 28.9997 9C28.9997 6.273 27.9057 3.804 26.1357 2" stroke="#FF4633" stroke-width="2" stroke-miterlimit="10" stroke-linecap="round" stroke-linejoin="round"/>
<path d="M16 25C16 23.343 14.657 22 13 22C11.343 22 10 23.343 10 25V32C10 40.284 16.716 47 25 47C33.284 47 40 40.284 40 32V25C40 23.343 38.657 22 37 22C35.343 22 34 23.343 34 25V23C34 21.343 32.657 20 31 20C29.343 20 28 21.343 28 23V21C28 19.343 26.657 18 25 18C23.343 18 22 19.343 22 21V9C22 7.343 20.657 6 19 6C17.343 6 16 7.343 16 9V31V25Z" stroke="white" stroke-width="4" stroke-miterlimit="10" stroke-linecap="round" stroke-linejoin="round"/>
<path d="M11.864 2C10.094 3.804 9 6.273 9 9C9 11.727 10.094 14.196 11.864 16" stroke="#FF4633" stroke-width="2" stroke-miterlimit="10" stroke-linecap="round" stroke-linejoin="round"/>
</svg>
