<svg width="24" height="24" viewBox="-1.5 -1.5 24 24" fill="none" xmlns="http://www.w3.org/2000/svg">
<g id="Group 10">
<path id="Vector" d="M17.9698 5.34C16.4998 5.34 15.2998 4.14 15.2998 2.67C15.2998 1.2 16.4998 0 17.9698 0C19.4398 0 20.6398 1.2 20.6398 2.67C20.6398 4.14 19.4398 5.34 17.9698 5.34Z" fill="#0064FF"/>
<path id="Vector_2" d="M19.8 7.55999C19.74 7.14999 19.35 6.85999 18.95 6.92999C18.54 6.98999 18.26 7.36999 18.32 7.77999C18.45 8.61999 18.51 9.57999 18.51 10.7C18.51 11.06 18.51 11.4 18.49 11.73H17.23C16.96 11.73 16.7 11.73 16.43 11.73H15.94C15.67 11.73 15.4 11.73 15.13 11.72C13.71 11.68 12.67 12.25 11.91 13.48C10.89 15.15 8.97 15.15 7.98 13.48C7.24 12.23 6.18 11.69 4.77 11.72C4.46 11.72 4.15 11.72 3.84 11.72H1.53C1.52 11.39 1.51 11.05 1.51 10.69C1.5 4.18999 3.49 2.19999 10 2.19999C11.11 2.19999 12.05 2.25999 12.87 2.37999C13.29 2.43999 13.66 2.15999 13.72 1.74999C13.78 1.33999 13.5 0.959989 13.09 0.899989C12.19 0.769989 11.18 0.709989 10 0.709989C2.62 0.699989 0 3.31999 0 10.7C0 18.08 2.62 20.7 10 20.7C17.38 20.7 20 18.08 20 10.7C20 9.49999 19.93 8.46999 19.8 7.55999Z" fill="#0064FF"/>
</g>
</svg>
