<svg width="24" height="21" viewBox="-1 0 24 21" fill="none" xmlns="http://www.w3.org/2000/svg">
<path d="M19.8 7.60501C19.74 7.19501 19.35 6.90501 18.95 6.97501C18.54 7.03501 18.26 7.41501 18.32 7.82501C18.45 8.66501 18.51 9.62501 18.51 10.745C18.51 11.105 18.51 11.445 18.49 11.775H17.23C16.96 11.775 16.7 11.775 16.43 11.775H15.94C15.67 11.775 15.4 11.775 15.13 11.765C13.71 11.725 12.67 12.295 11.91 13.525C10.89 15.195 8.97 15.195 7.98 13.525C7.24 12.275 6.18 11.735 4.77 11.765C4.46 11.765 4.15 11.765 3.84 11.765H1.53C1.52 11.435 1.51 11.095 1.51 10.735C1.5 4.23501 3.49 2.24501 10 2.24501C11.11 2.24501 12.05 2.30501 12.87 2.42501C13.29 2.48501 13.66 2.20501 13.72 1.79501C13.78 1.38501 13.5 1.00501 13.09 0.945014C12.19 0.815014 11.18 0.755014 10 0.755014C2.62 0.745014 0 3.36501 0 10.745C0 18.125 2.62 20.745 10 20.745C17.38 20.745 20 18.125 20 10.745C20 9.54501 19.93 8.51501 19.8 7.60501Z" fill="#0064FF"/>
<path d="M16.3594 9.5C13.7394 9.5 11.6094 7.37 11.6094 4.75C11.6094 2.13 13.7394 0 16.3594 0C18.9794 0 21.1094 2.13 21.1094 4.75C21.1094 7.37 18.9794 9.5 16.3594 9.5ZM16.3594 1.5C14.5694 1.5 13.1094 2.96 13.1094 4.75C13.1094 6.54 14.5694 8 16.3594 8C18.1494 8 19.6094 6.54 19.6094 4.75C19.6094 2.96 18.1494 1.5 16.3594 1.5Z" fill="#0064FF"/>
<path d="M15.3593 6.49977C15.1093 6.49977 14.8593 6.36976 14.7193 6.13976C14.5093 5.77976 14.6193 5.31977 14.9793 5.10977L15.7393 4.64977C15.8193 4.59977 15.8593 4.51977 15.8593 4.43976V3.50977C15.8593 3.09977 16.1993 2.75977 16.6093 2.75977C17.0193 2.75977 17.3593 3.08977 17.3593 3.49977V4.42977C17.3593 5.03977 17.0293 5.61977 16.5093 5.92977L15.7393 6.38976C15.6293 6.46976 15.4893 6.49977 15.3593 6.49977Z" fill="#0064FF"/>
</svg>
