<svg width="40" height="40" viewBox="30 10 40 40" fill="none" xmlns="http://www.w3.org/2000/svg">
<g id="Group 821">
<g id="Group">
<path id="Vector" d="M62.6122 30.368H61.4033C61.3837 30.3693 61.3653 30.3777 61.3514 30.3916C61.3375 30.4055 61.3291 30.4239 61.3277 30.4435V34.2791C61.0637 34.3546 60.7989 34.3924 60.4971 34.3924C59.7037 34.3924 59.5149 34.1471 59.5149 33.0889V30.4435C59.5135 30.4239 59.5051 30.4055 59.4912 30.3916C59.4773 30.3777 59.4589 30.3693 59.4393 30.368H58.2313C58.2117 30.3693 58.1933 30.3777 58.1794 30.3916C58.1655 30.4055 58.1571 30.4239 58.1557 30.4435V33.2213C58.1557 34.9591 58.7411 35.6209 60.2326 35.6209C61.0824 35.6209 62.0455 35.3942 62.6122 35.1862C62.6309 35.1671 62.6495 35.1484 62.6495 35.1293V30.444C62.6873 30.4062 62.6495 30.3684 62.6122 30.3684V30.368ZM37.0064 30.3871H35.7789C35.7411 30.3871 35.7224 30.4058 35.7224 30.4435C35.5335 31.1991 35.1371 32.484 34.6082 33.8258L33.3811 30.4249C33.362 30.4058 33.3433 30.3871 33.3242 30.3871H32.078C32.0589 30.3871 32.0402 30.4058 32.0211 30.4249C32.0024 30.4435 32.0024 30.4626 32.0211 30.4813L33.8717 35.5453C33.7074 35.8914 33.531 36.2316 33.3429 36.5653C33.2109 36.792 33.0975 37.0186 32.9842 37.2644C32.9655 37.2835 32.9655 37.3022 32.9842 37.3213C33.0033 37.34 33.022 37.3591 33.0411 37.3591H34.3815C34.4006 37.3591 34.4384 37.34 34.4384 37.3213C34.7171 36.7769 34.9754 36.2223 35.2126 35.6586C36.0055 33.8066 36.6286 32.0684 37.1011 30.4813C37.1011 30.4626 37.1011 30.4435 37.082 30.4249C37.0442 30.3871 37.0255 30.3871 37.0064 30.3871ZM41.4064 34.2791C41.4058 34.2693 41.4016 34.26 41.3946 34.2531C41.3877 34.2461 41.3784 34.2419 41.3686 34.2413H41.3117C41.0095 34.3546 40.462 34.4302 40.0842 34.4302C39.2349 34.4302 38.838 34.2035 38.838 32.9191C38.838 31.8795 38.9704 31.4071 40.0842 31.4071C40.4055 31.4071 40.6886 31.4449 41.0664 31.5582C41.1042 31.5582 41.1229 31.5582 41.142 31.5204L41.6326 30.5382V30.4813C41.632 30.4715 41.6278 30.4622 41.6209 30.4553C41.6139 30.4483 41.6047 30.4442 41.5949 30.4435C41.0744 30.2854 40.5339 30.2026 39.99 30.1978C38.234 30.1978 37.4406 31.0293 37.4406 32.9C37.4406 34.7893 38.234 35.6395 39.99 35.6395C40.4242 35.6395 41.3117 35.5453 41.7273 35.3751C41.7651 35.356 41.7837 35.3182 41.7651 35.2804L41.4064 34.2791ZM52.906 30.3871H51.6789C51.6411 30.3871 51.622 30.4058 51.622 30.4435C51.4331 31.2182 51.0366 32.484 50.5077 33.8258L49.2806 30.4249C49.2615 30.4058 49.2429 30.3871 49.2237 30.3871H47.9775C47.9589 30.3871 47.9397 30.4058 47.9211 30.4249C47.902 30.4435 47.902 30.4626 47.9211 30.4813L49.7713 35.5453C49.607 35.8914 49.4305 36.2316 49.2424 36.5653C49.1104 36.792 48.9971 37.0186 48.8837 37.2644C48.8651 37.2835 48.8651 37.3022 48.8837 37.3213C48.9029 37.34 48.9215 37.3591 48.9406 37.3591H50.2811C50.3002 37.3591 50.338 37.34 50.338 37.3213C50.6167 36.7769 50.875 36.2223 51.1122 35.6586C51.8864 33.8066 52.5282 32.0684 53.0006 30.4813C53.0006 30.4626 53.0006 30.4435 52.9815 30.4249C52.9437 30.3871 52.9251 30.3871 52.906 30.3871ZM57.438 30.368H53.8691C53.8495 30.3693 53.831 30.3777 53.8172 30.3916C53.8033 30.4055 53.7949 30.4239 53.7935 30.4435V35.4129C53.7935 35.4506 53.8313 35.4884 53.8691 35.4884H55.078C55.1153 35.4884 55.1535 35.4506 55.1535 35.4129V31.5582H57.0224C57.0415 31.5582 57.0793 31.5395 57.0793 31.5204C57.2304 31.1804 57.3624 30.8213 57.5135 30.4626V30.4058C57.4757 30.3871 57.4571 30.368 57.438 30.368Z" fill="#0064FF"/>
<path id="Vector_2" d="M38.4391 22.7344C36.7018 22.7344 36.0222 23.49 36.0222 25.3984C36.0222 27.3447 36.7022 28.1007 38.4391 28.1007C40.1951 28.1007 40.8747 27.3447 40.8747 25.3984C40.8747 23.49 40.1951 22.7344 38.4391 22.7344ZM38.4391 27.0047C37.6462 27.0047 37.4004 26.7967 37.4004 25.4362C37.4004 24.0007 37.6649 23.8682 38.4391 23.8682C39.2324 23.8682 39.4969 24.0002 39.4969 25.4362C39.4969 26.778 39.2511 27.0047 38.4391 27.0047ZM45.7093 26.7967C45.7087 26.7869 45.7045 26.7776 45.6976 26.7707C45.6906 26.7637 45.6814 26.7595 45.6716 26.7589H45.6147C45.3124 26.8722 44.7649 26.9478 44.3876 26.9478C43.5378 26.9478 43.1409 26.7211 43.1409 25.4367C43.1409 24.3967 43.2542 23.9247 44.3876 23.9247C44.7084 23.9247 44.992 23.9624 45.3693 24.0758C45.4071 24.0758 45.4258 24.0758 45.4449 24.038L45.9356 23.0558V22.9989C45.9349 22.9891 45.9307 22.9798 45.9238 22.9729C45.9168 22.9659 45.9076 22.9617 45.8978 22.9611C45.3774 22.803 44.8371 22.7202 44.2933 22.7153C42.5369 22.7153 41.7436 23.5464 41.7436 25.4176C41.7436 27.3064 42.5369 28.1571 44.2929 28.1571C44.7271 28.1571 45.6147 28.0624 46.0302 27.8927C46.068 27.8736 46.0867 27.8358 46.068 27.798L45.7093 26.7967ZM32.0756 22.8856C32.056 22.8869 32.0375 22.8953 32.0236 22.9092C32.0097 22.9231 32.0013 22.9415 32 22.9611V27.93C32 27.9682 32.0378 28.0056 32.0756 28.0056H33.2844C33.3218 28.0056 33.36 27.9682 33.36 27.93V24.0758H35.2289C35.248 24.0758 35.2858 24.0571 35.2858 24.038C35.4369 23.698 35.5689 23.3389 35.72 22.9802V22.9233C35.7009 22.9042 35.6822 22.8856 35.6631 22.8856H32.0756Z" fill="#0064FF"/>
<path id="Vector_3" fill-rule="evenodd" clip-rule="evenodd" d="M68.255 34.96V34.8844C68.255 34.8467 68.255 34.7898 68.2741 34.752C68.3306 34.0529 68.3683 33.2027 68.4061 32.22V32.1444L68.4439 30.0284C68.4439 29.2916 68.4252 28.5733 68.4061 27.912V27.8364L68.2741 25.3049C68.2741 25.2667 68.2741 25.2102 68.255 25.1724V25.0969C68.255 25.0213 68.2363 24.9644 68.2363 24.8889V24.8133C68.1795 24.0764 68.1417 23.6231 68.123 23.5853C68.123 23.5098 68.1039 23.4342 68.1039 23.3773V23.3209C68.0878 23.1933 68.0626 23.0671 68.0283 22.9431C68.0283 22.924 68.0283 22.9049 68.0097 22.8862C67.6888 21.3556 66.839 19.6742 65.7812 18.408C65.3661 17.9169 64.9315 17.4822 64.4786 17.1422C62.7725 15.8843 61.0012 14.7175 59.1719 13.6467C56.3963 12.0027 53.9039 10.8689 53.583 10.7178C53.5639 10.7178 53.5639 10.6991 53.5639 10.6991C52.8275 10.3778 51.9399 10.1511 50.9772 10.0569C50.7883 10.0378 50.5995 10.0191 50.4106 10.0191C50.2403 10.0191 50.0706 10 49.9008 10H49.6363C48.3332 10.0191 47.1439 10.2644 46.1995 10.6991C46.0483 10.756 43.5372 11.908 40.6857 13.5711L40.5723 13.6276C38.7503 14.7166 36.9797 15.8894 35.2661 17.1422C34.5488 17.6711 33.9066 18.3511 33.3212 19.2204C33.1892 19.4284 33.1892 19.9196 33.7555 19.9196H35.2097C35.8328 19.9196 35.9839 19.5418 36.6826 19.0316C37.4568 18.4649 38.9861 17.3311 41.7808 15.6684C43.8012 14.4782 45.6897 13.552 46.5959 13.1173C46.615 13.1173 46.6337 13.0987 46.6528 13.0987C46.6528 13.0987 46.6715 13.0987 46.6715 13.08C46.6715 13.08 46.6906 13.08 46.6906 13.0609C46.7092 13.0609 46.7283 13.0422 46.7283 13.0422C46.747 13.0422 46.7661 13.0231 46.7848 13.0231C47.0115 12.9098 47.1626 12.8529 47.1626 12.8529C47.8048 12.5698 48.711 12.3809 49.6737 12.3618H50.0515C50.335 12.3618 50.6181 12.3809 50.8826 12.4187C51.4679 12.4942 51.9968 12.6076 52.431 12.7964C52.4688 12.8151 52.5252 12.8342 52.563 12.8529C54.4074 13.711 56.2098 14.6569 57.9639 15.6871C59.7185 16.7224 61.42 17.845 63.0621 19.0507C63.4208 19.3151 63.7799 19.6929 64.1199 20.1084C64.9692 21.2044 65.6679 22.6973 65.7812 23.8498C65.7812 23.8689 65.8381 24.3222 65.8946 25.0969C65.8946 25.1533 65.8946 25.1911 65.9137 25.248V25.3613C65.9137 25.4369 65.9323 25.4938 65.9323 25.5693V25.6449C65.9323 25.6827 65.9323 25.7391 65.9515 25.7769C65.9515 25.8716 65.9701 25.9658 65.9701 26.0604C65.9701 26.1173 65.9701 26.1738 65.9892 26.2307V26.2684C65.9892 26.344 65.9892 26.4004 66.0079 26.476V26.6271C66.1355 28.8804 66.1355 31.1382 66.0079 33.3916V33.5427C66.0079 33.6182 66.0079 33.6751 65.9892 33.7507V33.7884C65.9892 33.8449 65.9892 33.9018 65.9701 33.9582C65.9701 34.0529 65.9515 34.1476 65.9515 34.2418C65.9515 34.2987 65.9515 34.3364 65.9323 34.3742V34.4498C65.9323 34.5253 65.9137 34.5818 65.9137 34.6573V34.7711C65.9137 34.8276 65.9137 34.8844 65.8946 34.9222C65.8381 35.6969 65.7812 36.1689 65.7812 36.1689C65.6679 37.3218 64.9692 38.8142 64.1195 39.9102C63.7799 40.3449 63.4208 40.704 63.0621 40.968C63.0435 40.968 62.5523 41.3462 61.7403 41.9129C58.8621 43.9099 55.8169 45.6548 52.6386 47.128L52.563 47.1658C52.5252 47.1849 52.4688 47.2036 52.431 47.2227C51.9968 47.3924 51.4679 47.5249 50.8826 47.6004C50.6181 47.6382 50.335 47.6569 50.0515 47.6569H49.6737C48.711 47.6382 47.8048 47.468 47.1626 47.1658C47.1626 47.1658 47.0306 47.1093 46.7848 46.9956C46.7661 46.9769 46.7283 46.9769 46.7092 46.9578C46.6906 46.9391 46.6715 46.9391 46.6528 46.92C46.6337 46.92 46.6337 46.9013 46.615 46.9013C46.5959 46.9013 46.5772 46.8822 46.5586 46.8822C46.5395 46.8636 46.5208 46.8636 46.483 46.8444H46.4639C44.8612 46.0815 43.2923 45.2495 41.7617 44.3507C38.9483 42.7067 37.4377 41.5542 36.6639 40.9871C35.9648 40.4769 35.8137 40.0991 35.1906 40.0991H33.7555C33.1892 40.0991 33.1892 40.5907 33.3212 40.7791C33.9066 41.6489 34.5488 42.3289 35.2661 42.8578C35.3608 42.9333 37.6643 44.6338 40.5728 46.3533C40.7235 46.448 40.8746 46.5422 41.0443 46.6178C43.7448 48.1671 46.0675 49.2253 46.1999 49.3009C47.1248 49.7164 48.3332 49.9622 49.6177 50H49.8817C50.0519 50 50.2217 50 50.3915 49.9809C50.5803 49.9809 50.7692 49.9622 50.9581 49.9431C51.9212 49.8489 52.8275 49.6222 53.5448 49.3009C53.5448 49.3009 53.5639 49.3009 53.5639 49.2822C53.8848 49.1311 56.3772 47.9782 59.1532 46.3533C60.4836 45.5657 61.7873 44.7338 63.0621 43.8591L64.4595 42.8578C64.9128 42.5178 65.347 42.0831 65.7626 41.592C66.8203 40.3258 67.6697 38.6444 67.9906 37.1138C67.9906 37.0951 67.9906 37.076 68.0097 37.0573C68.0283 36.9249 68.0661 36.7924 68.0852 36.6796V36.6222C68.1039 36.5467 68.1039 36.4711 68.1039 36.4142C68.1039 36.3764 68.1608 35.9231 68.2172 35.1862V35.1107C68.255 35.0916 68.255 35.0164 68.255 34.96Z" fill="#0064FF"/>
<path id="Vector_4" d="M46.9539 30.3687H43.2526C43.2148 30.3687 43.1961 30.3878 43.177 30.4255C43.0828 32.1069 42.7619 33.902 42.3086 35.3758C42.3086 35.3944 42.3086 35.4135 42.3273 35.4322C42.3464 35.4513 42.365 35.4513 42.3841 35.4513H43.6495C43.6868 35.4513 43.7059 35.4322 43.7059 35.4135C44.0646 34.2802 44.3481 32.806 44.4615 31.5589H45.6699V35.3944C45.6699 35.4322 45.7077 35.47 45.7455 35.47H46.9539C46.9917 35.47 47.0295 35.4322 47.0295 35.3944V30.4255C47.0295 30.4064 46.9917 30.3687 46.9539 30.3687Z" fill="#0064FF"/>
</g>
</g>
</svg>
