<svg width="32" height="32" viewBox="0 0 32 32" fill="none" xmlns="http://www.w3.org/2000/svg">
<path d="M23.2535 20.4942C23.0002 20.4942 22.7468 20.4009 22.5468 20.2009C22.1602 19.8142 22.1602 19.1742 22.5468 18.7876L25.2535 16.0809L22.5468 13.3742C22.1602 12.9876 22.1602 12.3476 22.5468 11.9609C22.9335 11.5742 23.5735 11.5742 23.9602 11.9609L27.3735 15.3742C27.7602 15.7609 27.7602 16.4009 27.3735 16.7876L23.9602 20.2009C23.7602 20.4009 23.5068 20.4942 23.2535 20.4942Z" fill="#0064FF"/>
<path d="M26.5727 17.0791H13.0127C12.466 17.0791 12.0127 16.6258 12.0127 16.0791C12.0127 15.5324 12.466 15.0791 13.0127 15.0791H26.5727C27.1194 15.0791 27.5727 15.5324 27.5727 16.0791C27.5727 16.6258 27.1194 17.0791 26.5727 17.0791Z" fill="#0064FF"/>
<path d="M15.6794 27.6663C8.8127 27.6663 4.0127 22.8663 4.0127 15.9997C4.0127 9.13301 8.8127 4.33301 15.6794 4.33301C16.226 4.33301 16.6794 4.78634 16.6794 5.33301C16.6794 5.87967 16.226 6.33301 15.6794 6.33301C9.98603 6.33301 6.0127 10.3063 6.0127 15.9997C6.0127 21.693 9.98603 25.6663 15.6794 25.6663C16.226 25.6663 16.6794 26.1197 16.6794 26.6663C16.6794 27.213 16.226 27.6663 15.6794 27.6663Z" fill="#0064FF"/>
</svg>
