<svg width="32" height="32" viewBox="0 0 32 32" fill="none" xmlns="http://www.w3.org/2000/svg">
<path d="M12.25 14.5C12.25 14.0875 12.5875 13.75 13 13.75H19C19.4125 13.75 19.75 14.0875 19.75 14.5C19.75 14.9125 19.4125 15.25 19 15.25H13C12.5875 15.25 12.25 14.9125 12.25 14.5Z" fill="#0064FF"/>
<path d="M13 17.5C12.5875 17.5 12.25 17.8375 12.25 18.25C12.25 18.6625 12.5875 19 13 19H16C16.4125 19 16.75 18.6625 16.75 18.25C16.75 17.8375 16.4125 17.5 16 17.5H13Z" fill="#0064FF"/>
<path fill-rule="evenodd" clip-rule="evenodd" d="M16 5.5C10.2025 5.5 5.5 10.1725 5.5 15.9475C5.5 21.715 10.1575 26.5 15.97 26.5H25.75C25.9975 26.5 26.2225 26.38 26.365 26.1775C26.5075 25.975 26.5375 25.72 26.455 25.495L24.955 21.4075C25.9375 19.8175 26.5 17.95 26.5 15.9475C26.5 10.1725 21.7975 5.5 16 5.5ZM7 15.9475C7 11.0125 11.0275 7 16 7C20.9725 7 25 11.0125 25 15.9475C25 17.7775 24.445 19.48 23.5 20.8975C23.365 21.1 23.335 21.3475 23.4175 21.5725L24.6775 25H15.97C11.005 25 7 20.905 7 15.9475Z" fill="#0064FF"/>
</svg>
