<svg width="32" height="32" viewBox="-4 0 32 32" fill="none" xmlns="http://www.w3.org/2000/svg">
<path d="M14.0901 10.8247C14.2788 10.9844 14.5516 10.9486 14.6995 10.7449L15.038 10.2782L15.3766 10.7449C15.5254 10.9498 15.7986 10.9833 15.986 10.8247C16.1746 10.665 16.2077 10.3704 16.0599 10.1666L15.5618 9.48023C15.4349 9.30517 15.2439 9.20479 15.038 9.20479C14.8321 9.20479 14.6412 9.30517 14.5142 9.48023L14.0161 10.1666C13.8684 10.3704 13.9015 10.665 14.0901 10.8247ZM12.0425 15.532C12.35 15.5439 12.5787 15.686 12.6877 15.7697C12.8831 15.9196 13.1541 15.8701 13.2929 15.659C13.4317 15.4479 13.3859 15.1553 13.1904 15.0053C12.9606 14.829 12.5803 14.6147 12.0736 14.5952C11.4691 14.571 11.0228 14.842 10.8097 15.0051C10.6142 15.1548 10.5679 15.4473 10.7065 15.6586C10.8462 15.8714 11.1179 15.9183 11.3116 15.77C11.4353 15.6753 11.6949 15.5185 12.0425 15.532ZM9.48552 9.48023C9.35855 9.30517 9.16758 9.20479 8.96167 9.20479C8.75577 9.20479 8.56486 9.30517 8.43783 9.48023L7.9398 10.1666C7.79194 10.3704 7.82504 10.665 8.0137 10.8247C8.2023 10.9844 8.47516 10.9486 8.62302 10.7449L8.96162 10.2782L9.30021 10.7449C9.44894 10.9498 9.72215 10.9833 9.90953 10.8247C10.0982 10.665 10.1313 10.3704 9.98343 10.1666L9.48552 9.48023ZM20.5267 21.4457L15.5014 19.6192C15.1577 19.4944 14.9754 19.1301 15.0092 18.7491C17.4581 17.5075 19.1049 14.7296 19.095 11.8055V11.2209C20.0515 11.2309 20.8401 10.3974 20.8401 9.36017C20.8401 8.32586 20.0533 7.48561 19.095 7.49949V3.59374C19.095 1.61212 17.6023 0 15.7674 0H8.23233C6.3975 0 4.9048 1.61212 4.9048 3.59374V7.49955C3.94675 7.48811 3.15966 8.32417 3.15966 9.36023C3.15966 10.3942 3.9467 11.235 4.9048 11.2209V11.7274C4.9048 14.8182 6.57956 17.4961 8.99072 18.7351C9.02238 19.1136 8.84825 19.4963 8.49813 19.6195L3.4732 21.4458C1.88177 22.0243 0.8125 23.6312 0.8125 25.4443V31.5312C0.8125 31.7901 1.00683 31.9999 1.24653 31.9999C1.48623 31.9999 1.68055 31.7901 1.68055 31.5312V25.4443C1.68055 24.0341 2.51227 22.7842 3.75011 22.3342L7.18037 21.0875C8.08598 23.0605 9.93575 24.3125 11.9999 24.3125C14.064 24.3125 15.9138 23.0605 16.8194 21.0875L20.2498 22.3343C21.4877 22.7843 22.3194 24.0341 22.3194 25.4444V31.5313C22.3194 31.7902 22.5137 32 22.7534 32C22.9931 32 23.1875 31.7902 23.1875 31.5313V25.4444C23.1875 23.6312 22.1182 22.0243 20.5267 21.4457ZM19.095 8.43705C19.5725 8.41973 19.9721 8.84536 19.9721 9.36023C19.9721 9.87561 19.5743 10.2985 19.095 10.2834V8.43705ZM4.9048 10.2834C4.42575 10.2989 4.02771 9.87636 4.02771 9.36017C4.02771 8.84305 4.42586 8.42323 4.9048 8.43698V10.2834ZM5.77285 11.7274V8.43223C6.41995 8.41461 7.06636 8.35317 7.70016 8.24886C7.93714 8.20986 8.09999 7.9708 8.06387 7.71486C8.02776 7.45899 7.80658 7.2833 7.56943 7.32205C6.97875 7.41924 6.37626 7.47717 5.77291 7.49417V3.59374C5.77291 2.12906 6.8762 0.937498 8.23239 0.937498H15.7675C17.1237 0.937498 18.227 2.12906 18.227 3.59374V7.47724C17.6048 7.41924 16.8052 7.23324 15.9829 6.74036C15.3174 6.34149 14.742 5.80774 14.2724 5.15393C14.0225 4.80593 13.5618 4.72324 13.2236 4.96562C12.4308 5.53374 11.5839 6.01524 10.7066 6.3968C10.2998 6.5738 9.87996 6.73192 9.45884 6.8668C9.22898 6.94036 9.09796 7.20124 9.16607 7.44942C9.23419 7.69761 9.47562 7.83917 9.70554 7.76561C10.1528 7.62236 10.5988 7.45442 11.0309 7.26642C11.9375 6.87211 12.8132 6.37742 13.6352 5.79543C14.168 6.51955 14.8158 7.11305 15.5617 7.56005C16.5442 8.14892 17.4989 8.35905 18.2269 8.41805V11.8054C18.2359 15.4478 15.3714 18.5432 11.9779 18.5305C8.55641 18.5178 5.77285 15.4659 5.77285 11.7274ZM11.9999 23.375C10.3093 23.375 8.79055 22.3731 8.01289 20.785L8.77452 20.5081C9.35699 20.2972 9.76665 19.7473 9.84431 19.102C10.5169 19.3369 11.2327 19.4653 11.9749 19.4681C12.7261 19.4709 13.4596 19.3483 14.1565 19.1091C14.2363 19.7514 14.6451 20.298 15.225 20.508L15.9869 20.7849C15.2092 22.373 13.6905 23.375 11.9999 23.375Z" fill="#0064FF"/>
</svg>
