<svg width="32" height="32" viewBox="0 0 32 32" fill="none" xmlns="http://www.w3.org/2000/svg">
<g clip-path="url(#clip0_2055_8512)">
<path d="M14.5938 14.3564V16.2314H12.7188C12.2535 16.2314 11.875 16.6099 11.875 17.0752V18.2002C11.875 18.6654 12.2535 19.0439 12.7188 19.0439H14.5938V20.9189C14.5938 21.3842 14.9722 21.7627 15.4375 21.7627H16.5625C17.0278 21.7627 17.4062 21.3842 17.4062 20.9189V19.0439H19.2812C19.7465 19.0439 20.125 18.6654 20.125 18.2002V17.0752C20.125 16.6099 19.7465 16.2314 19.2812 16.2314H17.4062V14.3564C17.4062 13.8912 17.0278 13.5127 16.5625 13.5127H15.4375C14.9722 13.5127 14.5938 13.8912 14.5938 14.3564ZM15.5312 14.4502H16.4688V16.5127C16.4688 16.8746 16.7631 17.1689 17.125 17.1689H19.1875V18.1064H17.125C16.7631 18.1064 16.4688 18.4008 16.4688 18.7627V20.8252H15.5312V18.7627C15.5312 18.4008 15.2369 18.1064 14.875 18.1064H12.8125V17.1689H14.875C15.2369 17.1689 15.5312 16.8746 15.5312 16.5127V14.4502ZM10 17.6377C10 20.9461 12.6916 23.6377 16 23.6377C19.3084 23.6377 22 20.9461 22 17.6377C22 14.3293 19.3084 11.6377 16 11.6377C12.6916 11.6377 10 14.3293 10 17.6377ZM21.0625 17.6377C21.0625 20.4292 18.7915 22.7002 16 22.7002C13.2085 22.7002 10.9375 20.4292 10.9375 17.6377C10.9375 14.8462 13.2085 12.5752 16 12.5752C18.7915 12.5752 21.0625 14.8463 21.0625 17.6377ZM29.6562 5.79394H23.1542L22.1775 1.52906C21.9713 0.628812 21.1822 0 20.2588 0H11.7413C10.8178 0 10.0288 0.628812 9.8225 1.52912L8.84581 5.79394H7.29681C7.03794 5.79394 6.82806 6.00381 6.82806 6.26269C6.82806 6.52156 7.03794 6.73144 7.29681 6.73144H29.6562C30.4317 6.73144 31.0625 7.36225 31.0625 8.13769V27.1377C31.0625 27.9131 30.4317 28.5439 29.6562 28.5439H2.34375C1.56831 28.5439 0.9375 27.9131 0.9375 27.1377V8.13769C0.9375 7.36225 1.56831 6.73144 2.34375 6.73144H5.10931C5.36819 6.73144 5.57806 6.52156 5.57806 6.26269C5.57806 6.00381 5.36819 5.79394 5.10931 5.79394H2.34375C1.05138 5.79394 0 6.84531 0 8.13769V27.1377C0 28.4301 1.05138 29.4814 2.34375 29.4814H3.0185V31.0312C3.0185 31.5654 3.45306 32 3.98725 32H8.32525C8.85944 32 9.294 31.5654 9.294 31.0312V29.4814H22.706V31.0312C22.706 31.5654 23.1406 32 23.6747 32H28.0128C28.5469 32 28.9815 31.5654 28.9815 31.0312V29.4814H29.6562C30.9486 29.4814 32 28.4301 32 27.1377V8.13769C32 6.84531 30.9486 5.79394 29.6562 5.79394ZM11.7307 5.79394L12.4137 2.8125H19.5864L20.2693 5.79394H11.7307ZM21.2311 5.79394L20.4611 2.43269C20.3854 2.10431 20.0973 1.875 19.7606 1.875H12.2394C11.9027 1.875 11.6146 2.10431 11.5387 2.43344L10.7689 5.79394H9.80756L10.7363 1.73844C10.8444 1.26688 11.2576 0.9375 11.7413 0.9375H20.2588C20.7424 0.9375 21.1556 1.26687 21.2637 1.73837L22.1924 5.79394H21.2311ZM8.3565 31.0312C8.3565 31.0485 8.3425 31.0625 8.32525 31.0625H3.98725C3.97 31.0625 3.956 31.0485 3.956 31.0312V29.4814H8.3565V31.0312ZM28.044 31.0312C28.044 31.0485 28.03 31.0625 28.0128 31.0625H23.6747C23.6575 31.0625 23.6435 31.0485 23.6435 31.0312V29.4814H28.044V31.0312ZM28.4062 19.7683C28.6651 19.7683 28.875 19.5584 28.875 19.2996V9.70019C28.875 9.26937 28.5246 8.91894 28.0938 8.91894H3.90625C3.47544 8.91894 3.125 9.26937 3.125 9.70019V25.5752C3.125 26.006 3.47544 26.3564 3.90625 26.3564H28.0938C28.5246 26.3564 28.875 26.006 28.875 25.5752V21.4871C28.875 21.2282 28.6651 21.0183 28.4062 21.0183C28.1474 21.0183 27.9375 21.2282 27.9375 21.4871V25.4189H4.0625V9.85644H27.9375V19.2996C27.9375 19.5584 28.1474 19.7683 28.4062 19.7683Z" fill="#0064FF"/>
</g>
<defs>
<clipPath id="clip0_2055_8512">
<rect width="32" height="32" fill="white"/>
</clipPath>
</defs>
</svg>
