<svg width="36" height="36" viewBox="0 0 36 36" fill="none" xmlns="http://www.w3.org/2000/svg">
<circle cx="18" cy="18" r="9.375" stroke="#0064FF" stroke-width="1.2"/>
<path d="M18 7.5L18 8.25" stroke="#0064FF" stroke-width="1.2" stroke-linecap="round"/>
<path d="M18 26.25V29.25" stroke="#0064FF" stroke-width="1.2" stroke-linecap="round"/>
<path d="M10.8257 11.6743C11.0601 11.9086 11.4399 11.9086 11.6743 11.6743C11.9086 11.4399 11.9086 11.0601 11.6743 10.8257L11.25 11.25L10.8257 11.6743ZM10.5 10.5L10.0757 10.9243L10.8257 11.6743L11.25 11.25L11.6743 10.8257L10.9243 10.0757L10.5 10.5Z" fill="#0064FF"/>
<path d="M23.2007 11.9507C22.9664 12.1851 22.9664 12.5649 23.2007 12.7993C23.4351 13.0336 23.8149 13.0336 24.0493 12.7993L23.625 12.375L23.2007 11.9507ZM25.5 10.5L25.0757 10.0757L23.2007 11.9507L23.625 12.375L24.0493 12.7993L25.9243 10.9243L25.5 10.5Z" fill="#0064FF"/>
<path d="M25.1743 24.3257C24.9399 24.0914 24.5601 24.0914 24.3257 24.3257C24.0914 24.5601 24.0914 24.9399 24.3257 25.1743L24.75 24.75L25.1743 24.3257ZM25.5 25.5L25.9243 25.0757L25.1743 24.3257L24.75 24.75L24.3257 25.1743L25.0757 25.9243L25.5 25.5Z" fill="#0064FF"/>
<path d="M6.75 18L8.25 18" stroke="#0064FF" stroke-width="1.2" stroke-linecap="round"/>
<path d="M26.25 18L29.25 18" stroke="#0064FF" stroke-width="1.2" stroke-linecap="round"/>
<path d="M12.7993 24.0493C13.0336 23.8149 13.0336 23.4351 12.7993 23.2007C12.5649 22.9664 12.1851 22.9664 11.9507 23.2007L12.375 23.625L12.7993 24.0493ZM10.5 25.5L10.9243 25.9243L12.7993 24.0493L12.375 23.625L11.9507 23.2007L10.0757 25.0757L10.5 25.5Z" fill="#0064FF"/>
<path d="M18.75 13.5C18.75 14.3284 18.0784 15 17.25 15C16.4216 15 15.75 14.3284 15.75 13.5C15.75 12.6716 16.4216 12 17.25 12C18.0784 12 18.75 12.6716 18.75 13.5Z" stroke="#0064FF" stroke-width="1.2"/>
<path d="M15.75 19.5C15.75 20.3284 15.0784 21 14.25 21C13.4216 21 12.75 20.3284 12.75 19.5C12.75 18.6716 13.4216 18 14.25 18C15.0784 18 15.75 18.6716 15.75 19.5Z" stroke="#0064FF" stroke-width="1.2"/>
<path d="M24 21C24 21.8284 23.3284 22.5 22.5 22.5C21.6716 22.5 21 21.8284 21 21C21 20.1716 21.6716 19.5 22.5 19.5C23.3284 19.5 24 20.1716 24 21Z" stroke="#0064FF" stroke-width="1.2"/>
<circle cx="1.5" cy="1.5" r="1.5" transform="matrix(1 0 0 -1 16.5 6.75)" stroke="#0064FF" stroke-width="1.2"/>
<path d="M19.5 30.75C19.5 29.9216 18.8284 29.25 18 29.25C17.1716 29.25 16.5 29.9216 16.5 30.75C16.5 31.5784 17.1716 32.25 18 32.25C18.8284 32.25 19.5 31.5784 19.5 30.75Z" stroke="#0064FF" stroke-width="1.2"/>
<circle cx="1.5" cy="1.5" r="1.5" transform="matrix(1 0 0 -1 7.5 10.5)" stroke="#0064FF" stroke-width="1.2"/>
<circle cx="1.5" cy="1.5" r="1.5" transform="matrix(1 0 0 -1 25.5 10.5)" stroke="#0064FF" stroke-width="1.2"/>
<circle cx="1.5" cy="1.5" r="1.5" transform="matrix(1 0 0 -1 25.5 28.5)" stroke="#0064FF" stroke-width="1.2"/>
<path d="M6.75 18C6.75 17.1716 6.07843 16.5 5.25 16.5C4.42157 16.5 3.75 17.1716 3.75 18C3.75 18.8284 4.42157 19.5 5.25 19.5C6.07843 19.5 6.75 18.8284 6.75 18Z" stroke="#0064FF" stroke-width="1.2"/>
<path d="M32.25 18C32.25 17.1716 31.5784 16.5 30.75 16.5C29.9216 16.5 29.25 17.1716 29.25 18C29.25 18.8284 29.9216 19.5 30.75 19.5C31.5784 19.5 32.25 18.8284 32.25 18Z" stroke="#0064FF" stroke-width="1.2"/>
<circle cx="1.5" cy="1.5" r="1.5" transform="matrix(1 0 0 -1 7.5 28.5)" stroke="#0064FF" stroke-width="1.2"/>
</svg>
