<svg width="32" height="31" viewBox="0 0 32 31" fill="none" xmlns="http://www.w3.org/2000/svg">
<g clip-path="url(#clip0_2055_8574)">
<path d="M29.6562 9.54802H27.5327C27.2739 9.54802 27.064 9.75012 27.064 9.99941C27.064 10.2487 27.2739 10.4508 27.5327 10.4508H29.6562C30.4317 10.4508 31.0625 11.0582 31.0625 11.805V29.8819C31.0625 29.8986 31.0485 29.912 31.0312 29.912H25.8137V28.1065H28.2083C28.74 28.1065 29.1746 27.6899 29.177 27.1778L29.1875 24.9552C29.1924 24.4451 28.7469 24.0156 28.2188 24.0181H25.8137V22.2387H28.2083C28.74 22.2387 29.1746 21.8221 29.177 21.3101L29.1875 19.0874C29.1924 18.5773 28.7469 18.1478 28.2188 18.1503H25.8137V16.3447H28.2083C28.74 16.3447 29.1746 15.9281 29.177 15.4161L29.1875 13.1934C29.1924 12.6834 28.7469 12.2538 28.2188 12.2563H25.8137V7.58333C25.8137 6.33882 24.7624 5.32639 23.47 5.32639H21.9818C21.7419 2.35065 19.1507 0 16 0C12.8493 0 10.2581 2.35065 10.0183 5.32639H8.5C7.20762 5.32639 6.15625 6.33882 6.15625 7.58333V9.54802H2.34375C1.05138 9.54802 0 10.5605 0 11.805V29.8819C0 30.3963 0.434563 30.8148 0.96875 30.8148H31.0312C31.5654 30.8148 32 30.3963 32 29.8819V11.805C32 10.5605 30.9486 9.54802 29.6562 9.54802ZM25.8137 13.1591H28.2188C28.2219 13.1591 28.2318 13.1591 28.2409 13.168C28.25 13.1768 28.25 13.1862 28.25 13.1893L28.2396 15.4119C28.2395 15.4285 28.2254 15.4419 28.2083 15.4419H25.8137V13.1591ZM25.8137 19.0531H28.2188C28.2219 19.0531 28.2318 19.0531 28.2409 19.0619C28.25 19.0708 28.25 19.0802 28.25 19.0833L28.2396 21.3059C28.2395 21.3224 28.2254 21.3359 28.2083 21.3359H25.8137V19.0531ZM25.8137 24.9209H28.2188C28.2219 24.9209 28.2318 24.9209 28.2409 24.9297C28.25 24.9386 28.25 24.948 28.25 24.9511L28.2396 27.1737C28.2395 27.1902 28.2254 27.2037 28.2083 27.2037H25.8137V24.9209ZM6.15625 27.2037H3.79187C3.77444 27.2037 3.76069 27.1906 3.76062 27.1739L3.75 24.9513C3.75 24.9481 3.74994 24.9386 3.75912 24.9297C3.76825 24.9209 3.77806 24.9209 3.78125 24.9209H6.15625V27.2037ZM6.15625 21.3356H3.79187C3.77444 21.3356 3.76069 21.3226 3.76062 21.3059L3.75 19.0833C3.75 19.0801 3.74994 19.0708 3.75925 19.0617C3.76844 19.0528 3.77806 19.0528 3.78125 19.0528H6.15625V21.3356ZM6.15625 15.4417H3.79187C3.77444 15.4417 3.76069 15.4287 3.76062 15.4119L3.75 13.1893C3.75 13.1862 3.74994 13.1768 3.75925 13.1678C3.76844 13.1589 3.77806 13.1589 3.78125 13.1589H6.15625V15.4417ZM6.15625 12.2561H3.78125C3.25119 12.2533 2.80781 12.684 2.8125 13.1935L2.82312 15.4161C2.82556 15.928 3.26012 16.3445 3.79187 16.3445H6.15625V18.15H3.78125C3.25119 18.1472 2.80781 18.578 2.8125 19.0874L2.82312 21.3101C2.82556 21.822 3.26012 22.2385 3.79187 22.2385H6.15625V24.0182H3.78125C3.25087 24.0153 2.80781 24.4458 2.8125 24.9555L2.82312 27.1782C2.8255 27.69 3.26012 28.1065 3.79187 28.1065H6.15625V29.912H0.96875C0.9515 29.912 0.9375 29.8986 0.9375 29.8819V11.805C0.9375 11.0582 1.56831 10.4508 2.34375 10.4508H6.15625V12.2561ZM16 0.902778C18.7915 0.902778 21.0625 3.08967 21.0625 5.77778C21.0625 8.46589 18.7915 10.6528 16 10.6528C13.2085 10.6528 10.9375 8.46589 10.9375 5.77778C10.9375 3.08967 13.2085 0.902778 16 0.902778ZM20.189 29.912H16.4688V21.9631H20.189V29.912ZM10.8735 21.0604V20.1576H21.1266V21.0604H10.8735ZM24.8762 29.912H21.1265V21.9631C21.6158 21.9905 22.0671 21.6458 22.064 21.1506V20.0673C22.064 19.6193 21.6855 19.2548 21.2202 19.2548H10.7797C10.3145 19.2548 9.936 19.6193 9.936 20.0673V21.1506C9.93269 21.625 10.3759 22.0125 10.8735 21.9631V25.1595C10.8735 25.4088 11.0834 25.6109 11.3422 25.6109C11.6011 25.6109 11.811 25.4088 11.811 25.1595V21.9631H15.5312V29.912H11.811V27.266C11.811 27.0167 11.6011 26.8146 11.3422 26.8146C11.0834 26.8146 10.8735 27.0167 10.8735 27.266V29.912H7.09375V7.58333C7.09375 6.83662 7.72456 6.22917 8.5 6.22917H10.0183C10.2581 9.2049 12.8493 11.5556 16 11.5556C19.1507 11.5556 21.7419 9.2049 21.9818 6.22917H23.47C24.2454 6.22917 24.8762 6.83662 24.8762 7.58333V29.912ZM14.5938 7.13194V8.9375C14.5938 9.38552 14.9722 9.75 15.4375 9.75H16.5625C17.0278 9.75 17.4062 9.38552 17.4062 8.9375V7.13194H19.2812C19.7465 7.13194 20.125 6.76746 20.125 6.31944V5.23611C20.125 4.78809 19.7465 4.42361 19.2812 4.42361H17.4062V2.61806C17.4062 2.17004 17.0278 1.80556 16.5625 1.80556H15.4375C14.9722 1.80556 14.5938 2.17004 14.5938 2.61806V4.42361H12.7188C12.2535 4.42361 11.875 4.78809 11.875 5.23611V6.31944C11.875 6.76746 12.2535 7.13194 12.7188 7.13194H14.5938ZM12.8125 5.32639H14.875C15.2369 5.32639 15.5312 5.04292 15.5312 4.69444V2.70833H16.4688V4.69444C16.4688 5.04292 16.7631 5.32639 17.125 5.32639H19.1875V6.22917H17.125C16.7631 6.22917 16.4688 6.51264 16.4688 6.86111V8.84722H15.5312V6.86111C15.5312 6.51264 15.2369 6.22917 14.875 6.22917H12.8125V5.32639ZM14.125 26.851C14.3839 26.851 14.5938 26.6489 14.5938 26.3996V25.4757C14.5938 25.2264 14.3839 25.0243 14.125 25.0243C13.8661 25.0243 13.6562 25.2264 13.6562 25.4757V26.3996C13.6562 26.6489 13.8661 26.851 14.125 26.851ZM14.0938 13.3611H9.95025C9.41844 13.3611 8.98387 13.7777 8.9815 14.2898L8.97106 16.5123C8.96544 17.0198 9.41056 17.4524 9.93981 17.4495H14.0938C14.6279 17.4495 15.0625 17.031 15.0625 16.5166V14.294C15.0625 13.7796 14.6279 13.3611 14.0938 13.3611ZM14.125 16.5166C14.125 16.5332 14.111 16.5467 14.0938 16.5467H9.93975C9.92731 16.5483 9.90681 16.5285 9.9085 16.5165L9.91894 14.2938C9.919 14.2773 9.933 14.2639 9.95019 14.2639H14.0938C14.111 14.2639 14.125 14.2774 14.125 14.294V16.5166ZM17.875 26.851C18.1339 26.851 18.3438 26.6489 18.3438 26.3996V25.4757C18.3438 25.2264 18.1339 25.0243 17.875 25.0243C17.6161 25.0243 17.4062 25.2264 17.4062 25.4757V26.3996C17.4062 26.6489 17.6161 26.851 17.875 26.851ZM22.0452 13.3611H17.9062C17.3721 13.3611 16.9375 13.7796 16.9375 14.294V16.5166C16.9375 17.031 17.3721 17.4495 17.9062 17.4495H22.0347C22.5665 17.4495 23.0011 17.0329 23.0035 16.5208L23.0139 14.2981C23.0189 13.7882 22.5733 13.3586 22.0452 13.3611ZM22.066 16.5167C22.0659 16.5332 22.0519 16.5467 22.0347 16.5467H17.9062C17.889 16.5467 17.875 16.5332 17.875 16.5166V14.294C17.875 14.2774 17.889 14.2639 17.9062 14.2639H22.0452C22.0484 14.2639 22.0583 14.2639 22.0674 14.2727C22.0765 14.2816 22.0765 14.291 22.0765 14.294L22.066 16.5167Z" fill="#0064FF"/>
</g>
<defs>
<clipPath id="clip0_2055_8574">
<rect width="32" height="30.8148" fill="white"/>
</clipPath>
</defs>
</svg>
