<svg width="32" height="32" viewBox="0 0 32 32" fill="none" xmlns="http://www.w3.org/2000/svg">
<g clip-path="url(#clip0_2055_8550)">
<path d="M16 31.0625C15.7411 31.0625 15.5312 31.2724 15.5312 31.5313C15.5312 31.7901 15.7411 32 16 32C16.2589 32 16.4687 31.7901 16.4687 31.5313C16.4687 31.2724 16.2589 31.0625 16 31.0625ZM16 25.4375C15.7411 25.4375 15.5312 25.6474 15.5312 25.9063C15.5312 26.1651 15.7411 26.375 16 26.375C16.2589 26.375 16.4687 26.1651 16.4687 25.9063C16.4687 25.6474 16.2589 25.4375 16 25.4375ZM16 28.25C15.7411 28.25 15.5312 28.4599 15.5312 28.7188C15.5312 28.9776 15.7411 29.1875 16 29.1875C16.2589 29.1875 16.4687 28.9776 16.4687 28.7188C16.4687 28.4599 16.2589 28.25 16 28.25ZM16.0004 15.8563C16.0265 15.8563 16.0529 15.8558 16.0796 15.8549C16.6269 15.8353 17.0377 15.621 17.2859 15.4447C17.4969 15.2948 17.5464 15.0021 17.3965 14.7911C17.2466 14.5801 16.954 14.5306 16.7429 14.6804C16.6252 14.764 16.3782 14.9061 16.046 14.918C15.6702 14.9318 15.3902 14.7748 15.2567 14.6801C15.0455 14.5304 14.7529 14.5803 14.6032 14.7915C14.4535 15.0028 14.5034 15.2953 14.7147 15.445C14.9354 15.6014 15.389 15.8563 16.0004 15.8563ZM25.2089 21.4458L19.7815 19.6193C19.3922 19.4879 19.2281 19.1321 19.25 18.7491C20.0415 18.378 20.7712 17.8688 21.4089 17.2333C22.8623 15.7849 23.6627 13.8573 23.6627 11.8055L23.6869 11.2209C24.7129 11.2209 25.5475 10.3862 25.5475 9.36019C25.5475 8.32588 24.6978 7.48563 23.6628 7.4995V3.59375C23.6628 1.61213 22.0507 0 20.069 0H11.931C9.94936 0 8.33723 1.61213 8.33723 3.59375V7.49956C7.30317 7.49013 6.45248 8.32275 6.45248 9.36025C6.45248 10.3943 7.30248 11.2349 8.33723 11.2209V11.7274C8.33723 12.7272 8.52511 13.7021 8.89561 14.6249C8.99204 14.8651 9.26498 14.9816 9.50523 14.8853C9.74548 14.7888 9.86204 14.5159 9.76561 14.2756C9.43992 13.4644 9.27473 12.6071 9.27473 11.7275V8.4325C11.2435 8.38381 13.1519 7.99231 14.9535 7.26663C15.9325 6.87231 16.8783 6.37763 17.766 5.79563C18.3415 6.51975 19.0411 7.11325 19.8467 7.56025C20.9078 8.14913 21.9389 8.35925 22.7252 8.41825V11.8056C22.7252 13.6063 22.0227 15.2981 20.7471 16.5693C19.465 17.8469 17.7947 18.5371 15.9762 18.5308C13.9679 18.5238 12.0822 17.6152 10.8025 16.038C10.6394 15.8369 10.3442 15.8062 10.1432 15.9693C9.94217 16.1324 9.91142 16.4276 10.0745 16.6286C10.8127 17.5384 11.7285 18.2524 12.75 18.7372C12.7823 19.1133 12.596 19.497 12.218 19.6196L6.79104 21.4459C5.07229 22.0244 3.91748 23.6313 3.91748 25.4445V31.5314C3.91748 31.7903 4.12736 32.0001 4.38623 32.0001C4.64511 32.0001 4.85498 31.7903 4.85498 31.5314V25.4445C4.85498 24.0343 5.75323 22.7844 7.09011 22.3344L7.90286 22.0609C7.78311 22.5562 7.73067 23.0672 7.74961 23.5722C7.76761 24.0523 7.84861 24.5239 7.98867 24.9813C7.07804 25.2546 6.41248 26.1002 6.41248 27.0986V29.0063C6.41248 29.4782 6.79642 29.8621 7.26829 29.8621H7.79361C8.05248 29.8621 8.26236 29.6522 8.26236 29.3933C8.26236 29.1344 8.05248 28.9246 7.79361 28.9246H7.34998V27.0985C7.34998 26.3968 7.92061 25.8259 8.62217 25.8255C8.62254 25.8255 8.62286 25.8256 8.62323 25.8256C8.62361 25.8256 8.62398 25.8255 8.62436 25.8255C9.32573 25.8263 9.89611 26.397 9.89611 27.0985V28.9246H9.45248C9.19361 28.9246 8.98373 29.1344 8.98373 29.3933C8.98373 29.6522 9.19361 29.8621 9.45248 29.8621H9.97779C10.4497 29.8621 10.8336 29.4781 10.8336 29.0063V27.0986C10.8336 25.9919 10.0161 25.0726 8.95329 24.9128C8.79442 24.4691 8.70411 24.0078 8.68642 23.5369C8.66298 22.9136 8.77092 22.2791 8.99873 21.692L12.1992 20.615L15.5542 23.97C15.8344 24.2503 16.2905 24.2503 16.5707 23.97L19.8943 20.6464L22.7489 21.6071C22.9647 22.1561 23.0762 22.7499 23.0706 23.3375C23.0655 23.8704 22.9637 24.4087 22.7759 24.9103C21.9235 25.0226 21.1784 25.5702 20.8247 26.3706C20.72 26.6074 20.8272 26.8842 21.064 26.9889C21.3008 27.0936 21.5775 26.9864 21.6822 26.7496C21.93 26.1887 22.486 25.8262 23.0989 25.8256C23.0994 25.8256 23.0997 25.8256 23.1002 25.8256C23.1006 25.8256 23.101 25.8256 23.1015 25.8256C23.9554 25.826 24.65 26.5209 24.65 27.375C24.65 28.2294 23.9549 28.9246 23.1005 28.9246C22.6277 28.9246 22.1867 28.7126 21.8905 28.3432C21.7287 28.1412 21.4337 28.1086 21.2317 28.2706C21.0297 28.4324 20.9972 28.7275 21.159 28.9294C21.634 29.5221 22.3417 29.862 23.1005 29.862C24.4718 29.862 25.5875 28.7463 25.5875 27.3749C25.5875 26.2269 24.8054 25.2584 23.7461 24.9734C23.913 24.4474 24.0029 23.8945 24.008 23.3463C24.0124 22.8874 23.9575 22.4253 23.8479 21.9768L24.9099 22.3341C26.2468 22.7841 27.145 24.034 27.145 25.4443V31.5311C27.145 31.79 27.3549 31.9999 27.6137 31.9999C27.8726 31.9999 28.0825 31.79 28.0825 31.5311V25.4443C28.0825 23.6312 26.9277 22.0243 25.2089 21.4458ZM23.6627 8.43706H23.6869C24.1959 8.43706 24.61 8.85119 24.61 9.36025C24.61 9.86931 24.1959 10.2834 23.6869 10.2834H23.6627V8.43706ZM8.33723 10.2834H8.31311C7.80404 10.2834 7.38992 9.86925 7.38992 9.36019C7.38992 8.84394 7.81998 8.42263 8.33717 8.437V10.2834H8.33723ZM20.3016 6.74044C19.5829 6.34156 18.9614 5.80781 18.4543 5.154C18.1844 4.806 17.6869 4.72331 17.3215 4.96569C16.4653 5.53381 15.5507 6.01531 14.6032 6.39688C12.9133 7.07756 11.1227 7.445 9.27473 7.49369V3.59375C9.27473 2.12906 10.4663 0.9375 11.931 0.9375H20.0689C21.5336 0.9375 22.7252 2.12906 22.7252 3.59375V7.47725C22.0532 7.41925 21.1897 7.23325 20.3016 6.74044ZM16.0625 23.1524L13.0912 20.1811C13.4072 19.9089 13.6165 19.5266 13.6718 19.1029C14.4069 19.3399 15.1815 19.4654 15.973 19.4682H16.0002C16.8025 19.4682 17.5857 19.3453 18.329 19.1091C18.3895 19.5604 18.6255 19.9637 18.978 20.2368L16.0625 23.1524ZM19.75 10.5584V9.39756C19.75 9.13869 19.5401 8.92881 19.2812 8.92881C19.0224 8.92881 18.8125 9.13869 18.8125 9.39756V10.5584C18.8125 10.8173 19.0224 11.0271 19.2812 11.0271C19.5401 11.0271 19.75 10.8173 19.75 10.5584ZM13.1875 10.5584V9.39756C13.1875 9.13869 12.9776 8.92881 12.7187 8.92881C12.4599 8.92881 12.25 9.13869 12.25 9.39756V10.5584C12.25 10.8173 12.4599 11.0271 12.7187 11.0271C12.9776 11.0271 13.1875 10.8173 13.1875 10.5584Z" fill="#0064FF"/>
</g>
<defs>
<clipPath id="clip0_2055_8550">
<rect width="32" height="32" fill="white"/>
</clipPath>
</defs>
</svg>
