<svg width="32" height="32" viewBox="0 0 32 32" fill="none" xmlns="http://www.w3.org/2000/svg">
<path d="M11.2002 19.0857H11.6379C11.7851 19.0857 11.9149 18.9891 11.9572 18.8481L13.701 13.0355C13.7615 12.8336 14.0528 12.8507 14.0895 13.0582L15.837 22.9608C15.8745 23.1734 16.1756 23.184 16.228 22.9746L17.3085 18.6524C17.3456 18.504 17.4789 18.3999 17.6319 18.3999H20.8002" stroke="#212421" stroke-width="1.33333" stroke-linecap="round"/>
<path d="M11.8856 5.71429V5.71429C11.8856 6.66106 12.6531 7.42857 13.5999 7.42857H18.3999C19.3467 7.42857 20.1142 6.66106 20.1142 5.71429V5.71429M11.8856 5.71429V5.71429C11.8856 4.76751 12.6531 4 13.5999 4H18.3999C19.3467 4 20.1142 4.76751 20.1142 5.71429V5.71429M11.8856 5.71429V5.71429C11.1774 5.71429 10.8232 5.71429 10.5303 5.78114C9.53165 6.00908 8.75183 6.78891 8.52389 7.78756C8.45703 8.08049 8.45703 8.43461 8.45703 9.14286V21.3333C8.45703 24.476 8.45703 26.0474 9.43334 27.0237C10.4097 28 11.981 28 15.1237 28H16.8761C20.0188 28 21.5901 28 22.5664 27.0237C23.5427 26.0474 23.5427 24.476 23.5427 21.3333V9.14286C23.5427 8.43461 23.5427 8.08049 23.4759 7.78756C23.248 6.78891 22.4681 6.00908 21.4695 5.78114C21.1765 5.71429 20.8224 5.71429 20.1142 5.71429V5.71429" stroke="#212421" stroke-width="1.33333"/>
</svg>
