<svg width="34" height="32" viewBox="0 0 34 32" fill="none" xmlns="http://www.w3.org/2000/svg">
<path d="M13.3426 10.8247C13.5312 10.9844 13.804 10.9486 13.9519 10.7449L14.2905 10.2782L14.6291 10.7449C14.7778 10.9498 15.051 10.9833 15.2384 10.8247C15.4271 10.665 15.4602 10.3704 15.3123 10.1666L14.8143 9.48023C14.6873 9.30517 14.4963 9.20479 14.2904 9.20479C14.0845 9.20479 13.8936 9.30517 13.7666 9.48023L13.2686 10.1666C13.1208 10.3704 13.1539 10.665 13.3426 10.8247ZM11.295 15.532C11.6024 15.5439 11.8312 15.686 11.9401 15.7697C12.1356 15.9196 12.4066 15.8701 12.5454 15.659C12.6842 15.4479 12.6383 15.1553 12.4429 15.0053C12.2131 14.829 11.8327 14.6147 11.326 14.5952C10.7215 14.571 10.2752 14.842 10.0621 15.0051C9.8666 15.1548 9.82036 15.4473 9.95896 15.6586C10.0986 15.8714 10.3704 15.9183 10.5641 15.77C10.6877 15.6753 10.9474 15.5185 11.295 15.532ZM8.73796 9.48023C8.61099 9.30517 8.42002 9.20479 8.21411 9.20479C8.00821 9.20479 7.8173 9.30517 7.69027 9.48023L7.19224 10.1666C7.04438 10.3704 7.07749 10.665 7.26614 10.8247C7.45474 10.9844 7.7276 10.9486 7.87546 10.7449L8.21406 10.2782L8.55266 10.7449C8.70138 10.9498 8.97459 10.9833 9.16197 10.8247C9.35063 10.665 9.38373 10.3704 9.23587 10.1666L8.73796 9.48023ZM19.7791 21.4457L14.7538 19.6192C14.4102 19.4944 14.2278 19.1301 14.2617 18.7491C16.7105 17.5075 18.3574 14.7296 18.3474 11.8055V11.2209C19.304 11.2309 20.0926 10.3974 20.0926 9.36017C20.0926 8.32586 19.3057 7.48561 18.3474 7.49949V3.59374C18.3474 1.61212 16.8547 0 15.0199 0H7.48478C5.64994 0 4.15724 1.61212 4.15724 3.59374V7.49955C3.19919 7.48811 2.4121 8.32417 2.4121 9.36023C2.4121 10.3942 3.19914 11.235 4.15724 11.2209V11.7274C4.15724 14.8182 5.832 17.4961 8.24317 18.7351C8.27482 19.1136 8.10069 19.4963 7.75057 19.6195L2.72564 21.4458C1.13421 22.0243 0.0649414 23.6312 0.0649414 25.4443V31.5312C0.0649414 31.7901 0.25927 31.9999 0.498968 31.9999C0.738667 31.9999 0.932995 31.7901 0.932995 31.5312V25.4443C0.932995 24.0341 1.76471 22.7842 3.00255 22.3342L6.43281 21.0875C7.33842 23.0605 9.18819 24.3125 11.2523 24.3125C13.3164 24.3125 15.1662 23.0605 16.0718 21.0875L19.5022 22.3343C20.7401 22.7843 21.5718 24.0341 21.5718 25.4444V31.5313C21.5718 31.7902 21.7662 32 22.0059 32C22.2456 32 22.4399 31.7902 22.4399 31.5313V25.4444C22.4399 23.6312 21.3706 22.0243 19.7791 21.4457ZM18.3474 8.43705C18.8249 8.41973 19.2245 8.84536 19.2245 9.36023C19.2245 9.87561 18.8268 10.2985 18.3474 10.2834V8.43705ZM4.15724 10.2834C3.67819 10.2989 3.28015 9.87636 3.28015 9.36017C3.28015 8.84305 3.6783 8.42323 4.15724 8.43698V10.2834ZM5.02529 11.7274V8.43223C5.6724 8.41461 6.31881 8.35317 6.9526 8.24886C7.18958 8.20986 7.35243 7.9708 7.31632 7.71486C7.2802 7.45899 7.05902 7.2833 6.82187 7.32205C6.23119 7.41924 5.6287 7.47717 5.02535 7.49417V3.59374C5.02535 2.12906 6.12864 0.937498 7.48483 0.937498H15.0199C16.3761 0.937498 17.4794 2.12906 17.4794 3.59374V7.47724C16.8573 7.41924 16.0577 7.23324 15.2353 6.74036C14.5699 6.34149 13.9944 5.80774 13.5249 5.15393C13.275 4.80593 12.8143 4.72324 12.476 4.96562C11.6832 5.53374 10.8364 6.01524 9.95908 6.3968C9.55225 6.5738 9.1324 6.73192 8.71128 6.8668C8.48142 6.94036 8.3504 7.20124 8.41851 7.44942C8.48663 7.69761 8.72806 7.83917 8.95798 7.76561C9.40526 7.62236 9.85126 7.45442 10.2834 7.26642C11.1899 6.87211 12.0656 6.37742 12.8876 5.79543C13.4205 6.51955 14.0682 7.11305 14.8141 7.56005C15.7966 8.14892 16.7513 8.35905 17.4794 8.41805V11.8054C17.4883 15.4478 14.6239 18.5432 11.2303 18.5305C7.80885 18.5178 5.02529 15.4659 5.02529 11.7274ZM11.2523 23.375C9.56174 23.375 8.04299 22.3731 7.26533 20.785L8.02696 20.5081C8.60943 20.2972 9.01909 19.7473 9.09675 19.102C9.76938 19.3369 10.4851 19.4653 11.2273 19.4681C11.9786 19.4709 12.712 19.3483 13.4089 19.1091C13.4887 19.7514 13.8975 20.298 14.4775 20.508L15.2394 20.7849C14.4617 22.373 12.9429 23.375 11.2523 23.375Z" fill="#0064FF"/>
<path d="M33.9348 17.0822H29.3819V21.7478H26.9928V17.0822H22.4399V14.9185H26.9928V10.2529H29.3819V14.9185H33.9348V17.0822Z" fill="#0064FF"/>
</svg>
