<svg width="20" height="20" viewBox="0 0 20 20" fill="none" xmlns="http://www.w3.org/2000/svg">
<path d="M8.78361 18.2834C8.59194 18.2834 8.4086 18.2 8.2836 18.0334L7.44193 16.9084C7.26693 16.675 7.03362 16.5417 6.78362 16.525C6.52528 16.5083 6.28359 16.625 6.08359 16.8334C4.87526 18.125 3.9586 18.0167 3.51694 17.85C3.06694 17.675 2.30859 17.1 2.30859 15.25V5.86669C2.30859 2.16669 3.37526 1.04169 6.86693 1.04169H13.1586C16.6503 1.04169 17.7169 2.16669 17.7169 5.86669V9.41668C17.7169 9.75834 17.4336 10.0417 17.0919 10.0417C16.7503 10.0417 16.4669 9.75834 16.4669 9.41668V5.86669C16.4669 2.85836 15.9419 2.29169 13.1586 2.29169H6.86693C4.08359 2.29169 3.55859 2.85836 3.55859 5.86669V15.25C3.55859 16.125 3.77526 16.6083 3.97526 16.6833C4.12526 16.7417 4.53361 16.6583 5.16695 15.9833C5.62528 15.5 6.22527 15.2417 6.85027 15.275C7.46694 15.3083 8.05027 15.6334 8.44194 16.1584L9.29193 17.2833C9.50026 17.5583 9.44194 17.95 9.16694 18.1584C9.04194 18.25 8.90861 18.2834 8.78361 18.2834Z" fill="#0064FF"/>
<path d="M13.3346 6.45831H6.66797C6.3263 6.45831 6.04297 6.17498 6.04297 5.83331C6.04297 5.49165 6.3263 5.20831 6.66797 5.20831H13.3346C13.6763 5.20831 13.9596 5.49165 13.9596 5.83331C13.9596 6.17498 13.6763 6.45831 13.3346 6.45831Z" fill="#0064FF"/>
<path d="M12.5 9.79169H7.5C7.15833 9.79169 6.875 9.50835 6.875 9.16669C6.875 8.82502 7.15833 8.54169 7.5 8.54169H12.5C12.8417 8.54169 13.125 8.82502 13.125 9.16669C13.125 9.50835 12.8417 9.79169 12.5 9.79169Z" fill="#0064FF"/>
<path d="M12.3483 18.15C12.0317 18.15 11.7317 18.0333 11.515 17.8166C11.2567 17.5583 11.14 17.1833 11.1983 16.7916L11.3567 15.6666C11.3983 15.375 11.5733 15.025 11.7817 14.8166L14.7317 11.8666C15.1317 11.4666 15.5233 11.2583 15.9483 11.2166C16.465 11.1666 16.9817 11.3833 17.465 11.8666C17.9483 12.35 18.165 12.8583 18.115 13.3833C18.0733 13.8 17.8567 14.2 17.465 14.6L14.515 17.55C14.3067 17.7583 13.9567 17.9333 13.665 17.975L12.54 18.1333C12.4733 18.1416 12.415 18.15 12.3483 18.15ZM16.09 12.4583C16.0817 12.4583 16.0733 12.4583 16.065 12.4583C15.9483 12.4666 15.79 12.575 15.615 12.75L12.665 15.7C12.64 15.725 12.5983 15.8083 12.5983 15.8416L12.4483 16.8833L13.49 16.7333C13.5233 16.725 13.6067 16.6833 13.6317 16.6583L16.5817 13.7083C16.7567 13.525 16.865 13.375 16.8733 13.2583C16.89 13.0916 16.7233 12.8916 16.5817 12.75C16.4483 12.6166 16.2567 12.4583 16.09 12.4583Z" fill="#0064FF"/>
<path d="M16.6018 15.2083C16.5435 15.2083 16.4851 15.1999 16.4351 15.1833C15.3351 14.8749 14.4601 14 14.1518 12.9C14.0601 12.5666 14.2518 12.2249 14.5851 12.1249C14.9184 12.0333 15.2601 12.2249 15.3518 12.5583C15.5435 13.2416 16.0851 13.7833 16.7684 13.9749C17.1018 14.0666 17.2935 14.4166 17.2018 14.75C17.1268 15.025 16.8768 15.2083 16.6018 15.2083Z" fill="#0064FF"/>
</svg>
