<svg width="24" height="20" viewBox="-1.5 0 24 20" fill="none" xmlns="http://www.w3.org/2000/svg">
<g id="Group 11">
<path id="Vector" fill-rule="evenodd" clip-rule="evenodd" d="M11.4638 2.87682C7.79153 3.88791 3.96912 5.24573 2.30314 6.20737C1.9052 6.43709 1.81733 6.59035 1.80164 6.62409C1.80904 6.64999 1.83803 6.71219 1.93912 6.81942C2.12442 7.01595 2.45088 7.24645 2.92125 7.4941C3.38156 7.73646 3.93539 7.97251 4.53617 8.19581C5.73746 8.64241 7.07562 9.01971 8.12196 9.28661C8.64326 9.41951 9.08826 9.52411 9.40236 9.59541C9.55926 9.63101 9.68336 9.65821 9.76776 9.67651L9.86376 9.69701L9.88766 9.70201L9.89466 9.70351C10.1876 9.76411 10.4168 9.99301 10.4774 10.286L10.4789 10.2932L10.4839 10.3171L10.5044 10.4131C10.5227 10.4975 10.5499 10.6216 10.5855 10.7785C10.6568 11.0926 10.7614 11.5376 10.8943 12.0589C11.1612 13.1052 11.5385 14.4434 11.985 15.6447C12.2084 16.2455 12.4444 16.7993 12.6868 17.2596C12.9345 17.73 13.165 18.0564 13.3615 18.2417C13.4687 18.3428 13.5309 18.3718 13.5568 18.3792C13.5906 18.3635 13.7438 18.2756 13.9735 17.8777C14.9352 16.2117 16.293 12.3893 17.3041 8.71711C17.8062 6.89343 18.2135 5.14033 18.4394 3.74908C18.5526 3.05178 18.6173 2.46341 18.6291 2.01106C18.6339 1.83073 18.6299 1.68139 18.6195 1.56142C18.4995 1.55103 18.3502 1.54705 18.1698 1.55177C17.7175 1.56361 17.1291 1.62827 16.4318 1.7415C15.0406 1.96743 13.2875 2.37471 11.4638 2.87682ZM13.5711 18.3811C13.5711 18.3811 13.5679 18.3819 13.561 18.3803C13.5675 18.3797 13.5711 18.3811 13.5711 18.3811ZM9.11306 11.0678C9.09906 11.0647 9.08496 11.0615 9.07046 11.0582C8.74586 10.9846 8.28766 10.8769 7.75121 10.74C6.68198 10.4673 5.2861 10.075 4.01347 9.60181C3.37729 9.36531 2.75919 9.10401 2.22243 8.82141C1.69572 8.54401 1.19997 8.22201 0.847717 7.84842C0.496677 7.47608 0.184947 6.93293 0.339417 6.28371C0.482737 5.68135 0.975007 5.24207 1.55324 4.90827C3.39941 3.84262 7.38507 2.444 11.0656 1.43064C12.9183 0.920533 14.7278 0.498573 16.1914 0.260903C16.9215 0.142343 17.5836 0.0666033 18.1306 0.0522933C18.4041 0.0451333 18.6636 0.0528632 18.8965 0.0828032C19.1204 0.111593 19.3682 0.166613 19.5879 0.283603C19.7195 0.353693 19.8272 0.461413 19.8973 0.593013C20.0143 0.812683 20.0693 1.06047 20.0981 1.28439C20.1281 1.51733 20.1358 1.77679 20.1286 2.0503C20.1143 2.59728 20.0386 3.2594 19.92 3.98952C19.6823 5.4531 19.2604 7.26257 18.7503 9.11531C17.7369 12.7958 16.3383 16.7814 15.2726 18.6276C14.9389 19.2058 14.4996 19.6981 13.8972 19.8414C13.248 19.9959 12.7048 19.6842 12.3325 19.3331C11.9589 18.9809 11.6368 18.4851 11.3595 17.9584C11.0769 17.4217 10.8156 16.8036 10.5791 16.1674C10.1059 14.8948 9.71356 13.4989 9.44086 12.4297C9.30396 11.8932 9.19626 11.435 9.12266 11.1104C9.11936 11.0959 9.11616 11.0818 9.11306 11.0678ZM1.79978 6.60981C1.79978 6.60981 1.80113 6.61336 1.80055 6.61989C1.79894 6.61298 1.79978 6.60981 1.79978 6.60981Z" fill="#0064FF"/>
<path id="Vector_2" fill-rule="evenodd" clip-rule="evenodd" d="M19.7659 0.41498C20.0588 0.70787 20.0588 1.18275 19.7659 1.47564L10.2735 10.968C9.98064 11.2609 9.50574 11.2609 9.21284 10.968C8.91994 10.6751 8.91994 10.2002 9.21284 9.90734L18.7052 0.41498C18.9981 0.12209 19.473 0.12209 19.7659 0.41498Z" fill="#0064FF"/>
</g>
</svg>
