<svg width="119" height="100" viewBox="0 0 119 100" fill="none" xmlns="http://www.w3.org/2000/svg">
<path fill-rule="evenodd" clip-rule="evenodd" d="M28.9345 0.117249H49.7565C66.7096 0.117249 70.7116 0.173617 71.3091 0.421633C71.7127 0.58848 72.3846 1.01913 72.8062 1.37988C73.2256 1.73837 73.7825 2.43958 74.0463 2.93561C74.4995 3.79239 74.5243 4.19824 74.5784 11.2216C74.61 15.2823 74.6867 18.6057 74.7475 18.6057C74.8084 18.6057 75.7982 17.8639 76.9459 16.9598C78.0935 16.0534 80.3008 14.3376 81.8498 13.1471C83.401 11.9544 85.1236 10.7707 85.6828 10.5136C86.278 10.2408 87.1618 10.0469 87.8247 10.0469C88.4448 10.0469 89.3579 10.234 89.854 10.4618C90.35 10.6872 93.0398 12.6623 100.902 18.8176L104.397 18.8199C106.913 18.8222 107.97 18.9033 108.178 19.1085C108.378 19.3114 108.464 20.2854 108.469 25.4825L112.786 28.9773C115.161 30.8983 117.314 32.7584 117.571 33.1079C118.033 33.7392 118.038 33.9263 118.105 53.4001C118.15 66.6238 118.094 73.3338 117.936 73.902C117.785 74.4386 117.431 74.9324 116.234 75.7621L74.6348 75.6494L74.6325 79.3132C74.6325 81.3289 74.5221 83.3829 74.3868 83.879C74.2244 84.4742 73.7465 85.1641 72.9776 85.9127C72.2899 86.5823 71.4489 87.1573 70.9146 87.3174C70.2449 87.5225 65.846 87.5924 53.7789 87.5947C42.3544 87.5947 37.1776 87.5203 35.065 87.0761L33.1485 88.2192C32.0933 88.8483 30.5218 89.6893 29.6537 90.0861C28.7541 90.4965 27.9064 90.7467 27.6809 90.6678C27.4013 90.5709 27.3111 90.3477 27.372 89.9103C27.4171 89.5698 27.8658 88.2238 29.284 84.5554L27.9785 83.2026C27.2638 82.4585 26.3687 81.241 25.9899 80.4969C25.6133 79.7529 25.1827 78.5354 25.0361 77.7913C24.8332 76.7812 24.8287 76.0958 25.0136 75.0857C25.1489 74.3416 25.5322 73.1737 25.8613 72.4928C26.2153 71.7623 27.1195 70.5943 28.0574 69.6519C29.2163 68.4907 30.1182 67.8278 31.3448 67.2394C32.2759 66.7907 33.9489 66.2067 35.065 65.9407C36.7695 65.5348 37.5632 65.4739 40.0253 65.5596C42.3905 65.6408 43.3059 65.7761 44.7602 66.2518C45.7522 66.5787 47.2133 67.2281 48.0069 67.6948C48.8006 68.1638 50.0542 69.1558 50.7915 69.8999C51.6189 70.7341 52.4036 71.8141 52.8342 72.7183C53.3415 73.778 53.5692 74.637 53.7789 77.4576L71.4782 77.4531L71.3655 75.868L65.1245 75.8162C59.1857 75.7643 58.8542 75.7395 58.2477 75.2886C57.8982 75.0293 57.4856 74.5739 57.3323 74.274C57.1181 73.8569 57.055 69.131 57.0595 33.3739L58.0222 32.472C58.5498 31.976 60.7301 30.2016 66.7502 25.4825L66.7366 22.4387C66.7276 20.2223 66.802 19.3227 67.0162 19.1265C67.1831 18.9732 68.1751 18.8267 71.3655 18.7184L71.4782 9.36148H28.1882V49.495L33.5431 49.4859C37.6421 49.4769 38.9634 49.5423 39.1753 49.7678C39.3827 49.9865 39.4391 51.6527 39.3489 62.9104L38.7852 62.9803C38.4763 63.0186 38.1472 62.9171 38.057 62.7548C37.9645 62.5924 37.8879 59.8981 37.8834 51.0732H1.58285L1.69559 98.309L37.8834 98.4217V94.2505C37.8834 90.5078 37.9239 90.0591 38.2779 89.8719C38.5169 89.7479 38.8281 89.7479 39.0671 89.8719C39.4233 90.0591 39.4616 90.5326 39.4661 94.7578C39.4684 98.1309 39.3917 99.5152 39.1956 99.7182C38.9791 99.9391 34.7989 100 19.8007 100C3.10702 100 0.638138 99.9572 0.342774 99.6618C0.0474094 99.3664 0.00456928 96.282 5.99025e-05 74.6911C-0.00219479 55.6457 0.0586812 49.9955 0.270622 49.7768C0.484818 49.5581 3.26936 49.495 24.8062 49.495L24.8107 27.2299C24.8152 14.1144 24.9031 4.59506 25.0294 4.06296C25.1466 3.56692 25.5277 2.75975 25.8771 2.26822C26.2514 1.74514 27.0135 1.11833 27.7237 0.746309L28.9345 0.117249ZM15.2237 56.1463V65.616L10.7143 65.6701C7.38868 65.7084 6.12831 65.6475 5.91411 65.4446C5.69541 65.2372 5.61424 64.04 5.59395 60.7504C5.57817 58.3221 5.65257 56.2658 5.75854 56.1801C5.86451 56.0944 8.03803 56.0538 15.2237 56.1463ZM26.7181 57.8283C32.3549 57.8193 33.2996 57.8666 33.5431 58.1665C33.6987 58.3581 33.7979 58.6918 33.7663 58.9083C33.7099 59.2758 33.1959 59.3029 26.6099 59.3029C19.6903 59.3029 19.5121 59.2916 19.4332 58.8519C19.3881 58.5971 19.5302 58.2792 19.7624 58.1191C20.0668 57.9117 21.8638 57.8351 26.7181 57.8283ZM24.5243 63.2666C28.8736 63.2508 29.1013 63.2711 29.3155 63.6995C29.4756 64.0197 29.4598 64.2519 29.2592 64.4999C29.0224 64.793 28.2761 64.8471 24.5243 64.8381C22.0757 64.8313 19.9202 64.7772 19.7331 64.7141C19.5482 64.6532 19.3746 64.3579 19.3498 64.058C19.325 63.7514 19.449 63.4627 19.6316 63.3996C19.812 63.3365 22.0126 63.2779 24.5243 63.2666ZM14.881 69.1107C22.4004 69.1107 23.7284 69.1604 24.017 69.449C24.2673 69.6992 24.2966 69.9044 24.1297 70.2381C23.9088 70.68 23.7081 70.689 14.9441 70.6327C6.18242 70.5786 5.98401 70.5673 5.91186 70.1254C5.86902 69.8773 5.89157 69.5482 5.95921 69.3926C6.0539 69.1739 8.05607 69.1107 14.881 69.1107ZM13.7965 74.522C20.8311 74.522 21.4399 74.5536 21.6316 74.9166C21.7556 75.1556 21.7556 75.4667 21.6316 75.7057C21.4399 76.071 20.8402 76.1003 13.9836 76.1003C9.89139 76.1003 6.39211 76.0507 6.20497 75.9876C6.02008 75.9267 5.85098 75.6381 5.82843 75.3495C5.80814 75.0609 5.87578 74.7565 5.9795 74.6731C6.08321 74.5896 9.60053 74.522 13.7965 74.522ZM13.9228 79.9242C20.0533 79.9152 21.8232 79.9784 22.0442 80.2061C22.1997 80.3662 22.2764 80.6751 22.2133 80.8915C22.1095 81.259 21.5256 81.2861 14.0964 81.2861C6.6762 81.2861 6.08322 81.259 5.9547 80.8915C5.88029 80.6751 5.87804 80.3707 5.95019 80.2151C6.05165 79.9986 7.87795 79.931 13.9228 79.9242ZM14.4301 85.3445C22.5515 85.3445 22.7837 85.358 23.0024 85.7955C23.1738 86.1404 23.1354 86.3343 22.8333 86.6207C22.4883 86.9476 22.0419 86.9746 19.2822 86.8461C17.5461 86.765 13.8687 86.6996 11.1089 86.6996C6.53415 86.6973 6.08096 86.6635 5.9547 86.3028C5.88029 86.0863 5.87804 85.7819 5.95019 85.6264C6.05165 85.4099 7.97039 85.3445 14.4301 85.3445ZM11.632 90.5303C16.0264 90.5303 16.9711 90.5889 17.2529 90.8685C17.4401 91.0556 17.5934 91.2834 17.5957 91.3758C17.5979 91.4705 17.4762 91.6734 17.3251 91.8268C17.1199 92.0387 15.6363 92.1086 11.4584 92.1086C8.38299 92.1086 5.86676 92.059 5.86676 91.9958C5.86676 91.935 5.80814 91.7569 5.73824 91.6013C5.66609 91.448 5.77658 91.1436 5.9795 90.9249C6.31094 90.5709 6.89265 90.5303 11.632 90.5303Z" fill="#162F74"/>
<path fill-rule="evenodd" clip-rule="evenodd" d="M49.493 27.2028C50.485 27.1916 51.9574 27.3201 52.7623 27.4914C53.5672 27.6628 54.8366 28.0461 55.5806 28.346C56.3247 28.6436 57.6031 29.3403 59.9096 30.8938L58.8725 31.6919C58.302 32.1316 57.682 32.7155 57.1589 33.4912L55.8061 32.693C55.0621 32.2533 53.946 31.7325 53.3259 31.5364C52.7059 31.3402 51.2855 31.1283 50.1694 31.0651C48.9699 30.9997 47.6329 31.0651 46.9001 31.2252C46.2192 31.3763 44.925 31.8452 44.0254 32.2669C42.8529 32.8193 41.9601 33.4686 40.8688 34.5644C39.9105 35.5271 39.0808 36.6342 38.6254 37.5519C38.2285 38.3545 37.737 39.7209 37.5319 40.5889C37.259 41.7366 37.1959 42.661 37.2974 43.971C37.3763 44.9788 37.6874 46.4714 38.0008 47.353C38.312 48.2211 38.79 49.1861 39.065 49.495C39.3401 49.8061 39.4145 49.9301 39.2319 49.7723C39.0109 49.5851 38.1632 49.4904 34.612 49.4995L34.2017 47.9753C33.9762 47.1365 33.6944 45.6913 33.5794 44.7601C33.4373 43.6237 33.4486 42.4784 33.6177 41.2653C33.753 40.2733 34.0574 38.8528 34.2896 38.1088C34.5218 37.3647 35.0945 36.0953 35.5612 35.2904C36.0302 34.481 37.2681 32.9658 38.3278 31.9039C39.6648 30.5691 40.729 29.7371 41.827 29.1689C42.6951 28.7225 43.9126 28.1904 44.5327 27.9897C45.1527 27.7868 46.1154 27.532 46.6746 27.4238C47.2338 27.3133 48.5009 27.2141 49.493 27.2028ZM56.9447 34.3885C57.0011 34.3885 57.0439 35.8338 57.0417 37.6015C57.0417 39.3691 56.965 40.6972 56.8726 40.5551C56.7824 40.4131 56.7395 38.9678 56.7756 37.3422C56.8139 35.7188 56.8906 34.3885 56.9447 34.3885ZM56.9334 46.1129C56.9943 46.1129 57.0236 49.9436 56.9966 54.6244C56.9695 59.3051 56.9132 61.8687 56.7914 57.4991L55.3957 58.0335C54.6292 58.3266 53.1907 58.7211 52.1986 58.906C51.0126 59.1292 49.7771 59.1991 48.5911 59.1134C47.599 59.0413 46.0523 58.7752 45.1527 58.5227C44.2531 58.2702 43.0874 57.8508 42.5598 57.5915C42.0322 57.3345 41.1191 56.8001 39.4596 55.6953L39.4754 52.877C39.4822 51.2311 39.5633 50.2458 39.6693 50.5096C39.7662 50.7576 40.4449 51.5039 41.1754 52.1668C41.9059 52.8296 43.1122 53.6639 43.8563 54.0224C44.6003 54.3786 45.8178 54.825 46.5619 55.0144C47.3059 55.2038 48.6497 55.3594 49.5493 55.3594C50.449 55.3571 51.8176 55.1993 52.5932 55.0054C53.3688 54.8115 54.6111 54.329 56.708 53.2152L56.7553 49.8332C56.7824 47.973 56.8072 46.3745 56.8117 46.282C56.8162 46.1896 56.8726 46.1129 56.9334 46.1129ZM56.9898 66.7433C57.0304 67.8594 57.0304 69.5842 56.9876 70.5763C56.947 71.5684 56.9132 70.6552 56.9132 68.5471C56.9132 66.4389 56.947 65.6273 56.9898 66.7433ZM89.1755 75.7553C97.236 75.7553 100.584 75.7846 96.616 75.8185C92.6477 75.8523 86.0528 75.8523 81.9605 75.8185C77.8682 75.7846 81.115 75.7553 89.1755 75.7553ZM14.3198 86.7898C16.552 86.7898 17.4155 86.8236 16.2363 86.8664C15.0571 86.907 13.2331 86.907 12.1779 86.8642C11.1227 86.8236 12.0877 86.7898 14.3198 86.7898Z" fill="#69C8F4"/>
<path d="M28.1875 29.4282V49.495C31.7702 49.4904 33.1929 49.416 33.6619 49.3236C34.2955 49.1996 34.4803 49.0688 34.3789 48.8186C34.3045 48.6337 34.0948 47.9212 33.9144 47.2403C33.7318 46.5593 33.5221 45.2381 33.4454 44.3092C33.362 43.3216 33.4206 41.8673 33.5852 40.8144C33.7408 39.8223 34.1399 38.3004 34.4758 37.4324C34.8095 36.5643 35.4837 35.2453 35.9752 34.5013C36.4667 33.7572 37.4768 32.5352 38.2209 31.7866C38.9649 31.0381 40.2839 29.9964 41.152 29.4756C42.02 28.9525 43.5419 28.2603 44.534 27.9334C45.8733 27.4914 46.9758 27.3088 48.8179 27.2254C50.6284 27.142 51.7535 27.2119 52.9891 27.4802C53.918 27.6831 55.4918 28.2423 56.4839 28.727C57.4759 29.2095 58.6416 29.8679 59.0767 30.1858C59.5096 30.506 59.9674 30.6999 60.0914 30.6187C60.2154 30.5375 60.7227 30.161 61.2187 29.7799C61.7147 29.4012 62.1724 29.0314 62.2333 28.9615C62.2942 28.8893 63.2096 28.1836 64.2625 27.39C65.3155 26.5963 66.2805 25.7937 66.4045 25.602C66.5285 25.4126 66.6818 23.8366 66.7427 22.1005L66.8554 18.9439L71.3648 18.7184C71.3896 11.9025 71.3648 9.79889 71.3242 9.64332C71.2679 9.4201 66.7562 9.36148 49.7198 9.36148H28.1875V29.4282Z" fill="#FCFCFB"/>
<path d="M46.9987 35.6782C46.3719 35.8992 45.4227 36.3839 44.8861 36.7559C44.3517 37.128 43.5491 37.9397 43.1026 38.5597C42.6562 39.1797 42.1106 40.271 41.8896 40.9835C41.6687 41.696 41.4883 42.6858 41.4883 43.1818C41.4883 43.6778 41.6709 44.6676 41.8941 45.3801C42.1173 46.0926 42.6246 47.1591 43.0215 47.7476C43.4183 48.336 44.1736 49.1116 44.7012 49.4701C45.2288 49.8309 46.1149 50.3111 46.6741 50.5411C47.4001 50.841 48.2343 50.9582 49.6052 50.9492C51.1992 50.9402 51.7291 50.8387 52.7617 50.345C53.4426 50.0158 54.4347 49.3101 54.9668 48.7757C55.4967 48.2413 56.1821 47.3733 56.4887 46.8457C56.9938 45.9776 57.0456 45.6484 57.0389 43.3509C57.0321 40.9271 56.9983 40.7558 56.3061 39.4864C55.907 38.7558 55.1742 37.7999 54.6782 37.3579C54.1822 36.9183 53.2172 36.305 52.5363 35.9961C51.702 35.6196 50.7776 35.4099 49.7179 35.358C48.6108 35.3017 47.7992 35.3964 46.9987 35.6782Z" fill="#1E94E0"/>
<path d="M38.4461 0.0608741C43.2824 0.0946945 51.0949 0.0946945 55.8072 0.0608741C60.5195 0.0270538 56.5625 0 47.0139 0C37.4653 0 33.6098 0.0270538 38.4461 0.0608741ZM46.3375 31.347C45.7174 31.5251 44.5495 32.0008 43.7446 32.4044C42.8269 32.8621 41.7312 33.6896 40.8135 34.614C39.9139 35.5226 39.0706 36.6567 38.6264 37.5519C38.2296 38.3545 37.7381 39.7209 37.5329 40.5889C37.2601 41.7366 37.197 42.661 37.2984 43.971C37.3773 44.963 37.6682 46.4353 37.9478 47.2403C38.2251 48.0452 38.7324 49.035 39.0706 49.4386C39.4088 49.8422 39.6862 50.3247 39.6862 50.5096C39.6862 50.6944 40.2701 51.3821 40.9826 52.036C41.6951 52.6921 42.9397 53.5511 43.7446 53.948C44.5495 54.347 45.8189 54.825 46.563 55.0144C47.307 55.2038 48.6508 55.3594 49.5504 55.3594C50.45 55.3571 51.8186 55.1993 52.5942 55.0054C53.3699 54.8115 54.6122 54.329 55.3562 53.9344L56.7091 53.2152L56.8353 46.4511C55.841 48.0249 55.2029 48.7712 54.7768 49.1297C54.3529 49.4859 53.4961 50.0428 52.8761 50.3675C51.8773 50.8928 51.4917 50.9605 49.4941 50.9605C47.3408 50.9605 47.174 50.9244 45.7986 50.1714C45.0072 49.7362 43.9994 48.9764 43.5575 48.4803C43.1178 47.9843 42.4977 47.0193 42.1798 46.3384C41.7041 45.3148 41.6026 44.7646 41.6026 43.1818C41.6026 41.6035 41.7041 41.0466 42.1776 40.0252C42.4932 39.3443 43.1651 38.3297 43.6702 37.7706C44.1775 37.2114 45.1876 36.4516 45.9159 36.0795C47.1244 35.4618 47.4333 35.4031 49.4941 35.4031C51.5165 35.4031 51.8705 35.4685 52.9325 36.0232C53.5841 36.3636 54.522 37.0491 55.018 37.5451C55.5141 38.0411 56.1183 38.828 56.3618 39.2925L56.8015 40.138C56.9052 35.6827 56.9345 34.1608 56.9345 33.8835C56.9345 33.5115 56.6076 33.1823 55.6945 32.6366C55.0135 32.2285 53.9471 31.7302 53.327 31.5318C52.6844 31.3267 51.1806 31.1395 49.8323 31.0967C48.245 31.0471 47.0928 31.1305 46.3375 31.347ZM1.80737 49.4363C2.48828 49.4814 3.65621 49.4814 4.40026 49.4363C5.14431 49.3912 4.58514 49.3552 3.16018 49.3552C1.73522 49.3552 1.12419 49.3912 1.80737 49.4363ZM10.9389 49.4386C13.543 49.4747 17.7548 49.4747 20.2958 49.4386C22.8369 49.4025 20.7062 49.3732 15.561 49.3732C10.4158 49.3732 8.33469 49.4025 10.9389 49.4386ZM1.69012 75.1984C1.69012 86.9183 1.71718 91.7366 1.751 85.9082C1.78482 80.0798 1.78482 70.4906 1.751 64.6014C1.71718 58.7099 1.69012 63.4785 1.69012 75.1984ZM39.5486 59.3028C39.5509 61.039 39.5847 61.6996 39.6275 60.7684C39.6704 59.8395 39.6704 58.419 39.6275 57.6118C39.5847 56.8046 39.5486 57.5667 39.5486 59.3028ZM15.4099 57.95C15.4099 58.8181 15.4505 59.1225 15.5001 58.6264C15.5474 58.1304 15.5474 57.4202 15.4978 57.0482C15.4482 56.6761 15.4077 57.082 15.4099 57.95ZM23.4524 59.5847C25.3734 59.623 28.4172 59.623 30.2165 59.5847C32.0157 59.5464 30.4419 59.5148 26.7217 59.5148C23.0014 59.5148 21.5314 59.5464 23.4524 59.5847ZM15.4099 63.8122C15.4099 64.6803 15.4505 64.9847 15.5001 64.4886C15.5474 63.9926 15.5474 63.2824 15.4978 62.9103C15.4482 62.5383 15.4077 62.9442 15.4099 63.8122ZM11.5025 65.8956C12.1834 65.9407 13.1981 65.9406 13.7572 65.8933C14.3164 65.8482 13.7572 65.8099 12.5171 65.8121C11.2771 65.8121 10.8216 65.8505 11.5025 65.8956ZM11.9535 74.4656C13.7527 74.504 16.5914 74.504 18.2666 74.4656C19.9418 74.4273 18.4695 74.3957 14.9973 74.3957C11.5251 74.3957 10.1542 74.4273 11.9535 74.4656ZM9.36058 92.2777C10.8487 92.316 13.1823 92.316 14.5464 92.2777C15.9104 92.2371 14.6929 92.2055 11.8407 92.2055C8.98855 92.2055 7.87248 92.2371 9.36058 92.2777ZM3.83659 98.3631C4.39575 98.4082 5.3585 98.4082 5.97854 98.3631C6.59858 98.3157 6.14313 98.2774 4.96393 98.2774C3.78473 98.2774 3.27742 98.3157 3.83659 98.3631Z" fill="#DFF2F5"/>
<path d="M58.5678 36.5936C58.4912 37.1798 58.4213 45.6484 58.4145 55.4135C58.4078 65.1786 58.4776 73.1692 58.5701 73.1692C58.6625 73.1692 60.7346 71.6202 63.1764 69.7308C65.616 67.8391 71.0318 63.6544 75.2097 60.4302C79.3899 57.206 82.8418 54.5184 82.8824 54.4553C82.923 54.3944 82.4315 53.9367 81.7866 53.4407C81.144 52.9446 77.2164 49.8985 73.0587 46.6698C68.9033 43.4411 64.1392 39.7366 62.4707 38.4402C60.8022 37.1415 59.2713 35.9555 59.0706 35.8045C58.7505 35.5632 58.6896 35.6602 58.5678 36.5936ZM111.713 39.306C109.226 41.2518 104.66 44.8142 101.567 47.2245C98.4736 49.6347 95.1795 52.2118 94.2505 52.9514C93.3194 53.6932 92.5595 54.3696 92.5595 54.4575C92.5595 54.5455 96.769 57.8982 101.916 61.907C107.064 65.9158 112.313 69.9878 113.585 70.9573C114.856 71.9246 115.947 72.8197 116.008 72.9437C116.069 73.0677 116.223 73.1692 116.347 73.1692C116.495 73.1692 116.572 66.7817 116.572 54.4553C116.572 44.1626 116.495 35.7481 116.403 35.7549C116.31 35.7616 114.2 37.358 111.713 39.306ZM86.641 53.7811C86.3614 53.9051 82.8103 56.5702 78.7496 59.7064C74.6889 62.8427 69.1852 67.0973 66.5179 69.1603C63.8506 71.2256 61.314 73.2211 60.8811 73.5953L60.092 74.2785C102.64 74.292 114.958 74.2199 114.913 74.1274C114.867 74.035 112.103 71.8322 108.769 69.2348C105.434 66.6374 100.169 62.5361 97.0689 60.119C93.9687 57.702 90.873 55.285 90.1921 54.7461C89.3376 54.072 88.6724 53.736 88.0502 53.6639C87.5541 53.6052 86.9206 53.6594 86.641 53.7811Z" fill="#69C8F4"/>
<path d="M41.0504 3.98629C40.8723 4.13961 40.7437 4.52516 40.7663 4.84082C40.7888 5.15648 40.9376 5.54428 41.0932 5.70211C41.251 5.85768 41.6073 5.9862 41.8869 5.98394C42.1664 5.98169 42.5385 5.75171 42.7143 5.47213C42.9691 5.06629 42.9804 4.85209 42.7639 4.40115C42.6039 4.06295 42.2724 3.81042 41.9342 3.77209C41.6253 3.73602 41.2285 3.83072 41.0504 3.98629ZM45.6094 3.88483C45.456 3.94345 45.2283 4.1847 45.1021 4.42144C44.9502 4.70854 44.9495 5.0024 45.0998 5.30303C45.3162 5.73593 45.553 5.75396 51.0184 5.75847C55.6585 5.76073 56.7949 5.69986 57.1624 5.43155C57.5818 5.12491 57.5908 5.05952 57.2661 4.47105L56.9189 3.83748C48.3713 3.79239 45.7627 3.82846 45.6094 3.88483ZM68.3772 30.7247L68.4358 41.0399C74.9384 46.1061 77.1209 47.8062 77.4794 48.0835C77.8379 48.3631 78.5368 48.9042 79.0329 49.2875C79.5289 49.6731 80.2391 50.2277 80.6112 50.5231C80.9832 50.8207 81.9459 51.5557 82.7531 52.16L84.2187 53.258C86.4914 52.045 86.9085 51.9458 87.9524 52.0112C88.8498 52.0653 89.4743 52.2637 90.1507 52.7079L91.0955 53.3279C96.7953 48.8727 100.344 46.1061 102.66 44.3092L106.872 41.0399L106.878 20.4094H68.3186L68.3772 30.7247ZM7.22101 60.8248L7.21875 64.0377C12.2016 64.297 13.6672 64.3466 13.6942 64.3173C13.719 64.288 13.8092 63.0456 13.8926 61.5575C13.9783 60.0694 13.9828 58.5723 13.9039 58.2319L13.7596 57.6118H7.22101V60.8248ZM37.851 66.9575C37.8081 66.9981 37.3662 67.0928 36.8702 67.1672C36.3741 67.2439 35.8172 67.3363 35.6301 67.3746C35.4452 67.413 34.886 67.5753 34.39 67.7354C33.894 67.8977 32.8298 68.3554 32.0226 68.7522C31.2177 69.1513 30.2594 69.724 29.8942 70.0261C29.5312 70.3283 28.9855 70.8288 28.6834 71.14C28.3813 71.4489 27.9123 72.0599 27.6395 72.4928C27.3667 72.9257 27.0059 73.7892 26.8368 74.4093C26.67 75.0293 26.5482 76.0439 26.5685 76.6639C26.5888 77.284 26.6406 77.9424 26.688 78.1295C26.7331 78.3166 26.8458 78.6706 26.9383 78.9186C27.0307 79.1667 27.2742 79.701 27.4794 80.1046C27.6846 80.5082 28.2685 81.268 28.7758 81.7956C29.2831 82.321 29.9753 83.0041 30.3113 83.3153C30.8006 83.764 30.8998 84.0165 30.8028 84.5554C30.7352 84.9274 30.4759 85.7639 30.2256 86.4155C29.9731 87.0671 29.7724 87.7255 29.7769 87.881C29.7814 88.0749 30.1196 87.9983 30.8479 87.6398C31.4319 87.3534 32.1218 86.9972 32.3788 86.8506C32.6359 86.7041 33.2717 86.305 33.788 85.9645C34.3066 85.6241 34.8049 85.3851 34.8973 85.4347C34.992 85.4843 35.4723 85.6061 35.9683 85.703C36.4643 85.8 38.0381 85.8811 39.4631 85.8834C40.8903 85.8856 42.3603 85.818 42.7324 85.7301C43.1044 85.6444 43.765 85.4617 44.1979 85.3265C44.6331 85.1912 45.3433 84.9251 45.7762 84.7357C46.2114 84.5463 47.0726 84.0796 47.6927 83.7008C48.3127 83.3198 49.2259 82.596 49.7219 82.0887C50.2179 81.5837 50.9079 80.6638 51.2551 80.0437C51.6023 79.4259 51.9495 78.6143 52.0285 78.2422C52.1074 77.8702 52.1705 77.0585 52.166 76.4385C52.1637 75.8184 51.9879 74.8038 51.7737 74.1838C51.5595 73.5638 51.219 72.8017 51.0161 72.4928C50.8132 72.1816 50.3893 71.6405 50.0736 71.2865C49.7557 70.9348 48.9891 70.2764 48.3691 69.8232C47.7491 69.37 46.7863 68.7861 46.2271 68.5223C45.6702 68.2585 44.9081 67.9361 44.5361 67.8053C44.1641 67.6768 43.5553 67.4986 43.1833 67.4107C42.8113 67.3228 42.2544 67.2123 41.9432 67.1672C41.6343 67.1199 40.6039 67.0387 39.6547 66.9823C38.7055 66.9282 37.8938 66.9169 37.851 66.9575ZM51.6722 82.4134L50.7365 83.5408C53.2009 83.5408 53.9111 83.4303 54.078 83.2589C54.229 83.1033 54.3508 82.6975 54.3485 82.357C54.3463 81.9647 54.1794 81.6536 53.8931 81.5115C53.6451 81.3875 53.255 81.2861 53.025 81.2861C52.795 81.2861 52.1863 81.7934 51.6722 82.4134Z" fill="#FCFCFB"/>
<path d="M85.9839 12.0107C85.5916 12.2272 83.4451 13.8258 81.213 15.5619L77.1568 18.7184C85.2489 18.8131 90.004 18.8131 92.9464 18.7793L98.2945 18.7184C96.2946 17.1199 94.5495 15.74 93.1222 14.6217C91.695 13.5033 90.1731 12.3692 89.7402 12.1032C89.2104 11.7785 88.579 11.6184 87.8237 11.6162C87.1676 11.6162 86.3988 11.7808 85.9839 12.0107ZM63.1777 30.1745L59.8047 32.923C64.986 33.0199 66.5462 33.0199 66.6139 32.9861C66.6837 32.95 66.6973 31.6852 66.6454 30.1745L66.5507 27.426L63.1777 30.1745ZM108.468 30.2106L108.454 33.0357C113.696 33.0357 115.225 32.9884 115.232 32.9297C115.241 32.8734 113.726 31.6017 111.865 30.1046L108.483 27.3832L108.468 30.2106ZM61.3424 34.6117L60.1158 34.729L66.6274 39.7524C66.7131 35.8586 66.7131 34.7155 66.6837 34.7019C66.6522 34.6862 65.7142 34.6343 64.5982 34.5847C63.4821 34.5351 62.0165 34.5486 61.3424 34.6117ZM108.443 37.2655L108.432 39.9148C109.757 38.8754 111.311 37.6804 112.736 36.5869L115.329 34.5982L108.452 34.6163L108.443 37.2655Z" fill="#1E94E0"/>
<path d="M51.0717 83.7031C51.4437 83.7527 52.154 83.7527 52.65 83.7054C53.146 83.6557 52.8416 83.6152 51.9736 83.6152C51.1055 83.6129 50.6997 83.6535 51.0717 83.7031Z" fill="#DFF2F5"/>
<path d="M73.1688 27.9785C72.9659 28.1746 72.8036 28.4023 72.8103 28.4858C72.8171 28.5692 72.9524 28.7676 73.1079 28.9254C73.3334 29.1486 76.4652 29.2095 87.7679 29.2073C101.952 29.2027 102.144 29.196 102.254 28.7518C102.315 28.5038 102.241 28.143 102.085 27.9536C101.837 27.6448 100.151 27.6064 87.671 27.6154C75.1394 27.6222 73.498 27.6651 73.1688 27.9785ZM73.0809 33.3176C72.9411 33.4731 72.8802 33.7775 72.9434 33.994C73.0493 34.3637 73.9422 34.3885 87.5988 34.3885C100.324 34.3885 102.155 34.3457 102.254 34.0503C102.315 33.8654 102.315 33.5588 102.254 33.3739C102.155 33.0786 100.34 33.0357 87.7364 33.0357C76.4967 33.0357 73.2771 33.0966 73.0809 33.3176ZM83.5968 38.3816C73.7844 38.4425 73.0493 38.474 72.9434 38.8415C72.8802 39.058 72.9569 39.3669 73.1125 39.527C73.3379 39.7615 76.2916 39.8178 87.7679 39.8088C100.338 39.802 102.155 39.757 102.254 39.4616C102.315 39.2767 102.315 38.9701 102.254 38.7852C102.162 38.5056 101.573 38.447 98.8159 38.4492C96.9874 38.4515 95.1859 38.4222 94.8139 38.3838C94.4418 38.3455 89.3936 38.3455 83.5968 38.3816ZM75.773 43.7816C75.5904 43.847 75.4664 44.1356 75.4912 44.4399C75.5205 44.8007 75.7099 45.0262 76.0436 45.1051C76.3231 45.1705 80.1426 45.1953 84.5302 45.1614C91.6776 45.1051 92.5366 45.06 92.7598 44.724C92.9515 44.4377 92.9289 44.2618 92.6719 43.98C92.3698 43.6531 91.4566 43.6147 84.2168 43.6395C79.7525 43.6553 75.9534 43.7184 75.773 43.7816ZM33.4795 75.8365C33.2518 76.062 33.085 76.4182 33.1075 76.6256C33.1301 76.8331 33.4029 77.1532 33.7118 77.3404C34.1221 77.5861 34.3994 77.6177 34.7264 77.4531C35.027 77.3028 35.1773 77.0022 35.1773 76.5512C35.1773 76.1003 35.027 75.7997 34.7264 75.6494C34.4784 75.5253 34.1898 75.4239 34.0838 75.4239C33.9778 75.4239 33.705 75.6088 33.4795 75.8365ZM38.6721 75.7779C38.4692 75.974 38.3091 76.328 38.3181 76.567C38.3271 76.806 38.5616 77.1487 38.8412 77.3268C39.1208 77.505 39.5018 77.5884 39.6867 77.5117C39.8738 77.4351 40.0993 77.2637 40.1895 77.1307C40.2819 76.9977 40.3586 76.6617 40.3586 76.3821C40.3608 76.098 40.1647 75.7756 39.9122 75.6494C39.6641 75.5253 39.3665 75.4239 39.2515 75.4239C39.1365 75.4239 38.875 75.584 38.6721 75.7779ZM43.8737 75.8185C43.6076 76.0868 43.5242 76.4114 43.6144 76.8331C43.691 77.1961 43.9323 77.5005 44.1961 77.5658C44.4441 77.6267 44.8499 77.5771 45.0979 77.4531C45.3986 77.3028 45.5489 77.0022 45.5489 76.5512C45.5489 76.1003 45.3986 75.7997 45.0979 75.6494C44.8499 75.5253 44.5613 75.4239 44.4554 75.4239C44.3494 75.4239 44.0878 75.602 43.8737 75.8185Z" fill="#162F74"/>
<path d="M80.9466 39.9689C82.2475 40.0072 84.4797 40.0072 85.9069 39.9689C87.3341 39.9283 86.2677 39.8967 83.5395 39.8967C80.8113 39.8967 79.6456 39.9283 80.9466 39.9689ZM92.1073 39.9689C93.8434 40.0072 96.7339 40.0072 98.5332 39.9689C100.332 39.9306 98.9097 39.899 95.3766 39.899C91.8435 39.899 90.3712 39.9306 92.1073 39.9689Z" fill="#DFF2F5"/>
</svg>
