<svg width="24" height="9" viewBox="-4 0 24 9" fill="none" xmlns="http://www.w3.org/2000/svg">
<g id="&#208;&#159;&#209;&#128;&#208;&#190;&#209;&#135;&#208;&#184;&#209;&#130;&#208;&#176;&#208;&#189;&#208;&#190;">
<path id="Vector" d="M11.47 0.159766C11.27 -0.0402344 10.96 -0.0402344 10.76 0.159766L4.05 6.86977L0.86 3.68977C0.66 3.48977 0.35 3.48977 0.15 3.68977C-0.05 3.88977 -0.05 4.19977 0.15 4.39977L3.69 7.93977C3.89 8.13977 4.2 8.13977 4.4 7.93977L11.47 0.869766C11.67 0.669766 11.67 0.349766 11.47 0.159766Z" fill="#46DE00"/>
<path id="Vector_2" d="M7.15 7.93C6.95 7.73 6.95 7.42 7.15 7.22L14.22 0.15C14.42 -0.05 14.73 -0.05 14.93 0.15C15.13 0.35 15.13 0.66 14.93 0.86L7.86 7.93C7.66 8.13 7.35 8.13 7.15 7.93Z" fill="#46DE00"/>
</g>
</svg>
