<svg width="24" height="24" viewBox="-2 -2 24 24" fill="none" xmlns="http://www.w3.org/2000/svg">
<g id="Group 6">
<path id="Vector" d="M15.6198 15.6502C16.0098 15.2702 16.6298 15.2702 17.0098 15.6502L19.5598 17.7102H19.5998C20.1198 18.2302 20.1198 19.0802 19.5998 19.6002C19.0798 20.1202 18.2498 20.1202 17.7298 19.6002L15.6098 17.1702L15.5298 17.0802C15.3798 16.8902 15.2998 16.6502 15.2998 16.4102C15.2998 16.1202 15.4098 15.8502 15.6098 15.6502H15.6198Z" fill="#0064FF"/>
<path id="Vector_2" d="M8.58 1.5C10.47 1.5 12.24 2.24 13.58 3.59C14.92 4.94 15.66 6.75 15.66 8.67C15.66 12.62 12.48 15.84 8.58 15.84C4.68 15.84 1.5 12.62 1.5 8.67C1.5 4.72 4.68 1.5 8.58 1.5ZM8.58 0C3.84 0 0 3.88 0 8.67C0 13.46 3.84 17.34 8.58 17.34C13.32 17.34 17.16 13.46 17.16 8.67C17.16 6.37 16.26 4.17 14.65 2.54C13.04 0.91 10.86 0 8.58 0Z" fill="#0064FF"/>
</g>
</svg>
