<svg width="24" height="19" viewBox="-1.5 0 24 19" fill="none" xmlns="http://www.w3.org/2000/svg">
<g id="&#208;&#158;&#209;&#130;&#208;&#191;&#209;&#128;&#208;&#176;&#208;&#178;&#208;&#184;&#209;&#130;&#209;&#140;">
<path id="Vector" d="M5.20697 18.0865L5.20597 18.087C3.95083 18.7185 2.4707 17.804 2.4707 16.3937V2.39366C2.4707 0.987309 3.9481 0.0758211 5.20767 0.701161C5.20785 0.701253 5.20804 0.701345 5.20822 0.701436L19.5249 7.85977C19.5252 7.85993 19.5255 7.86009 19.5258 7.86025C20.7782 8.49504 20.7796 10.2908 19.5165 10.9267C19.5164 10.9268 19.5162 10.9269 19.516 10.927L5.20697 18.0865Z" stroke="#0064FF"/>
<path id="Vector_2" d="M14.39 10.0636L1.97 12.3936L0.72 11.1436C-0.24 10.1736 -0.24 8.61355 0.72 7.64355L1.97 6.39355L14.39 8.72356C15.13 8.86356 15.13 9.92356 14.39 10.0636Z" fill="#0064FF"/>
</g>
</svg>
