<svg width="16" height="17" viewBox="0 0 16 17" fill="none" xmlns="http://www.w3.org/2000/svg">
<path fill-rule="evenodd" clip-rule="evenodd" d="M9.33321 4.0274C9.33321 4.22031 9.35342 4.40847 9.39181 4.58986L6.01117 6.29183C5.52229 5.72689 4.8025 5.36986 3.99988 5.36986C2.52712 5.36986 1.33321 6.572 1.33321 8.0549C1.33321 9.53781 2.52712 10.7399 3.99988 10.7399C4.80251 10.7399 5.52232 10.3829 6.01119 9.81795L9.39185 11.5199C9.35343 11.7014 9.33321 11.8896 9.33321 12.0826C9.33321 13.5655 10.5271 14.7676 11.9999 14.7676C13.4726 14.7676 14.6665 13.5655 14.6665 12.0826C14.6665 10.5997 13.4726 9.39753 11.9999 9.39753C11.1973 9.39753 10.4775 9.75452 9.98867 10.3194L6.60794 8.61739C6.64634 8.436 6.66654 8.24783 6.66654 8.0549C6.66654 7.86196 6.64633 7.67378 6.60793 7.49237L9.98854 5.79042C10.4774 6.35538 11.1972 6.71244 11.9999 6.71244C13.4726 6.71244 14.6665 5.5103 14.6665 4.0274C14.6665 2.54449 13.4726 1.34236 11.9999 1.34236C10.5271 1.34236 9.33321 2.54449 9.33321 4.0274ZM5.33321 8.05499C5.33321 8.79645 4.73626 9.39751 3.99988 9.39751C3.2635 9.39751 2.66654 8.79645 2.66654 8.05499C2.66654 7.31354 3.2635 6.71247 3.99988 6.71247C4.73626 6.71247 5.33321 7.31354 5.33321 8.05499ZM11.9999 5.36984C12.7363 5.36984 13.3332 4.76878 13.3332 4.02732C13.3332 3.28587 12.7363 2.6848 11.9999 2.6848C11.2635 2.6848 10.6665 3.28587 10.6665 4.02732C10.6665 4.76878 11.2635 5.36984 11.9999 5.36984ZM13.3332 12.0825C13.3332 12.824 12.7363 13.425 11.9999 13.425C11.2635 13.425 10.6665 12.824 10.6665 12.0825C10.6665 11.341 11.2635 10.74 11.9999 10.74C12.7363 10.74 13.3332 11.341 13.3332 12.0825Z" fill="#0064FF"/>
</svg>
