<svg width="16" height="17" viewBox="0 0 16 17" fill="none" xmlns="http://www.w3.org/2000/svg">
<path fill-rule="evenodd" clip-rule="evenodd" d="M8.00008 15.439C3.94999 15.439 0.666748 12.1331 0.666748 8.0551C0.666748 3.9771 3.94999 0.671234 8.00008 0.671234C12.0502 0.671234 15.3334 3.9771 15.3334 8.0551C15.3334 12.1331 12.0502 15.439 8.00008 15.439ZM8.00006 14.0964C11.3138 14.0964 14.0001 11.3916 14.0001 8.0551C14.0001 4.71856 11.3138 2.01376 8.00006 2.01376C4.68635 2.01376 2.00006 4.71856 2.00006 8.0551C2.00006 11.3916 4.68635 14.0964 8.00006 14.0964ZM11.3334 7.3839H8.66673V4.0276H7.33339V8.72642H11.3334V7.3839Z" fill="#0064FF"/>
</svg>
