<svg width="32" height="33" viewBox="0 0 32 33" fill="none" xmlns="http://www.w3.org/2000/svg">
<path fill-rule="evenodd" clip-rule="evenodd" d="M15.9999 30.878C7.89974 30.878 1.33325 24.2662 1.33325 16.1103C1.33325 7.95426 7.89974 1.34253 15.9999 1.34253C24.1001 1.34253 30.6666 7.95426 30.6666 16.1103C30.6666 24.2662 24.1001 30.878 15.9999 30.878ZM16 28.193C22.6274 28.193 28 22.7834 28 16.1103C28 9.43719 22.6274 4.02759 16 4.02759C9.37258 4.02759 4 9.43719 4 16.1103C4 22.7834 9.37258 28.193 16 28.193ZM20.3906 11.1334L13.3334 18.2392L10.2762 15.1609L8.39062 17.0596L13.3334 22.0364L22.2762 13.032L20.3906 11.1334Z" fill="#0064FF"/>
</svg>
