<svg width="24" height="24" viewBox="-3 -3 24 24" fill="none" xmlns="http://www.w3.org/2000/svg">
<path fill-rule="evenodd" clip-rule="evenodd" d="M9 0C8.3742 0 7.75297 0.110313 7.17119 0.32613C6.58938 0.541958 6.05585 0.860065 5.60284 1.26577C5.14968 1.67161 4.78526 2.1579 4.53483 2.69935C4.38345 3.02664 4.27593 3.36939 4.21453 3.72006H0.692308C0.309957 3.72006 0 4.03235 0 4.41757C0 4.8028 0.309957 5.11509 0.692308 5.11509H1.84615V9.16223C1.84615 10.6812 2.05998 12.1924 2.48125 13.6508C3.11125 15.8318 4.92504 17.4569 7.14857 17.8324L7.29418 17.857C8.4235 18.0477 9.57646 18.0477 10.7058 17.857L10.8514 17.8324C13.0749 17.4569 14.8887 15.8319 15.5187 13.6509C15.94 12.1924 16.1538 10.6811 16.1538 9.1622V5.11509H17.3077C17.69 5.11509 18 4.8028 18 4.41757C18 4.03235 17.69 3.72006 17.3077 3.72006H13.7855C13.7241 3.36939 13.6165 3.02664 13.4652 2.69935C13.2147 2.1579 12.8503 1.67161 12.3972 1.26577C11.9441 0.860066 11.4106 0.541959 10.8288 0.32613C10.247 0.110313 9.62581 0 9 0ZM7.64959 1.63524C8.07575 1.47716 8.53482 1.39502 9 1.39502C9.46518 1.39502 9.92426 1.47716 10.3504 1.63524C10.7765 1.79331 11.1588 2.02324 11.4773 2.30842C11.7955 2.59346 12.0431 2.92736 12.2101 3.28858C12.2753 3.42941 12.3278 3.57365 12.3678 3.72006L5.63224 3.72006C5.67215 3.57365 5.72473 3.42941 5.78987 3.28858C5.95694 2.92736 6.20445 2.59346 6.52273 2.30842C6.84116 2.02324 7.22347 1.79331 7.64959 1.63524ZM7.15385 8.37014C7.5362 8.37014 7.84615 8.68243 7.84615 9.06765V12.7877C7.84615 13.1729 7.5362 13.4852 7.15385 13.4852C6.7715 13.4852 6.46154 13.1729 6.46154 12.7877V9.06765C6.46154 8.68243 6.7715 8.37014 7.15385 8.37014ZM10.8462 8.37014C11.2285 8.37014 11.5385 8.68243 11.5385 9.06765V12.7877C11.5385 13.1729 11.2285 13.4852 10.8462 13.4852C10.4638 13.4852 10.1538 13.1729 10.1538 12.7877V9.06765C10.1538 8.68243 10.4638 8.37014 10.8462 8.37014Z" fill="#0064FF"/>
</svg>
