<svg width="32" height="32" viewBox="0 0 32 32" fill="none" xmlns="http://www.w3.org/2000/svg">
<path d="M23.2535 20.4937C23.0002 20.4937 22.7468 20.4004 22.5468 20.2004C22.1602 19.8137 22.1602 19.1737 22.5468 18.7871L25.2535 16.0804L22.5468 13.3737C22.1602 12.9871 22.1602 12.3471 22.5468 11.9604C22.9335 11.5737 23.5735 11.5737 23.9602 11.9604L27.3735 15.3737C27.7602 15.7604 27.7602 16.4004 27.3735 16.7871L23.9602 20.2004C23.7602 20.4004 23.5068 20.4937 23.2535 20.4937Z" fill="#212421"/>
<path d="M26.5727 17.0796H13.0127C12.466 17.0796 12.0127 16.6263 12.0127 16.0796C12.0127 15.5329 12.466 15.0796 13.0127 15.0796H26.5727C27.1194 15.0796 27.5727 15.5329 27.5727 16.0796C27.5727 16.6263 27.1194 17.0796 26.5727 17.0796Z" fill="#212421"/>
<path d="M15.6794 27.6668C8.8127 27.6668 4.0127 22.8668 4.0127 16.0002C4.0127 9.1335 8.8127 4.3335 15.6794 4.3335C16.226 4.3335 16.6794 4.78683 16.6794 5.3335C16.6794 5.88016 16.226 6.3335 15.6794 6.3335C9.98603 6.3335 6.0127 10.3068 6.0127 16.0002C6.0127 21.6935 9.98603 25.6668 15.6794 25.6668C16.226 25.6668 16.6794 26.1202 16.6794 26.6668C16.6794 27.2135 16.226 27.6668 15.6794 27.6668Z" fill="#212421"/>
</svg>
