<svg width="173" height="27" viewBox="0 0 173 27" fill="none" xmlns="http://www.w3.org/2000/svg">
<g id="&#208;&#155;&#208;&#190;&#208;&#179;&#208;&#190;">
<path id="Vector" d="M0 22.4H4.1V3.52H15.71V22.4H19.81V0H0V22.4Z" fill="#0064FF"/>
<path id="Vector_2" d="M37.7791 6.90012C36.4291 5.72012 34.5091 5.12012 32.0391 5.12012C30.6691 5.12012 29.3591 5.30012 28.0891 5.65012C26.8191 6.00012 25.7291 6.53012 24.8091 7.23012L26.3791 10.1401C27.0191 9.61012 27.7991 9.19012 28.7291 8.89012C29.6591 8.59012 30.5991 8.44012 31.5591 8.44012C32.9891 8.44012 34.0591 8.77012 34.7591 9.42012C35.4591 10.0701 35.8191 10.9801 35.8191 12.1601V12.4201H31.3991C29.6691 12.4201 28.2791 12.6401 27.2391 13.0901C26.1891 13.5401 25.4391 14.1501 24.9791 14.9101C24.5191 15.6801 24.2891 16.5401 24.2891 17.5001C24.2891 18.4601 24.5491 19.3601 25.0691 20.1401C25.5891 20.9201 26.3291 21.5301 27.2891 21.9601C28.2491 22.3901 29.3691 22.6201 30.6491 22.6201C32.1591 22.6201 33.4191 22.3401 34.4091 21.7901C35.0991 21.4101 35.6291 20.9101 36.0291 20.3001V22.3901H39.8091V12.3701C39.8091 9.90012 39.1291 8.07012 37.7791 6.88012V6.90012ZM34.1291 19.0401C33.3491 19.4901 32.4691 19.7101 31.4891 19.7101C30.5091 19.7101 29.6691 19.5001 29.0891 19.0701C28.5091 18.6401 28.2291 18.0701 28.2291 17.3401C28.2291 16.7001 28.4591 16.1601 28.9291 15.7201C29.3991 15.2801 30.3191 15.0601 31.6791 15.0601H35.8091V17.0401C35.4691 17.9201 34.9091 18.5801 34.1291 19.0201V19.0401Z" fill="#0064FF"/>
<path id="Vector_3" d="M60.9295 5.31055H56.9295V19.0105H48.7695V5.31055H44.7695V22.4005H56.9295H59.7695V26.2105H63.5195V19.0105H60.9295V5.31055Z" fill="#0064FF"/>
<path id="Vector_4" d="M71.0703 16.5805V5.31055H67.0703V22.4005H70.7503L80.1603 11.1405V22.4005H84.1603V5.31055H80.5103L71.0703 16.5805Z" fill="#0064FF"/>
<path id="Vector_5" d="M101.341 6.21012C100.041 5.48012 98.5608 5.12012 96.8908 5.12012C95.2208 5.12012 93.6608 5.49012 92.3308 6.24012C91.0008 6.99012 89.9508 8.02012 89.1908 9.33012C88.4308 10.6401 88.0508 12.1501 88.0508 13.8601C88.0508 15.5701 88.4408 17.0501 89.2208 18.3701C90.0008 19.6901 91.1008 20.7301 92.5208 21.4901C93.9408 22.2501 95.6008 22.6301 97.5008 22.6301C98.9908 22.6301 100.321 22.3901 101.481 21.9101C102.641 21.4301 103.611 20.7401 104.381 19.8501L102.241 17.3901C101.641 18.0301 100.961 18.5001 100.191 18.8001C99.4208 19.1001 98.5608 19.2501 97.6008 19.2501C96.4908 19.2501 95.5108 19.0401 94.6608 18.6101C93.8108 18.1801 93.1508 17.5801 92.6808 16.7901C92.3808 16.2901 92.1908 15.7501 92.0808 15.1601H105.481C105.501 14.9701 105.521 14.7701 105.531 14.5501C105.541 14.3401 105.551 14.1501 105.551 13.9701C105.551 12.1801 105.181 10.6201 104.431 9.30012C103.681 7.98012 102.661 6.95012 101.361 6.23012L101.341 6.21012ZM92.5908 10.7401C93.0108 9.98012 93.5808 9.39012 94.3208 8.96012C95.0608 8.53012 95.9108 8.32012 96.9008 8.32012C97.8908 8.32012 98.7108 8.53012 99.4408 8.96012C100.171 9.39012 100.761 9.97012 101.181 10.7201C101.481 11.2501 101.661 11.8401 101.741 12.4801H92.0308C92.1208 11.8401 92.3008 11.2501 92.5808 10.7401H92.5908Z" fill="#0064FF"/>
<path id="Vector_6" d="M132.441 8.70055H138.451V22.4005H142.451V8.70055H148.441V5.31055H132.441V8.70055Z" fill="#0064FF"/>
<path id="Vector_7" d="M172.6 5.31055H168.6V22.4005H172.6V5.31055Z" fill="#0064FF"/>
<path id="Vector_8" d="M159.67 10.9405L155.35 10.9105V5.31055H151.35V22.4005L159.09 22.4305C161.42 22.4505 163.21 21.9405 164.48 20.9105C165.75 19.8805 166.38 18.4305 166.38 16.5705C166.38 14.7105 165.81 13.3905 164.67 12.4105C163.53 11.4305 161.86 10.9405 159.66 10.9405H159.67ZM161.43 18.7505C160.81 19.2605 159.92 19.5105 158.74 19.4905L155.35 19.4605V13.6705L158.74 13.7005C159.93 13.7205 160.84 13.9505 161.44 14.3905C162.05 14.8305 162.35 15.5405 162.35 16.5205C162.35 17.5005 162.04 18.2505 161.42 18.7605L161.43 18.7505Z" fill="#0064FF"/>
<path id="Vector_9" d="M133.07 12.2405H126.53V5.31055H122.53V12.2405H115.98V15.6505H122.53V22.4005H126.53V15.6505H133.07V12.2405Z" fill="#FF4633"/>
<path id="Vector_10" d="M115.98 12.2605H113.92V5.31055H109.92V22.4005H113.92V15.6505H115.98V12.2605Z" fill="#0064FF"/>
</g>
</svg>
