<svg width="24" height="24" viewBox="37.5 10 24 24" fill="none" xmlns="http://www.w3.org/2000/svg">
<g id="&#208;&#148;&#208;&#190;&#208;&#177;&#208;&#176;&#208;&#178;&#208;&#184;&#209;&#130;&#209;&#140;">
<g id="&#208;&#144;&#208;&#186;&#209;&#130;&#208;&#184;&#208;&#178;&#208;&#189;&#208;&#190;">
<g id="Group 8">
<path id="Vector" d="M50 31C42.62 31 40 28.38 40 21C40 13.62 42.62 11 50 11C50.41 11 50.75 11.34 50.75 11.75C50.75 12.16 50.41 12.5 50 12.5C43.49 12.5 41.5 14.49 41.5 21C41.5 27.51 43.49 29.5 50 29.5C56.51 29.5 58.5 27.51 58.5 21C58.5 20.59 58.84 20.25 59.25 20.25C59.66 20.25 60 20.59 60 21C60 28.38 57.38 31 50 31Z" fill="#0064FF"/>
<g id="Group">
<path id="Vector_2" fill-rule="evenodd" clip-rule="evenodd" d="M55.5399 18.0401L53.2199 15.9801L53.0699 15.8501L52.7699 15.5801L52.7499 15.5601L51.9499 14.8501L47.6999 19.6501C45.8799 21.7101 47.1199 24.4301 47.1799 24.5401C47.2699 24.7301 47.4299 24.8701 47.6299 24.9301C47.6899 24.9501 48.3499 25.1501 49.2299 25.1501C50.2199 25.1501 51.4699 24.8901 52.4199 23.8101L56.6699 19.0101L55.5499 18.0201L55.5399 18.0401Z" fill="#0064FF"/>
<path id="Vector_3" fill-rule="evenodd" clip-rule="evenodd" d="M58.0295 12.74C57.3995 12.18 56.5895 11.9 55.7495 11.95C54.9095 12 54.1395 12.38 53.5795 13.01L52.9395 13.73L53.9295 14.61L53.9695 14.65L54.0595 14.73L54.1995 14.86L56.5295 16.92L57.6495 17.91L58.2895 17.19C59.4395 15.89 59.3195 13.89 58.0195 12.74H58.0295Z" fill="#0064FF"/>
</g>
</g>
</g>
</g>
</svg>
