<svg width="40" height="40" viewBox="30 10 40 40" fill="none" xmlns="http://www.w3.org/2000/svg">
<g id="Group 824">
<g id="Group 955">
<path id="Vector" d="M30 29.2C30 20.149 30 15.6236 32.7839 12.8118C35.5679 10 40.0486 10 49.0099 10H50.5941C59.5554 10 64.0361 10 66.82 12.8118C69.604 15.6236 69.604 20.149 69.604 29.2V30.8C69.604 39.851 69.604 44.3764 66.82 47.1882C64.0361 50 59.5554 50 50.5941 50H49.0099C40.0486 50 35.5679 50 32.7839 47.1882C30 44.3764 30 39.851 30 30.8V29.2Z" fill="#0064FF"/>
<path id="Vector_2" d="M51.0757 38.818C42.0493 38.818 36.9008 32.568 36.6863 22.168H41.2077C41.3563 29.8013 44.6895 33.0346 47.3298 33.7013V22.168H51.5873V28.7512C54.1946 28.4679 56.9335 25.468 57.8576 22.168H62.1152C61.4056 26.2346 58.4353 29.2346 56.3231 30.4679C58.4353 31.4679 61.8183 34.0846 63.1054 38.818H58.4188C57.4122 35.6513 54.9042 33.2013 51.5873 32.8679V38.818H51.0757Z" fill="#FAFAFC"/>
</g>
</g>
</svg>
