<svg width="24" height="19" viewBox="-3 0 24 19" fill="none" xmlns="http://www.w3.org/2000/svg">
<g id="Group 14">
<path id="Vector" d="M0.5 3H11.1C11.3 4.1 12.3 5 13.5 5C14.7 5 15.7 4.1 15.9 3H17.5C17.8 3 18 2.8 18 2.5C18 2.2 17.8 2 17.5 2H15.9C15.7 0.9 14.7 0 13.5 0C12.3 0 11.3 0.9 11.1 2H0.5C0.2 2 0 2.2 0 2.5C0 2.8 0.2 3 0.5 3Z" fill="#0064FF"/>
<path id="Vector_2" d="M17.5 9H7.9C7.7 7.9 6.7 7 5.5 7C4.3 7 3.3 7.9 3.1 9H0.5C0.2 9 0 9.2 0 9.5C0 9.8 0.2 10 0.5 10H3.1C3.3 11.1 4.3 12 5.5 12C6.7 12 7.7 11.1 7.9 10H17.5C17.8 10 18 9.8 18 9.5C18 9.2 17.8 9 17.5 9Z" fill="#0064FF"/>
<path id="Vector_3" d="M17.5 16H13.9C13.7 14.9 12.7 14 11.5 14C10.3 14 9.3 14.9 9.1 16H0.5C0.2 16 0 16.2 0 16.5C0 16.8 0.2 17 0.5 17H9.1C9.3 18.1 10.3 19 11.5 19C12.7 19 13.7 18.1 13.9 17H17.5C17.8 17 18 16.8 18 16.5C18 16.2 17.8 16 17.5 16Z" fill="#0064FF"/>
</g>
</svg>
