<svg width="24" height="24" viewBox="-5.5 -5.5 24 24" fill="none" xmlns="http://www.w3.org/2000/svg">
<path id="Vector" d="M8.47656 0C5.99609 0 3.97656 2.01953 3.97656 4.5C3.97656 5.55859 4.35938 6.52344 4.97656 7.29297L0 12.2695L0.703125 12.9805L5.68359 8C6.45312 8.61719 7.41797 9 8.47656 9C10.957 9 12.9766 6.98047 12.9766 4.5C12.9766 2.01953 10.957 0 8.47656 0ZM8.47656 1C10.4141 1 11.9766 2.5625 11.9766 4.5C11.9766 6.4375 10.4141 8 8.47656 8C6.53906 8 4.97656 6.4375 4.97656 4.5C4.97656 2.5625 6.53906 1 8.47656 1Z" fill="#525252"/>
</svg>
