<svg width="24" height="22" viewBox="-4 0 24 22" fill="none" xmlns="http://www.w3.org/2000/svg">
<g id="&#208;&#147;&#208;&#190;&#208;&#187;&#208;&#190;&#209;&#129;">
<path id="Vector" d="M12.5 19H9.5V17.925C13.163 17.434 16 14.296 16 10.5C16 9.671 15.328 9 14.5 9C13.672 9 13 9.671 13 10.5C13 12.981 10.981 15 8.5 15H7.5C5.019 15 3 12.981 3 10.5C3 9.671 2.328 9 1.5 9C0.672 9 0 9.671 0 10.5C0 14.296 2.837 17.434 6.5 17.925V19H3.5C2.672 19 2 19.671 2 20.5C2 21.329 2.672 22 3.5 22H12.5C13.328 22 14 21.329 14 20.5C14 19.671 13.328 19 12.5 19ZM8 13C9.657 13 11 11.657 11 10C11 8.343 9.657 7 8 7C6.343 7 5 8.343 5 10C5 11.657 6.343 13 8 13Z" fill="#0064FF"/>
<path id="Vector_2" d="M7 0.5H9C10.9329 0.5 12.5 2.06714 12.5 4V10.5C12.5 12.7089 10.7089 14.5 8.5 14.5H7.5C5.29114 14.5 3.5 12.7089 3.5 10.5V4C3.5 2.06714 5.06714 0.5 7 0.5ZM6 10.5C6 11.6061 6.89386 12.5 8 12.5C9.10614 12.5 10 11.6061 10 10.5C10 9.39386 9.10614 8.5 8 8.5C6.89386 8.5 6 9.39386 6 10.5Z" fill="white" stroke="#0064FF"/>
</g>
</svg>
