<svg width="24" height="24" viewBox="-1.5 0 24 24" fill="none" xmlns="http://www.w3.org/2000/svg">
<g id="&#208;&#163;&#208;&#178;&#208;&#181;&#208;&#180;&#208;&#190;&#208;&#188;&#208;&#187;&#208;&#181;&#208;&#189;&#208;&#184;&#209;&#143;">
<path id="Vector" d="M3.61264 10.9378C3.61264 7.52036 6.383 4.75 9.80042 4.75C13.2178 4.75 15.9882 7.52036 15.9882 10.9378V15.5184L17.6008 19.8572H2L3.61264 15.5184V10.9378Z" stroke="#767579" stroke-width="1.5"/>
<path id="Vector_2" d="M14.808 9.5C15.6032 9.5 16.3597 9.27431 16.9883 8.89468C18.2182 8.15755 19.0508 6.79881 19.0508 5.25C19.0508 2.91031 17.1591 1 14.808 1C13.2716 1 11.9295 1.81555 11.1774 3.03506L12.0285 3.56L11.1782 3.03366C10.7782 3.67982 10.5508 4.43937 10.5508 5.25C10.5508 7.59549 12.4627 9.5 14.808 9.5Z" fill="#FF4633" stroke="white" stroke-width="2"/>
<path id="Vector_3" d="M12.9681 19.8574V20.0834C12.9681 21.8323 11.5503 23.2501 9.80142 23.2501C8.05252 23.2501 6.63477 21.8323 6.63477 20.0834V19.8574" stroke="#767579" stroke-width="1.5"/>
</g>
</svg>
