<svg width="24" height="20" viewBox="-4 0 24 20" fill="none" xmlns="http://www.w3.org/2000/svg">
<g id="&#208;&#155;&#208;&#190;&#208;&#186;&#208;&#176;&#209;&#134;&#208;&#184;&#209;&#143;">
<path id="Vector" d="M9.22722 18.9479L9.22719 18.9479C8.5751 19.682 7.4249 19.682 6.77281 18.9479L6.77278 18.9479C5.61346 17.6431 4.03294 15.7363 2.74516 13.7217C1.44275 11.6843 0.5 9.62713 0.5 8C0.5 3.85814 3.85814 0.5 8 0.5C12.1419 0.5 15.5 3.85814 15.5 8C15.5 9.62713 14.5573 11.6843 13.2548 13.7217C11.9671 15.7363 10.3865 17.6431 9.22722 18.9479Z" stroke="#0064FF"/>
<path id="Vector_2" d="M8 11C9.65685 11 11 9.65685 11 8C11 6.34315 9.65685 5 8 5C6.34315 5 5 6.34315 5 8C5 9.65685 6.34315 11 8 11Z" fill="#0064FF"/>
</g>
</svg>
