<svg width="32" height="32" viewBox="0 0 32 32" fill="none" xmlns="http://www.w3.org/2000/svg">
<g id="Group 449">
<path id="Vector" fill-rule="evenodd" clip-rule="evenodd" d="M14.6264 1.24956C15.0344 0.481585 15.8328 0 16.7032 0C17.5735 0 18.3719 0.481585 18.7799 1.24956L22.7206 8.68134C22.7654 8.76773 22.831 8.84133 22.9094 8.89893C22.9878 8.95653 23.079 8.99493 23.175 9.01093L31.4595 10.4621C32.3171 10.6125 33.0195 11.2237 33.2899 12.0508C33.5587 12.878 33.3491 13.7868 32.7427 14.4124L26.8932 20.457C26.8261 20.5274 26.7749 20.6122 26.7445 20.7034C26.7141 20.7962 26.7061 20.8938 26.7189 20.9914L27.898 29.3191C28.0196 30.1799 27.6564 31.0391 26.9524 31.551C26.2485 32.063 25.3205 32.143 24.5381 31.7606L16.9832 28.0647C16.8968 28.0215 16.8008 27.9991 16.7032 27.9991C16.6056 27.9991 16.5096 28.0215 16.4216 28.0631L8.8666 31.759C8.08422 32.1414 7.15625 32.0598 6.45227 31.5494C5.74829 31.0375 5.3851 30.1799 5.5067 29.3175L6.68586 20.9898C6.70026 20.8938 6.69066 20.7946 6.66027 20.7018C6.62987 20.609 6.58027 20.5242 6.51147 20.4554L0.662048 14.4108C0.0572665 13.7852 -0.153927 12.8764 0.114865 12.0492C0.383657 11.2221 1.08764 10.6109 1.94521 10.4605L10.2298 9.00933C10.3258 8.99173 10.417 8.95333 10.4953 8.89733C10.5737 8.83973 10.6393 8.76613 10.6841 8.67974L14.6264 1.24956Z" fill="#F8E71C"/>
<path id="Vector_2" fill-rule="evenodd" clip-rule="evenodd" d="M60.6264 1.24956C61.0344 0.481585 61.8328 0 62.7032 0C63.5735 0 64.3719 0.481585 64.7799 1.24956L68.7206 8.68134C68.7654 8.76773 68.831 8.84133 68.9094 8.89893C68.9878 8.95653 69.079 8.99493 69.175 9.01093L77.4595 10.4621C78.3171 10.6125 79.0195 11.2237 79.2899 12.0508C79.5587 12.878 79.3491 13.7868 78.7427 14.4124L72.8932 20.457C72.8261 20.5274 72.7749 20.6122 72.7445 20.7034C72.7141 20.7962 72.7061 20.8938 72.7189 20.9914L73.898 29.3191C74.0196 30.1799 73.6564 31.0391 72.9524 31.551C72.2485 32.063 71.3205 32.143 70.5381 31.7606L62.9832 28.0647C62.8968 28.0215 62.8008 27.9991 62.7032 27.9991C62.6056 27.9991 62.5096 28.0215 62.4216 28.0631L54.8666 31.759C54.0842 32.1414 53.1563 32.0598 52.4523 31.5494C51.7483 31.0375 51.3851 30.1799 51.5067 29.3175L52.6859 20.9898C52.7003 20.8938 52.6907 20.7946 52.6603 20.7018C52.6299 20.609 52.5803 20.5242 52.5115 20.4554L46.662 14.4108C46.0573 13.7852 45.8461 12.8764 46.1149 12.0492C46.3837 11.2221 47.0876 10.6109 47.9452 10.4605L56.2298 9.00933C56.3258 8.99173 56.417 8.95333 56.4953 8.89733C56.5737 8.83973 56.6393 8.76613 56.6841 8.67974L60.6264 1.24956Z" fill="#D9D9D9" fill-opacity="0.5"/>
<path id="Vector_3" fill-rule="evenodd" clip-rule="evenodd" d="M106.626 1.24956C107.034 0.481585 107.833 0 108.703 0C109.574 0 110.372 0.481585 110.78 1.24956L114.721 8.68134C114.765 8.76773 114.831 8.84133 114.909 8.89893C114.988 8.95653 115.079 8.99493 115.175 9.01093L123.46 10.4621C124.317 10.6125 125.019 11.2237 125.29 12.0508C125.559 12.878 125.349 13.7868 124.743 14.4124L118.893 20.457C118.826 20.5274 118.775 20.6122 118.744 20.7034C118.714 20.7962 118.706 20.8938 118.719 20.9914L119.898 29.3191C120.02 30.1799 119.656 31.0391 118.952 31.551C118.248 32.063 117.32 32.143 116.538 31.7606L108.983 28.0647C108.897 28.0215 108.801 27.9991 108.703 27.9991C108.606 27.9991 108.51 28.0215 108.422 28.0631L100.867 31.759C100.084 32.1414 99.1563 32.0598 98.4523 31.5494C97.7483 31.0375 97.3851 30.1799 97.5067 29.3175L98.6859 20.9898C98.7003 20.8938 98.6907 20.7946 98.6603 20.7018C98.6299 20.609 98.5803 20.5242 98.5115 20.4554L92.662 14.4108C92.0573 13.7852 91.8461 12.8764 92.1149 12.0492C92.3837 11.2221 93.0876 10.6109 93.9452 10.4605L102.23 9.00933C102.326 8.99173 102.417 8.95333 102.495 8.89733C102.574 8.83973 102.639 8.76613 102.684 8.67974L106.626 1.24956Z" fill="#D9D9D9" fill-opacity="0.5"/>
<path id="Vector_4" fill-rule="evenodd" clip-rule="evenodd" d="M152.626 1.24956C153.034 0.481585 153.833 0 154.703 0C155.574 0 156.372 0.481585 156.78 1.24956L160.721 8.68134C160.765 8.76773 160.831 8.84133 160.909 8.89893C160.988 8.95653 161.079 8.99493 161.175 9.01093L169.46 10.4621C170.317 10.6125 171.019 11.2237 171.29 12.0508C171.559 12.878 171.349 13.7868 170.743 14.4124L164.893 20.457C164.826 20.5274 164.775 20.6122 164.744 20.7034C164.714 20.7962 164.706 20.8938 164.719 20.9914L165.898 29.3191C166.02 30.1799 165.656 31.0391 164.952 31.551C164.248 32.063 163.32 32.143 162.538 31.7606L154.983 28.0647C154.897 28.0215 154.801 27.9991 154.703 27.9991C154.606 27.9991 154.51 28.0215 154.422 28.0631L146.867 31.759C146.084 32.1414 145.156 32.0598 144.452 31.5494C143.748 31.0375 143.385 30.1799 143.507 29.3175L144.686 20.9898C144.7 20.8938 144.691 20.7946 144.66 20.7018C144.63 20.609 144.58 20.5242 144.511 20.4554L138.662 14.4108C138.057 13.7852 137.846 12.8764 138.115 12.0492C138.384 11.2221 139.088 10.6109 139.945 10.4605L148.23 9.00933C148.326 8.99173 148.417 8.95333 148.495 8.89733C148.574 8.83973 148.639 8.76613 148.684 8.67974L152.626 1.24956Z" fill="#D9D9D9" fill-opacity="0.5"/>
<path id="Vector_5" fill-rule="evenodd" clip-rule="evenodd" d="M198.626 1.24956C199.034 0.481585 199.833 0 200.703 0C201.574 0 202.372 0.481585 202.78 1.24956L206.721 8.68134C206.765 8.76773 206.831 8.84133 206.909 8.89893C206.988 8.95653 207.079 8.99493 207.175 9.01093L215.46 10.4621C216.317 10.6125 217.019 11.2237 217.29 12.0508C217.559 12.878 217.349 13.7868 216.743 14.4124L210.893 20.457C210.826 20.5274 210.775 20.6122 210.744 20.7034C210.714 20.7962 210.706 20.8938 210.719 20.9914L211.898 29.3191C212.02 30.1799 211.656 31.0391 210.952 31.551C210.248 32.063 209.32 32.143 208.538 31.7606L200.983 28.0647C200.897 28.0215 200.801 27.9991 200.703 27.9991C200.606 27.9991 200.51 28.0215 200.422 28.0631L192.867 31.759C192.084 32.1414 191.156 32.0598 190.452 31.5494C189.748 31.0375 189.385 30.1799 189.507 29.3175L190.686 20.9898C190.7 20.8938 190.691 20.7946 190.66 20.7018C190.63 20.609 190.58 20.5242 190.511 20.4554L184.662 14.4108C184.057 13.7852 183.846 12.8764 184.115 12.0492C184.384 11.2221 185.088 10.6109 185.945 10.4605L194.23 9.00933C194.326 8.99173 194.417 8.95333 194.495 8.89733C194.574 8.83973 194.639 8.76613 194.684 8.67974L198.626 1.24956Z" fill="#D9D9D9" fill-opacity="0.5"/>
</g>
</svg>
