<svg width="24" height="24" viewBox="-2 -2 24 24" fill="none" xmlns="http://www.w3.org/2000/svg">
<g id="Group">
<path id="Vector" d="M11.2833 2.75462L13.5824 3.71873L3.97301 10.3404V5.84826H4.32263H5.31853C5.51983 5.85886 5.86945 5.86945 6.19789 5.89064H6.20848C6.21908 5.89064 6.21908 5.89064 6.21908 5.89064C6.31443 5.90124 6.40978 5.90124 6.50513 5.91183C6.53692 5.91183 6.5687 5.92243 6.60049 5.92243C6.80178 5.94362 6.9713 5.9754 7.04546 6.00718C7.05606 6.00718 7.05606 6.01778 7.05606 6.01778C7.09844 6.02837 7.13022 6.03897 7.162 6.06016C7.18319 6.07075 7.21498 6.07075 7.23617 6.08135C7.23617 6.08135 7.24676 6.08135 7.24676 6.09194C7.35271 6.13432 7.41628 6.1767 7.45865 6.21908C7.62817 6.33562 7.75531 6.48394 7.80828 6.65346C7.80828 6.66405 7.81887 6.66405 7.81887 6.67465L11.2621 4.30144C11.1244 4.13193 10.9761 3.96241 10.8172 3.81409C10.351 3.3797 9.80008 3.04067 9.1538 2.797C8.51812 2.55332 7.81887 2.41559 7.05606 2.3838L5.94362 2.34142H0V13.0526V13.7731V16.1569L18.6043 0L11.2833 2.75462Z" fill="#0064FF" fill-opacity=""/>
<path id="Vector_2" d="M0 17.0893V17.6296V17.7779V19.2188H6.91833C7.67055 19.2188 8.38039 19.1023 9.02667 18.8798C9.67294 18.6573 10.2345 18.3288 10.7218 17.9157C11.1986 17.5025 11.58 17.0045 11.8449 16.4324C12.1097 15.8603 12.2474 15.2246 12.2474 14.5254C12.2474 14.1757 12.2051 13.8261 12.1309 13.4659C12.0462 13.1057 11.919 12.7666 11.7389 12.4382C11.5588 12.1098 11.3257 11.8131 11.0397 11.5377C10.8278 11.3364 10.5629 11.1668 10.2768 11.0185L7.88244 13.6142C7.9566 13.7943 7.99898 14.0062 7.99898 14.2393C7.99898 14.3982 7.97779 14.5571 7.93542 14.7161C7.89304 14.875 7.80828 15.0339 7.69174 15.1716C7.5752 15.32 7.42687 15.4365 7.23617 15.5213C7.04546 15.606 6.81238 15.6484 6.51573 15.6484H4.86296L14.7054 4.97955L15.2352 7.4799L19.134 0.529785L0 17.0893Z" fill="#0064FF" fill-opacity=""/>
</g>
</svg>
